<svg width="402" height="152" viewBox="0 0 402 152" fill="none" xmlns="http://www.w3.org/2000/svg">
<path d="M401.097 121.911H381.135V148.663H349.649V121.911H288.119V98.0396L355.411 2.14258H381.135V97.0105H401.097V121.911ZM349.649 97.0105V50.9147L317.547 97.0105H349.649Z" fill="#283347"/>
<path d="M112.977 122.237H93.0164V148.99H61.5308V122.237H0V98.3658L67.2921 2.46875H93.0164V97.3366H112.977V122.237ZM61.5308 97.3366V51.2409L29.4276 97.3366H61.5308Z" fill="#283347"/>
<path d="M201.221 150.931C242.624 150.931 276.187 117.368 276.187 75.9654C276.187 34.5632 242.624 1 201.221 1C159.819 1 126.256 34.5632 126.256 75.9654C126.256 117.368 159.819 150.931 201.221 150.931Z" stroke="#FF7800" stroke-width="2"/>
<path d="M231.354 67.88C235.819 67.88 239.439 64.2604 239.439 59.7954C239.439 55.3305 235.819 51.7109 231.354 51.7109C226.889 51.7109 223.27 55.3305 223.27 59.7954C223.27 64.2604 226.889 67.88 231.354 67.88Z" fill="#FF7800"/>
<path d="M171.089 67.88C175.554 67.88 179.173 64.2604 179.173 59.7954C179.173 55.3305 175.554 51.7109 171.089 51.7109C166.624 51.7109 163.004 55.3305 163.004 59.7954C163.004 64.2604 166.624 67.88 171.089 67.88Z" fill="#FF7800"/>
<path d="M225.474 111.837C218.876 106.413 210.429 103.156 201.221 103.156C192.013 103.156 183.566 106.413 176.967 111.837" stroke="#FF7800" stroke-width="2" stroke-linecap="round"/>
</svg>
