<svg width="115" height="22" viewBox="0 0 115 22" fill="none" xmlns="http://www.w3.org/2000/svg">
<path d="M34.262 10.161C34.3572 10.0699 34.4696 9.95246 34.5994 9.80879C34.7288 9.66512 34.8514 9.4955 34.9673 9.29961C35.0831 9.10371 35.1821 8.88545 35.2637 8.64383C35.3457 8.40253 35.3867 8.1447 35.3867 7.87065C35.3867 7.33584 35.2912 6.83671 35.1004 6.37325C34.9094 5.91012 34.6163 5.50537 34.221 5.15932C33.8256 4.81392 33.3317 4.54278 32.7385 4.34689C32.1457 4.15133 31.4536 4.05338 30.6632 4.05338H25.4489V17.7563H31.1744C32.0058 17.7563 32.7314 17.6486 33.352 17.4333C33.972 17.2179 34.4869 16.9212 34.8958 16.5427C35.3047 16.1642 35.6079 15.7238 35.8057 15.2214C36.0032 14.719 36.1022 14.1806 36.1022 13.6063C36.1022 12.8363 35.9182 12.1514 35.5503 11.5507C35.1821 10.9507 34.7525 10.4873 34.262 10.161ZM31.7303 6.56428C31.9231 6.63466 32.084 6.72612 32.2097 6.84125C32.5353 7.14027 32.6982 7.49768 32.6982 7.91346C32.6982 8.29064 32.6301 8.60231 32.4946 8.84912C32.3588 9.09626 32.2229 9.28469 32.0874 9.41442L28.1072 9.41442V6.40244H30.5812C31.045 6.40244 31.4268 6.45725 31.7303 6.56428ZM31.3174 11.7859C32.0379 11.7859 32.5718 11.9646 32.9194 12.3213C33.2463 12.6725 33.411 13.087 33.411 13.5667C33.411 14.061 33.2243 14.4829 32.851 14.8338C32.4773 15.1847 31.8635 15.3605 31.0081 15.3605H28.1072V11.7859H31.3174Z" fill="#00529C"/>
<path d="M45.8093 11.8543C46.2385 11.5737 46.5966 11.2475 46.8828 10.8755C47.1691 10.5035 47.3802 10.0926 47.5167 9.64241C47.6529 9.19193 47.7213 8.73204 47.7213 8.2621C47.7213 7.64881 47.6153 7.08449 47.4042 6.56882C47.1925 6.05347 46.8757 5.6098 46.4533 5.23781C46.0305 4.86581 45.5024 4.57554 44.8685 4.36668C44.2347 4.15814 43.5019 4.05338 42.6706 4.05338L37.0368 4.05338V17.7563H39.7467V12.6667H41.2576L44.9945 17.7563H48.1708L44.3065 12.4906C44.8787 12.3473 45.3797 12.1351 45.8093 11.8543ZM42.6909 6.40244C42.8613 6.40244 43.0222 6.41315 43.1754 6.43163C43.6584 6.50136 44.0531 6.66644 44.3573 6.92882C44.7713 7.28654 44.9783 7.72503 44.9783 8.24459C44.9783 8.50502 44.9339 8.75831 44.8458 9.00512C44.7574 9.25225 44.6185 9.46987 44.4285 9.65798C44.2381 9.84674 43.9938 9.99917 43.6954 10.1162C43.3966 10.2333 43.0368 10.2917 42.616 10.2917H39.7467V6.40244H42.6909Z" fill="#00529C"/>
<path d="M49.1279 4.05338V4.05728C49.1004 4.05663 49.0737 4.05338 49.0462 4.05338H49.0232V17.7563H51.7862V4.05338H49.1279Z" fill="#00529C"/>
<path d="M54.8059 9.26935H53.5055V7.93832H54.8059V7.19452C54.8059 6.05923 55.0598 5.25018 55.5676 4.76735C56.0754 4.27148 56.7628 4.02355 57.6298 4.02355H58.0013V5.35457H57.6298C57.1467 5.35457 56.7752 5.49811 56.5151 5.7852C56.2674 6.07228 56.1435 6.57468 56.1435 7.29239V7.93832H58.0013V9.26935H56.1435V17.7253H54.8059V9.26935Z" fill="#F36F21"/>
<path d="M59.7848 7.93832H61.1224V17.7253H59.7848V7.93832ZM59.7848 4.02355H61.1224V5.62861H59.7848V4.02355Z" fill="#F36F21"/>
<path d="M63.7418 7.93833H65.0794V9.21063C65.451 8.74085 65.9154 8.382 66.4728 8.13406C67.0301 7.87308 67.5688 7.74259 68.089 7.74259C69.3028 7.74259 70.2564 8.08839 70.95 8.78C71.6559 9.47161 72.0089 10.5547 72.0089 12.0293V17.7253H70.6527V12.3033C70.6527 11.1811 70.4236 10.3785 69.9654 9.89571C69.5071 9.39984 68.8507 9.15191 67.9961 9.15191C67.6989 9.15191 67.4016 9.21063 67.1044 9.32807C66.8072 9.43246 66.5285 9.57601 66.2684 9.7587C66.0083 9.92834 65.773 10.1176 65.5624 10.3263C65.3519 10.5351 65.1909 10.7439 65.0794 10.9527V17.7253L63.7418 17.7253V7.93833Z" fill="#F36F21"/>
<path d="M81.6879 16.453C80.8209 17.4317 79.7682 17.921 78.5297 17.921C77.8609 17.921 77.2293 17.7905 76.6348 17.5295C76.0527 17.2555 75.5449 16.8901 75.1114 16.4334C74.6779 15.9767 74.3311 15.4417 74.071 14.8283C73.8233 14.202 73.6995 13.5365 73.6995 12.8318C73.6995 12.1271 73.8233 11.4682 74.071 10.8548C74.3311 10.2285 74.6779 9.68692 75.1114 9.2302C75.5449 8.77348 76.0527 8.41462 76.6348 8.15364C77.2293 7.8796 77.8609 7.74259 78.5297 7.74259C79.7682 7.74259 80.8209 8.23193 81.6879 9.21063V7.93833H83.0255V17.7253H81.6879V16.453ZM81.6879 10.9527C81.5517 10.7439 81.3721 10.5286 81.1492 10.3068C80.9386 10.0849 80.6971 9.88266 80.4246 9.69998C80.1645 9.51729 79.8735 9.36722 79.5515 9.24978C79.2295 9.13233 78.8889 9.07361 78.5297 9.07361C78.0343 9.07361 77.576 9.17148 77.1549 9.36722C76.7338 9.56296 76.3685 9.83047 76.0589 10.1697C75.7492 10.509 75.5077 10.907 75.3343 11.3638C75.1609 11.8205 75.0742 12.3098 75.0742 12.8318C75.0742 13.3538 75.1609 13.8431 75.3343 14.2998C75.5077 14.7566 75.7492 15.1546 76.0589 15.4938C76.3685 15.8331 76.7338 16.1006 77.1549 16.2964C77.576 16.4921 78.0343 16.59 78.5297 16.59C78.8889 16.59 79.2295 16.5378 79.5515 16.4334C79.8735 16.316 80.1645 16.1724 80.4246 16.0028C80.6971 15.8201 80.9386 15.6178 81.1492 15.396C81.3721 15.1611 81.5517 14.9327 81.6879 14.7109V10.9527Z" fill="#F36F21"/>
<path d="M85.4406 7.93833H86.7782V9.21063C87.1498 8.74085 87.6142 8.382 88.1715 8.13406C88.7289 7.87308 89.2676 7.74259 89.7878 7.74259C91.0016 7.74259 91.9552 8.08839 92.6488 8.78C93.3547 9.47161 93.7077 10.5547 93.7077 12.0293V17.7253H92.3515V12.3033C92.3515 11.1811 92.1224 10.3785 91.6642 9.89571C91.2059 9.39984 90.5495 9.15191 89.6949 9.15191C89.3977 9.15191 89.1004 9.21063 88.8032 9.32807C88.5059 9.43246 88.2273 9.57601 87.9672 9.7587C87.7071 9.92834 87.4718 10.1176 87.2612 10.3263C87.0507 10.5351 86.8897 10.7439 86.7782 10.9527V17.7253H85.4406V7.93833Z" fill="#F36F21"/>
<path d="M104.223 15.1807C103.864 16.0028 103.325 16.6683 102.606 17.1772C101.888 17.6731 101.058 17.921 100.117 17.921C99.4482 17.921 98.8166 17.7905 98.2221 17.5295C97.64 17.2555 97.1322 16.8901 96.6987 16.4334C96.2653 15.9767 95.9185 15.4417 95.6584 14.8283C95.4107 14.202 95.2868 13.5365 95.2868 12.8318C95.2868 12.1271 95.4107 11.4682 95.6584 10.8548C95.9185 10.2285 96.2653 9.68692 96.6987 9.2302C97.1322 8.77348 97.64 8.41462 98.2221 8.15364C98.8166 7.8796 99.4482 7.74259 100.117 7.74259C101.058 7.74259 101.888 7.99705 102.606 8.50597C103.325 9.00184 103.864 9.66083 104.223 10.4829H102.606C102.322 10.0523 101.975 9.71955 101.566 9.48466C101.17 9.24978 100.687 9.13233 100.117 9.13233C99.6216 9.13233 99.1634 9.2302 98.7423 9.42594C98.3212 9.60863 97.9558 9.86962 97.6462 10.2089C97.3489 10.5351 97.1136 10.9266 96.9402 11.3833C96.7669 11.827 96.6802 12.3098 96.6802 12.8318C96.6802 13.3538 96.7669 13.8431 96.9402 14.2998C97.1136 14.7435 97.3489 15.135 97.6462 15.4743C97.9558 15.8005 98.3212 16.0615 98.7423 16.2572C99.1634 16.4399 99.6216 16.5313 100.117 16.5313C100.687 16.5313 101.176 16.4138 101.585 16.1789C102.006 15.944 102.359 15.6113 102.644 15.1807H104.223Z" fill="#F36F21"/>
<path d="M114.366 15.1807C114.168 15.5852 113.914 15.9571 113.604 16.2964C113.295 16.6357 112.948 16.9293 112.564 17.1772C112.193 17.4121 111.784 17.5948 111.338 17.7253C110.904 17.8558 110.452 17.921 109.982 17.921C109.313 17.921 108.688 17.7905 108.105 17.5295C107.536 17.2555 107.04 16.8901 106.619 16.4334C106.198 15.9767 105.864 15.4417 105.616 14.8283C105.381 14.202 105.263 13.5365 105.263 12.8318C105.263 12.1271 105.381 11.4682 105.616 10.8548C105.864 10.2285 106.198 9.68692 106.619 9.2302C107.04 8.77348 107.536 8.41462 108.105 8.15364C108.688 7.8796 109.313 7.74259 109.982 7.74259C110.7 7.74259 111.357 7.8796 111.951 8.15364C112.545 8.42767 113.053 8.81262 113.474 9.3085C113.895 9.80437 114.224 10.4112 114.459 11.1289C114.694 11.8335 114.812 12.623 114.812 13.4973H106.694C106.768 13.941 106.898 14.352 107.084 14.7305C107.269 15.0958 107.499 15.4156 107.771 15.6896C108.056 15.9636 108.384 16.1789 108.756 16.3355C109.127 16.4921 109.536 16.5704 109.982 16.5704C110.551 16.5704 111.078 16.4464 111.561 16.1985C112.056 15.9506 112.465 15.6113 112.787 15.1807H114.366ZM113.326 12.1663C113.289 11.7357 113.171 11.3311 112.973 10.9527C112.787 10.5743 112.545 10.248 112.248 9.97401C111.951 9.69998 111.604 9.48466 111.208 9.32807C110.824 9.17148 110.415 9.09318 109.982 9.09318C109.536 9.09318 109.127 9.17148 108.756 9.32807C108.384 9.48466 108.056 9.69998 107.771 9.97401C107.499 10.248 107.269 10.5743 107.084 10.9527C106.898 11.3311 106.768 11.7357 106.694 12.1663H113.326Z" fill="#F36F21"/>
<path d="M18.1932 0.230469L3.27879 0.230469C1.4678 0.230469 0 1.7422 0 3.60705L0 18.4531C0 20.2997 1.44064 21.8015 3.22808 21.8288H18.185C19.996 21.8288 21.4647 20.3179 21.4647 18.4531L21.471 3.60705C21.471 1.7422 20.0042 0.230469 18.1932 0.230469ZM5.05084 20.0986L4.23771 20.1077C3.25253 20.1077 2.45389 19.294 2.45389 18.2902L2.44936 18.1473L2.44936 4.43709L2.45479 3.69806C2.49192 2.72696 3.22627 1.94606 4.187 1.94606H5.84133C7.34083 1.94606 8.556 3.25665 8.556 4.80114C8.556 5.56565 8.25809 6.25917 7.77547 6.76338L3.55496 11.0683L7.51106 15.1175C8.02086 15.6462 8.32872 16.3398 8.32872 17.0997C8.32872 18.7562 6.86182 20.0986 5.05084 20.0986ZM17.2125 20.085L9.83728 20.0822C9.83728 20.0822 10.6893 18.2301 10.6893 17.0833C10.6893 15.6845 10.2248 14.4358 9.49681 13.6094L6.97411 11.0246L9.54842 8.35065C10.3154 7.62709 10.8243 6.34199 10.8243 4.87759C10.8243 3.71809 10.5055 2.69146 9.99211 1.94606H11.7787C13.2781 1.94606 14.4942 3.25665 14.4942 4.80114C14.4942 5.56565 14.1963 6.25917 13.7137 6.76338L9.57378 11.0237L18.1723 19.8365C17.8998 20.0085 17.5566 20.085 17.2125 20.085ZM19.0135 17.3336L12.8517 11.021L15.7864 8.023C16.3831 7.27214 16.7625 6.14176 16.7625 4.87759C16.7625 3.71081 16.4392 2.65779 15.9213 1.91239L17.2342 1.95243C18.2194 1.95243 19.0181 2.76609 19.0181 3.76996L19.0135 17.3336Z" fill="#00529C"/>
</svg>
