<svg width="16" height="17" viewBox="0 0 16 17" fill="none" xmlns="http://www.w3.org/2000/svg">
<g clip-path="url(#clip0_117_4148)">
<path d="M14.6668 7.60012V8.21345C14.666 9.65106 14.2005 11.0499 13.3397 12.2013C12.4789 13.3528 11.269 14.1951 9.8904 14.6027C8.51178 15.0103 7.03834 14.9614 5.68981 14.4632C4.34128 13.965 3.18993 13.0442 2.40747 11.8382C1.62501 10.6321 1.25336 9.20549 1.34795 7.77099C1.44254 6.33649 1.9983 4.971 2.93235 3.87817C3.8664 2.78533 5.12869 2.02371 6.53096 1.70688C7.93322 1.39006 9.40034 1.53501 10.7135 2.12012" stroke="black" stroke-width="1.5" stroke-linecap="round" stroke-linejoin="round"/>
<path d="M14.6667 2L8 8.67333L6 6.67333" stroke="#FF7800" stroke-width="1.5" stroke-linecap="round" stroke-linejoin="round"/>
</g>
<defs>
<clipPath id="clip0_117_4148">
<rect width="16" height="16" fill="white" transform="translate(0 0.213867)"/>
</clipPath>
</defs>
</svg>
