<svg width="116" height="39" viewBox="0 0 116 39" fill="none" xmlns="http://www.w3.org/2000/svg">
<path d="M67.5949 16.0788C67.7654 16.0788 67.9359 15.9066 67.9359 15.7098V5.37701C67.9359 5.18019 67.7654 5.00798 67.5949 5.00798H65.7682C65.5977 5.00798 65.4272 5.18019 65.4272 5.37701V15.6852C65.4272 15.882 65.5734 16.0542 65.7682 16.0542H67.5949V16.0788Z" fill="black"/>
<path d="M79.3099 5.00798H77.5563C77.3614 5.00798 77.2153 5.18019 77.2153 5.37701V9.65772H73.5376V5.37701C73.5376 5.18019 73.3915 5.00798 73.1966 5.00798H71.443C71.2725 5.00798 71.1264 5.18019 71.1264 5.37701V15.6852C71.1264 15.882 71.2725 16.0542 71.443 16.0542H73.1966C73.3671 16.0542 73.5376 15.882 73.5376 15.6852V10.8632H77.2153V15.6852C77.2153 15.882 77.3614 16.0542 77.5563 16.0542H79.3099C79.4804 16.0542 79.6509 15.882 79.6509 15.6852V5.37701C79.6509 5.18019 79.5047 5.00798 79.3099 5.00798Z" fill="black"/>
<path d="M48.281 5.00796H43.9457C43.7508 5.00796 43.6047 5.18017 43.6047 5.37698V15.6851C43.6047 15.882 43.7508 16.0542 43.9457 16.0542H48.2323C50.7896 16.0542 52.7624 14.4797 52.7624 10.4942C52.7624 6.50867 50.8139 4.98336 48.281 4.98336M47.6477 14.8487H46.0159V6.16424H47.6477C49.6205 6.16424 50.2538 7.49274 50.2538 10.4942C50.2538 13.4956 49.6692 14.8733 47.6477 14.8733" fill="black"/>
<path d="M63.5519 15.7098L59.996 5.40163C59.9472 5.20482 59.728 5.03261 59.5332 5.03261H57.7309C57.7309 5.03261 57.5117 5.13101 57.4873 5.22942L53.9314 15.882C53.9314 15.882 53.9314 16.0788 54.0288 16.0788H55.1005C55.1005 16.0788 55.3197 15.9804 55.344 15.882L56.2208 13.1758H60.0447L60.8728 15.7098C60.9458 15.9066 61.1407 16.0788 61.3355 16.0788H63.284C63.4544 16.0788 63.5519 15.9312 63.5031 15.7098M56.6105 11.9949L58.1449 7.24677L59.6793 11.9949H56.6105Z" fill="black"/>
<path d="M90.83 15.6852L87.2985 5.37701C87.2254 5.15559 87.0306 5.00798 86.8357 5.00798H85.0334C85.0334 5.00798 84.8386 5.10639 84.7899 5.2048L81.2339 15.8574C81.2339 15.8574 81.234 16.0542 81.3557 16.0542H82.4517C82.4517 16.0542 82.6466 15.9558 82.6953 15.8574L83.5721 13.1512H87.4203L88.2484 15.6852C88.3214 15.882 88.5163 16.0542 88.6868 16.0542H90.6352C90.8057 16.0542 90.9275 15.882 90.8544 15.6852M83.9618 11.9703L85.4962 7.22215L87.0306 11.9703H83.9618Z" fill="black"/>
<path d="M98.4046 5.00798H90.2211C90.2211 5.00798 90.0506 5.10639 90.0506 5.2048V5.99205C90.0506 5.99205 90.1237 6.18887 90.2211 6.18887H93.1438V15.6606C93.1438 15.8574 93.2899 16.0296 93.4848 16.0296H95.2627C95.4576 16.0296 95.6037 15.8574 95.6037 15.6606V6.18887H98.4533C98.4533 6.18887 98.6481 6.11506 98.6481 5.99205V5.2048C98.6481 5.2048 98.5507 5.00798 98.4533 5.00798" fill="black"/>
<path d="M114.163 12.4131V5.2048C114.163 5.2048 114.26 5.00798 114.333 5.00798H115.38C115.38 5.00798 115.575 5.10639 115.575 5.2048V12.0687C115.575 12.6837 115.575 12.9052 115.575 13.2988C115.429 15.4884 114.041 16.1772 111.8 16.1772C109.145 16.1772 107.903 14.6765 107.66 13.2988C107.562 12.7822 107.562 12.2409 107.562 11.7735V5.40161C107.562 5.2048 107.708 5.03258 107.903 5.03258H109.632C109.827 5.03258 109.973 5.2048 109.973 5.40161V12.6099C109.973 12.8806 109.973 13.2004 110.022 13.5202C110.144 14.1107 110.534 15.1193 112.092 15.1193C113.456 15.1193 114.138 14.3075 114.138 13.2988V12.4623L114.163 12.4131Z" fill="black"/>
<path d="M104.956 6.73011C104.956 6.73011 105.127 6.68091 105.127 6.5825V5.62303C105.127 5.50002 105.078 5.45082 104.956 5.37701C104.956 5.37701 104.737 5.2294 104.177 5.08179C103.763 4.98339 103.13 4.86038 102.448 4.86038C100.84 4.86038 100.085 5.40162 99.6223 6.04126C99.1839 6.65631 98.9891 7.41897 99.1596 8.28003C99.4031 9.70693 100.524 10.568 101.668 11.4291C102.545 12.0933 103.397 12.6099 103.69 13.471C103.811 13.8154 103.763 14.3567 103.446 14.6519C103.13 14.9471 102.764 15.0701 102.155 15.0701C101.498 15.0701 100.621 14.9225 99.7441 14.5043C99.598 14.4305 99.4031 14.3321 99.4031 14.3321C99.3057 14.2829 99.2327 14.3321 99.2327 14.4551V15.4392C99.2327 15.4392 99.3057 15.636 99.4275 15.6852C99.4275 15.6852 99.5493 15.7344 99.6711 15.7836C100.426 16.0542 101.254 16.1772 102.204 16.1772C103.787 16.1772 104.64 15.6114 105.078 15.0947C105.589 14.5043 105.857 13.6432 105.638 12.61C105.346 10.9616 103.982 10.076 102.886 9.31331C102.082 8.72286 101.254 8.15702 101.035 7.49277C100.889 7.00073 101.084 6.65631 101.205 6.4841C101.425 6.18887 101.887 5.96746 102.521 5.96746C103.081 5.96746 103.641 6.09047 104.274 6.38569C104.396 6.43489 104.664 6.5825 104.932 6.73011" fill="black"/>
<path d="M0.836391 0.136719L36.298 0.136719V21.2205H0.836391L0.836391 0.136719ZM11.5528 6.33638C18.348 6.33638 27.871 7.00063 32.4012 8.84576C32.8152 9.01798 33.1562 9.16559 33.1562 9.48541C33.1562 9.90364 32.2307 10.1989 31.3782 10.4695C28.0172 11.5274 22.0501 12.7575 13.2821 13.3725L5.17167 5.18009C4.3923 5.18009 3.7347 5.2293 3.22323 5.2539L11.6259 13.7415L9.36083 17.0874C22.9269 14.9224 29.0644 12.7575 31.7923 11.4782C32.3768 11.2075 34.0573 10.4449 34.0573 9.46081C34.0573 8.84576 33.4972 8.47674 32.7421 8.15691C29.9412 6.95142 25.2406 6.13956 20.6131 5.74593C15.7907 5.2539 9.38518 5.13089 5.85362 5.15549L13.4282 12.7821C14.9139 12.6836 16.3022 12.536 17.6417 12.413L11.5772 6.28717L11.5528 6.33638Z" fill="black"/>
<path d="M24.7047 28.6995L23.6818 31.4796H25.7033L24.7047 28.6995Z" fill="black"/>
<path d="M49.3282 28.7733L48.3053 31.5533H50.3512L49.3526 28.7733H49.3282Z" fill="black"/>
<path d="M77.5806 28.4043H75.7783V30.2741H77.4832C78.2383 30.2741 78.6036 30.0035 78.6036 29.3146C78.6036 28.9456 78.4331 28.4043 77.5806 28.4043Z" fill="black"/>
<path d="M115.624 22.5491L0.812012 22.5491L0.812012 38.7863H115.624V22.5491ZM11.5041 28.4535H8.02125V30.028H11.0657V31.2581H8.02125V34.2104H6.55992V27.1988H11.5041V28.4535ZM13.4038 34.1365H11.9668L11.9668 27.1496H13.4038L13.4038 34.1365ZM20.3208 34.1365H18.7133L15.5958 29.1424L15.5958 34.1365H14.1101L14.1101 27.1496H15.7907L18.8107 32.0208V27.1496H20.2964V34.1365H20.3208ZM26.7263 34.1365L26.2148 32.7096H23.2435L22.6833 34.1365H20.9297L23.7549 27.1496H25.679L28.4799 34.1365H26.6776H26.7263ZM35.2751 34.2104H33.692L30.5745 29.2162H30.5501V34.2104H29.0644V27.1988H30.745L33.765 32.07H33.7894V27.1988H35.2751V34.2104ZM39.4886 33.1279C40.3654 33.1279 40.9986 32.685 41.1691 31.824H42.7522C42.4356 33.3493 41.364 34.4072 39.4642 34.4072C37.4427 34.4072 36.0057 33.1525 36.0057 30.7415C36.0057 28.3305 37.5401 27.0512 39.4886 27.0512C41.7537 27.0512 42.6792 28.5027 42.7522 29.5114H41.1691C41.0473 29.0932 40.8038 28.3059 39.4886 28.3059C38.7336 28.3059 37.6132 28.7733 37.6132 30.7415C37.6132 31.9962 38.149 33.1279 39.4886 33.1279ZM44.8225 34.2104H43.3855V27.1988H44.8225V34.2104ZM51.3497 34.2104L50.8383 32.7835H47.8913L47.3311 34.2104H45.5775L48.4027 27.1988H50.3268L53.1277 34.2104H51.3254H51.3497ZM58.3885 34.2104H53.493V27.1988H54.9544V32.9311H58.3885V34.2104ZM65.1837 34.3334C62.3828 34.3334 61.92 32.8573 61.92 31.9962H63.4544C63.4544 32.3898 63.6736 33.1279 65.0619 33.1279C65.8169 33.1279 66.6694 32.9557 66.6694 32.2176C66.6694 31.6764 66.0848 31.5288 65.2811 31.3565L64.4774 31.1597C63.2352 30.8891 62.0418 30.6431 62.0418 29.1178C62.0418 28.3305 62.4802 26.9528 64.9888 26.9528C67.327 26.9528 67.9602 28.3551 67.9602 29.2162H66.4258C66.3771 28.921 66.2553 28.1583 64.8671 28.1583C64.2582 28.1583 63.5519 28.3797 63.5519 28.9948C63.5519 29.536 64.039 29.659 64.3556 29.7328L66.2066 30.1511C67.2539 30.3971 68.2281 30.7661 68.2281 32.0454C68.2281 34.1366 65.89 34.3334 65.2324 34.3334M73.8786 34.2104H68.6178V27.1988H73.7325V28.4535H70.0548V29.9296H73.4402V31.1597H70.0548V32.9803H73.8786V34.2104ZM78.6036 34.2104L77.3127 31.455H75.8271V34.2104H74.4144V27.1988H77.9216C79.7727 27.1988 80.3328 28.4781 80.3328 29.3884C80.3328 30.8645 79.8457 31.1105 79.042 31.4303C79.042 31.4303 80.3328 34.1365 80.4546 34.1611H78.6279L78.6036 34.2104ZM85.2283 34.2104H82.8658L80.138 27.1988H82.1351L84.0592 32.5128L85.9833 27.1988H87.9074L85.2039 34.2104H85.2283ZM89.9045 34.1365H88.4432V27.1496H89.9045V34.1365ZM94.045 33.0541C94.9218 33.0541 95.5307 32.6112 95.7255 31.7502H97.3086C96.992 33.2755 95.9203 34.3334 94.0206 34.3334C91.9991 34.3334 90.5621 33.0787 90.5621 30.6431C90.5621 28.2075 92.0965 26.9528 94.045 26.9528C96.31 26.9528 97.2356 28.4043 97.3086 29.4376H95.7255C95.6037 29.0194 95.3602 28.2321 94.045 28.2321C93.29 28.2321 92.1696 28.6995 92.1696 30.6677C92.1696 31.9224 92.7054 33.0541 94.045 33.0541ZM103.349 34.1858H98.088V27.1742H103.178V28.4289H99.5006V29.905H102.886V31.1351H99.5006V32.9557H103.349V34.1858ZM106.929 34.3826C104.128 34.3826 103.665 32.9065 103.665 32.0454H105.2C105.2 32.439 105.419 33.1771 106.807 33.1771C107.562 33.1771 108.415 33.0049 108.415 32.2668C108.415 31.7256 107.83 31.578 107.026 31.4057L106.223 31.2335C104.981 30.9629 103.812 30.7169 103.812 29.1916C103.812 28.4043 104.274 27.0266 106.759 27.0266C109.097 27.0266 109.73 28.4289 109.73 29.29H108.196C108.147 28.9702 108.025 28.2321 106.637 28.2321C106.028 28.2321 105.297 28.4535 105.297 29.0686C105.297 29.6098 105.784 29.7328 106.101 29.8066L107.952 30.2249C108.999 30.4463 109.974 30.8399 109.974 32.0946C109.974 34.1858 107.635 34.3826 106.978 34.3826" fill="black"/>
</svg>
