<svg width="116" height="32" viewBox="0 0 116 32" fill="none" xmlns="http://www.w3.org/2000/svg">
<g clip-path="url(#clip0_106_3823)">
<path d="M16.5967 9.94737C18.2705 9.94737 19.9429 9.94737 21.621 9.94737C22.5771 9.94737 22.8039 9.7181 22.8068 8.75516C22.8139 6.82211 22.8068 4.8862 22.8068 2.95602C22.8068 2.18653 22.8068 2.18653 23.4728 2.5419C28.7842 5.40779 32.0155 11.8188 31.1628 17.7856C30.2168 24.3901 25.7582 29.3151 19.2797 30.8527C16.6197 31.4846 13.9755 31.3241 11.3586 30.5288C10.7126 30.2866 10.7657 30.4299 10.7657 29.7321C10.7657 27.895 10.7915 26.0566 10.7657 24.2195C10.7571 23.708 10.9207 23.5819 11.4131 23.5847C14.2109 23.6062 17.0116 23.5976 19.8051 23.5962C20.8947 23.5962 21.1444 23.344 21.1444 22.2421C21.1444 20.2617 21.1444 18.2814 21.1444 16.3011C21.1444 15.4112 20.8932 15.1547 19.9874 15.1547C17.1422 15.1547 14.2971 15.1389 11.4519 15.1633C10.9193 15.1633 10.7528 15.02 10.7686 14.4827C10.8073 13.1715 10.7973 11.8575 10.7686 10.5463C10.7585 10.0821 10.8863 9.92731 11.3686 9.93448C13.1128 9.96313 14.8512 9.94594 16.5967 9.94737Z" fill="#FC0303"/>
<path d="M9.09339 29.589C6.83743 28.4685 4.89769 26.8032 3.45041 24.7442C-2.89023 15.7553 1.96896 3.25424 12.731 0.897041C15.3133 0.332888 17.9989 0.455931 20.5186 1.25385C21.1904 1.48312 21.1904 1.48312 21.1631 2.08639C21.0799 3.89763 21.1201 5.71318 21.1631 7.53159C21.1775 8.15492 20.9579 8.27386 20.3851 8.26813C17.181 8.24233 13.9784 8.25236 10.7744 8.25236C9.18526 8.25236 9.09482 8.34264 9.09482 9.89166C9.09482 11.7755 9.09482 13.6603 9.09482 15.5461C9.09482 16.6251 9.29867 16.8257 10.4054 16.8271C13.1788 16.8271 15.9522 16.8386 18.7314 16.8157C19.274 16.8157 19.485 16.9289 19.4606 17.5235C19.409 18.7387 19.4176 19.9596 19.4606 21.1733C19.4793 21.7321 19.3171 21.9084 18.7429 21.9026C15.9939 21.8725 13.2434 21.8897 10.4944 21.8883C9.27857 21.8883 9.09913 22.066 9.0977 23.3041L9.09339 29.589Z" fill="#FC0303"/>
<path d="M74.3802 12.9538C75.009 12.4389 75.7337 12.0535 76.5126 11.8199C77.2914 11.5862 78.109 11.509 78.9179 11.5925C79.907 11.6756 80.8042 12.0224 81.3999 12.832C81.7114 13.2619 81.875 13.1802 82.2124 12.9065C83.7613 11.6441 85.5399 11.2801 87.4592 11.7602C88.1562 11.9169 88.7778 12.3085 89.2194 12.8691C89.661 13.4297 89.8956 14.1251 89.8838 14.8382C89.9082 17.9161 89.8838 20.9998 89.8996 24.0735C89.8996 24.6467 89.6627 24.9103 89.0928 24.9032C88.4956 24.8955 87.898 24.8955 87.2998 24.9032C86.7055 24.9132 86.4385 24.6624 86.4457 24.0434C86.4644 21.4183 86.4543 18.7931 86.4457 16.1622C86.4457 14.8539 85.995 14.4527 84.68 14.6046C84.3713 14.6395 84.0671 14.7072 83.7728 14.8066C82.3617 15.2852 82.1679 15.5647 82.1679 17.0463V23.7812C82.1679 24.8229 82.0861 24.9003 81.0109 24.9032C80.5558 24.9032 80.1022 24.9032 79.6471 24.9032C78.8605 24.8903 78.6882 24.7198 78.6868 23.9216C78.681 21.3423 78.681 18.7654 78.6868 16.1909C78.6868 14.8267 78.2561 14.4455 76.8881 14.6146C76.5811 14.6526 76.2793 14.7242 75.988 14.8281C74.6056 15.3268 74.4334 15.5819 74.4334 17.0392C74.4334 19.3534 74.4118 21.669 74.4405 23.9832C74.4491 24.6739 74.185 24.939 73.5132 24.9075C72.939 24.8817 72.3648 24.9075 71.7906 24.9075C71.2767 24.9075 70.991 24.6997 70.9924 24.1394C70.9991 20.2504 70.9991 16.3609 70.9924 12.4709C70.9924 11.945 71.2594 11.7544 71.7547 11.7544C72.1853 11.7659 72.616 11.7544 73.0467 11.7544C74.2008 11.7544 74.2008 11.7544 74.3802 12.9538Z" fill="#393939"/>
<path d="M99.5938 23.7213C98.3378 24.6427 97.03 25.1342 95.5342 25.0883C93.2862 25.0167 91.9842 23.7127 91.9856 21.483C91.9856 20.9099 91.9397 20.3367 92.0904 19.7735C92.4823 18.3148 93.813 17.3576 95.5672 17.3046C96.6654 17.2702 97.7679 17.273 98.8689 17.3046C99.3498 17.3175 99.5206 17.263 99.5206 16.6812C99.5206 16.3946 99.5206 16.1568 99.5206 15.8945C99.5206 14.6049 99.1101 14.1994 97.798 14.185C97.4142 14.1673 97.0295 14.1874 96.6496 14.2452C95.9936 14.3685 95.5629 14.7382 95.6045 15.4704C95.6419 16.1553 95.3289 16.4118 94.6542 16.3574C94.1284 16.3251 93.601 16.3251 93.0752 16.3574C92.5483 16.3803 92.3574 16.1338 92.3416 15.6323C92.2555 13.7537 93.1311 12.4397 94.937 11.9167C96.7167 11.408 98.6037 11.408 100.383 11.9167C102.063 12.3838 102.91 13.5373 102.92 15.2913C102.937 18.1787 102.93 21.0675 102.92 23.9549C102.92 24.7674 102.776 24.8992 101.954 24.9078C101.595 24.9078 101.236 24.9078 100.877 24.9078C99.8178 24.9064 99.7848 24.8791 99.5938 23.7213ZM99.4862 20.5387C99.4862 19.7692 99.2953 19.6933 98.6622 19.7305C97.9272 19.7735 97.1865 19.7305 96.4486 19.7477C95.662 19.7721 95.3806 20.1217 95.3706 21.0159C95.3605 21.9101 95.6261 22.2611 96.4056 22.3242C97.3257 22.4001 98.1282 22.0505 98.9105 21.6249C99.3441 21.3899 99.4862 21.195 99.4862 20.5387Z" fill="#393939"/>
<path d="M38.8844 15.9038C38.8844 13.2796 38.8844 10.6564 38.8844 8.03407C38.8844 7.07256 38.9504 7.01381 39.8892 7.01238C42.878 7.01238 45.8653 7.02957 48.8526 6.99805C49.533 6.99805 49.833 7.19723 49.7655 7.89221C49.7325 8.24758 49.7655 8.60868 49.7655 8.96548C49.7655 9.89547 49.6909 9.96855 48.7248 9.96855C46.9089 9.96855 45.0915 10.0058 43.277 9.94992C42.5593 9.92843 42.4301 10.1577 42.4301 10.8312C42.4301 11.7339 42.4301 12.6825 42.4301 13.5538C42.41 14.041 42.5363 14.2144 43.056 14.2029C44.6566 14.17 46.2586 14.2129 47.8592 14.18C48.5267 14.1657 48.7693 14.4322 48.7291 15.0684C48.7004 15.5198 48.7119 15.9755 48.7291 16.4283C48.7463 16.9771 48.4922 17.1935 47.9467 17.1877C46.3217 17.172 44.6967 17.2021 43.066 17.172C42.5708 17.1634 42.4186 17.2966 42.4258 17.8053C42.4545 19.8559 42.4401 21.9064 42.4358 23.9584C42.4358 24.791 42.3181 24.8984 41.4769 24.9056C40.9515 24.9056 40.4251 24.9056 39.8978 24.9056C39.0164 24.9056 38.893 24.7852 38.893 23.9226C38.8853 21.2487 38.8824 18.5758 38.8844 15.9038Z" fill="#393939"/>
<path d="M60.7242 12.918C61.6128 12.3276 62.533 11.849 63.5809 11.6671C64.2879 11.5368 65.0115 11.5238 65.7227 11.6284C67.5372 11.915 68.6339 13.1946 68.6454 15.0445C68.6641 18.0265 68.6454 21.0084 68.6598 23.9918C68.6598 24.6309 68.4286 24.9232 67.7855 24.9061C67.2113 24.8903 66.6371 24.896 66.0629 24.9061C65.4385 24.9161 65.17 24.6582 65.1758 24.0004C65.2016 21.4011 65.1858 18.8003 65.1844 16.1995C65.1844 14.8439 64.7336 14.4513 63.3756 14.6103C62.5244 14.7106 61.7851 15.0818 61.0659 15.5231C60.7271 15.7295 60.7601 16.0203 60.7601 16.3284C60.7601 18.8332 60.7601 21.3385 60.7601 23.8442C60.7601 24.7886 60.6424 24.9018 59.6849 24.9046C59.1581 24.9046 58.6327 24.9046 58.1059 24.9046C57.579 24.9046 57.3106 24.7054 57.312 24.1394C57.3216 20.2504 57.3216 16.3619 57.312 12.4738C57.312 11.9422 57.5762 11.7573 58.0671 11.7573C58.4734 11.7573 58.8796 11.7573 59.2859 11.7573C60.4931 11.7545 60.4931 11.7545 60.7242 12.918Z" fill="#393939"/>
<path d="M110.274 11.5812C111.361 11.5182 112.447 11.7296 113.432 12.1959C114.062 12.5021 114.578 13.0003 114.905 13.6185C115.233 14.2368 115.355 14.943 115.253 15.635C115.205 16.0119 115.031 16.1881 114.649 16.1824C114.028 16.1738 113.405 16.1637 112.783 16.1824C112.276 16.1996 112.065 15.9631 112.131 15.4888C112.275 14.5431 111.663 14.043 110.64 14.033C110.209 14.0075 109.776 14.0218 109.348 14.0759C108.84 14.1676 108.4 14.3812 108.354 15.0217C108.308 15.6622 108.551 16.0677 109.163 16.2798C110.424 16.7097 111.682 17.1654 112.939 17.6153C113.549 17.8331 114.134 18.1025 114.612 18.5582C114.87 18.7894 115.076 19.0724 115.217 19.3888C115.358 19.7051 115.43 20.0476 115.429 20.3938C115.456 23.4446 114.623 24.4791 111.563 24.9792C109.962 25.24 108.366 25.1426 106.854 24.4791C105.466 23.8687 104.799 22.7281 104.873 21.2292C104.901 20.7033 105.081 20.4339 105.647 20.4626C106.213 20.4912 106.795 20.4798 107.37 20.4626C107.859 20.4526 108.04 20.6933 108.07 21.159C108.132 22.1621 108.281 22.3168 109.25 22.5346C109.954 22.6832 110.684 22.6571 111.376 22.4587C111.884 22.3254 112.204 22.0087 112.255 21.4556C112.309 20.8824 112.085 20.4783 111.537 20.2749C110.285 19.8092 109.035 19.3377 107.776 18.8935C105.272 18.018 104.901 16.3099 105.321 14.2035C105.508 13.2692 106.17 12.6272 107.029 12.1973C108.04 11.7001 109.118 11.5511 110.274 11.5812Z" fill="#393939"/>
<path d="M54.8973 18.3922C54.8973 20.255 54.8757 22.1178 54.9073 23.9806C54.9188 24.6613 54.6705 24.9465 53.99 24.9149C53.3943 24.8863 52.7957 24.9149 52.1971 24.9063C51.709 24.9063 51.4492 24.6656 51.4492 24.1569C51.4492 20.2698 51.4492 16.3817 51.4492 12.4927C51.4492 11.9883 51.6933 11.7533 52.2 11.759C52.8201 11.7676 53.4431 11.7805 54.0661 11.759C54.6891 11.7376 54.9174 11.9955 54.9102 12.6074C54.8901 14.5404 54.9102 16.4763 54.9102 18.4036L54.8973 18.3922Z" fill="#393939"/>
<path d="M54.9005 8.50077C54.9005 10.5456 55.0742 10.2877 53.1161 10.2991C51.3145 10.3091 51.448 10.4295 51.448 8.57958C51.448 6.42156 51.3461 6.71675 53.2525 6.71675C55.0512 6.70815 54.899 6.49034 54.9005 8.50077Z" fill="#393939"/>
</g>
<defs>
<clipPath id="clip0_106_3823">
<rect width="114.812" height="30.6923" fill="white" transform="translate(0.624023 0.546875)"/>
</clipPath>
</defs>
</svg>
