<svg width="117" height="39" viewBox="0 0 117 39" fill="none" xmlns="http://www.w3.org/2000/svg">
<g clip-path="url(#clip0_106_3814)">
<path d="M21.7459 36.2817C18.3802 32.561 16.2068 30.1897 15.5449 29.5159C14.9539 28.9144 14.7726 28.5999 14.7685 28.1692C14.7668 27.9918 14.7785 27.9189 14.8244 27.8211C14.8914 27.6783 14.8111 27.7632 17.1425 25.369C18.1245 24.3605 19.0546 23.4047 19.2094 23.245C19.9941 22.4351 20.0621 22.3716 20.2496 22.2751C20.7087 22.0388 21.1101 22.0199 21.5135 22.2155C21.7438 22.3272 21.5304 22.1062 24.2799 25.08C25.3876 26.2781 27.296 28.3396 28.5209 29.6613C30.9037 32.2322 32.836 34.3277 33.2197 34.7569C33.5918 35.1731 33.7026 35.4582 33.7018 35.9978C33.701 36.4975 33.5591 36.842 33.2676 37.0518C33.0066 37.2397 33.4552 37.2256 27.7502 37.2256H22.5998L21.7459 36.2817Z" fill="#48BBE5"/>
<path d="M113.276 35.0228V32.9248L113.458 32.8722C114.094 32.6875 114.396 32.6331 114.888 32.6144C115.428 32.5939 116.177 32.7006 116.177 32.7982C116.177 32.8415 115.986 33.7783 115.975 33.79C115.97 33.7951 115.847 33.7747 115.702 33.7446C115.34 33.6694 115.053 33.6537 114.78 33.694L114.552 33.7279L114.545 35.4243L114.538 37.1207H113.907H113.276L113.276 35.0228ZM79.2226 34.0311C79.7479 33.9822 80.0315 33.8553 80.1709 33.6072C80.246 33.4736 80.2515 33.4451 80.2515 33.1866C80.2515 32.9523 80.2425 32.8928 80.1931 32.802C80.0626 32.5623 79.8155 32.424 79.4215 32.3701C79.1902 32.3385 78.8217 32.3334 78.6064 32.3588L78.4654 32.3755V33.2167V34.0579L78.7004 34.0579C78.8297 34.0579 79.0647 34.0458 79.2226 34.0311ZM77.1224 34.2472V31.3736L77.4246 31.3297C78.0799 31.2345 79.0287 31.2046 79.5723 31.262C79.9813 31.3051 80.4222 31.4226 80.7206 31.568C81.1589 31.7815 81.4426 32.1154 81.5693 32.5671C81.6374 32.8094 81.6519 33.3905 81.5968 33.6642C81.4875 34.2068 81.2002 34.575 80.6948 34.8201C80.2237 35.0485 79.7943 35.1334 78.9824 35.1586L78.4654 35.1746V36.1477V37.1207H77.7939H77.1224V34.2472ZM66.2948 36.9953C66.188 36.7505 65.8973 35.9643 65.7116 35.4177C65.3744 34.4254 64.8741 32.8139 64.8741 32.7202C64.8741 32.6918 65.0014 32.685 65.5312 32.685H66.1882L66.2145 32.784C66.2289 32.8384 66.3089 33.18 66.3922 33.5431C66.5227 34.1115 66.8092 35.2508 66.8836 35.4969C66.9067 35.5734 66.9096 35.5696 66.9664 35.3913C67.0456 35.1431 67.3935 33.8515 67.5532 33.213L67.682 32.6982L68.1381 32.6911L68.5943 32.684L68.8166 33.5921C69.0276 34.4537 69.3134 35.5262 69.3388 35.5511C69.3668 35.5787 69.6879 34.352 69.9248 33.3121L70.0677 32.685H70.7243H71.381L71.3636 32.7708C71.332 32.9273 70.9169 34.2657 70.6715 35.0027C70.4171 35.7667 70.2507 36.2271 70.0274 36.7847L69.8923 37.1219L69.3955 37.1147L68.8988 37.1075L68.637 36.3154C68.4931 35.8798 68.3163 35.3183 68.2442 35.0676C68.1722 34.817 68.1049 34.6269 68.0948 34.6452C68.0847 34.6635 68.0272 34.8566 67.9669 35.0745C67.8354 35.5499 67.6922 36.0214 67.4878 36.6521L67.3359 37.1207H66.8427H66.3495L66.2948 36.9953ZM54.3986 34.9867V32.8517L54.4993 32.8226C54.6861 32.7687 55.1598 32.6841 55.5123 32.6419C56.009 32.5823 56.803 32.6029 57.08 32.6825C57.3855 32.7703 57.5884 32.8841 57.7848 33.078C58.0814 33.3705 58.217 33.7269 58.2684 34.3484C58.2835 34.5301 58.2922 35.2242 58.2878 35.893L58.2799 37.1075L57.6435 37.1146L57.007 37.1217L56.9978 35.6889C56.9899 34.4447 56.9828 34.2391 56.9445 34.128C56.8092 33.736 56.5887 33.6331 55.973 33.6743L55.6883 33.6934L55.6814 35.4005L55.6745 37.1076L55.0366 37.1147L54.3986 37.1218V34.9867ZM104.963 37.1564C104.397 37.0384 104.002 36.6711 103.863 36.1326C103.778 35.8062 103.768 35.5348 103.768 33.5773V31.6034L103.828 31.5896C103.861 31.582 104.118 31.5403 104.399 31.4968C104.68 31.4534 104.936 31.4116 104.97 31.404L105.03 31.3902V32.0376V32.685H105.796H106.561V33.213V33.7411H105.793H105.025L105.037 34.6586C105.049 35.6419 105.06 35.7327 105.198 35.9335C105.315 36.1048 105.399 36.1309 105.823 36.128C106.117 36.1259 106.238 36.1137 106.382 36.0716C106.51 36.034 106.568 36.0268 106.575 36.0478C106.58 36.0643 106.621 36.2793 106.666 36.5256C106.729 36.8697 106.74 36.9783 106.715 36.9945C106.662 37.0287 106.265 37.1418 106.093 37.172C105.862 37.2125 105.187 37.2032 104.963 37.1564ZM100.981 36.2049C100.992 36.1986 101.001 35.9817 101.001 35.7228V35.2521L100.877 35.2338C100.654 35.2009 100.164 35.2155 100.014 35.2596C99.8526 35.3069 99.7071 35.4201 99.6582 35.5363C99.61 35.6507 99.6351 35.9159 99.7025 36.0055C99.7801 36.1087 99.9505 36.1942 100.132 36.2213C100.279 36.243 100.936 36.2303 100.981 36.2049ZM99.6984 37.163C99.3941 37.113 99.2694 37.0756 99.058 36.971C98.5937 36.7411 98.3697 36.3475 98.3695 35.7609C98.3695 35.1567 98.6518 34.7533 99.2283 34.5348C99.5574 34.41 99.91 34.3653 100.423 34.3834C100.66 34.3917 100.888 34.4068 100.931 34.4169L101.009 34.4352L100.995 34.2485C100.973 33.9358 100.815 33.7408 100.518 33.6589C100.26 33.5878 99.4609 33.6399 99.0819 33.7525C99.0087 33.7742 98.9469 33.7894 98.9445 33.7863C98.942 33.7832 98.9045 33.5609 98.861 33.2922C98.8025 32.9316 98.7899 32.7988 98.8129 32.7849C98.8749 32.7474 99.347 32.6568 99.6798 32.6185C100.457 32.5291 101.08 32.6021 101.512 32.8332C101.703 32.9354 101.955 33.204 102.048 33.4045C102.213 33.7622 102.218 33.8188 102.229 35.4746L102.24 36.9836L102.097 37.0137C101.525 37.1345 101.136 37.1778 100.531 37.188C100.095 37.1953 99.85 37.1879 99.6984 37.163ZM96.7805 37.1715C96.176 37.1085 95.7469 36.8743 95.5645 36.5077C95.4155 36.2084 95.4142 36.1815 95.4142 33.3757L95.4142 30.7971L95.985 30.709C96.2989 30.6605 96.5826 30.6148 96.6154 30.6073L96.6751 30.5938L96.6826 33.1509C96.6895 35.5413 96.6932 35.715 96.7381 35.8128C96.7645 35.8703 96.8068 35.9399 96.8321 35.9674C96.9003 36.0416 97.0637 36.1163 97.1972 36.1343C97.2621 36.143 97.329 36.1586 97.3461 36.169C97.3688 36.1828 97.3536 36.3227 97.2889 36.6939L97.2006 37.1999L97.0931 37.1964C97.0339 37.1945 96.8932 37.1833 96.7805 37.1715ZM85.0938 36.2078L85.1548 36.1953L85.1475 35.7283L85.1402 35.2614L85.0462 35.2406C84.903 35.209 84.3515 35.2121 84.2001 35.2455C83.9014 35.3113 83.7344 35.5174 83.7662 35.7811C83.7748 35.8527 83.8038 35.9482 83.8306 35.9934C83.8931 36.0986 84.0899 36.1979 84.2872 36.2239C84.4372 36.2437 84.9703 36.233 85.0938 36.2078ZM83.88 37.1707C83.0447 37.051 82.6017 36.6674 82.5145 35.9886C82.4129 35.1972 82.8129 34.6514 83.6433 34.4481C83.8388 34.4003 83.9581 34.3906 84.3612 34.3894C84.6271 34.3886 84.9159 34.3979 85.0029 34.4101L85.1611 34.4323L85.1419 34.2661C85.1314 34.1746 85.1071 34.0628 85.0878 34.0175C85.0335 33.8898 84.8952 33.7508 84.7753 33.7037C84.4475 33.5748 83.8333 33.5999 83.1148 33.7717C83.0855 33.7787 83.0599 33.6744 83.0001 33.3062C82.9577 33.0452 82.928 32.8189 82.934 32.8034C82.9466 32.7712 83.2178 32.7058 83.6091 32.6407C84.0002 32.5756 84.8238 32.5757 85.1133 32.6407C85.6111 32.7528 85.9891 33.0157 86.1646 33.3717C86.3463 33.7404 86.3448 33.7236 86.3556 35.4347L86.3654 36.9834L86.2363 37.0103C85.905 37.0792 85.4629 37.1481 85.1939 37.1727C84.8473 37.2043 84.1074 37.2031 83.88 37.1704V37.1707ZM42.8219 37.1589C42.1341 37.0138 41.7368 36.6374 41.5553 35.959C41.4972 35.7415 41.495 35.6874 41.4857 34.2098L41.476 32.685H42.1087H42.7413L42.7415 33.9721C42.7415 34.7218 42.7532 35.331 42.7693 35.4309C42.8284 35.7987 42.9203 35.9634 43.1275 36.0723C43.2268 36.1246 43.2771 36.1305 43.6143 36.1299C43.8211 36.1299 44.0115 36.121 44.0373 36.1109C44.0814 36.0938 44.0843 35.9869 44.0843 34.3888V32.685H44.7156H45.3468V34.8226V36.9603L45.246 36.9869C45.035 37.0428 44.6224 37.1177 44.3035 37.158C43.887 37.2107 43.0696 37.2112 42.8219 37.1589ZM37.768 33.5552C38.2813 33.4919 38.5239 33.2889 38.5239 32.9226C38.5239 32.5864 38.31 32.3858 37.8778 32.3169C37.6931 32.2874 36.8857 32.279 36.785 32.3055L36.7246 32.3215V32.9521V33.5827H37.1349C37.3606 33.5827 37.6455 33.5703 37.768 33.5552ZM37.8796 36.0793C38.4993 35.9874 38.7437 35.7789 38.7466 35.3395C38.7489 34.9813 38.5938 34.7789 38.2242 34.6583C38.0745 34.6094 37.9748 34.6015 37.3894 34.592L36.7246 34.5813V35.3349V36.0885L36.8925 36.0978C37.3021 36.1207 37.6432 36.1143 37.8796 36.0793ZM36.7917 37.1718C36.229 37.1509 35.7345 37.0953 35.4823 37.0247C35.4379 37.0123 35.4353 36.8547 35.4353 34.1927V31.3739L35.6435 31.3432C36.1776 31.2644 36.4361 31.2482 37.1678 31.2477C37.8097 31.2477 37.9937 31.2557 38.2138 31.2955C38.54 31.3546 38.8329 31.4465 39.0476 31.5572C39.2626 31.668 39.5647 31.9673 39.6615 32.1655C39.8549 32.5617 39.8608 33.0743 39.676 33.4305C39.6086 33.5603 39.3588 33.8249 39.2293 33.9036L39.1383 33.9589L39.3276 34.0489C39.8399 34.2925 40.0934 34.7235 40.0938 35.3517C40.094 35.7096 40.0593 35.8706 39.9199 36.1587C39.715 36.582 39.2564 36.9033 38.6451 37.052C38.1642 37.1689 37.6342 37.2032 36.7917 37.1718ZM110.612 34.3072C110.567 34.0198 110.41 33.8015 110.163 33.6821C110.064 33.634 109.994 33.6223 109.809 33.6223C109.606 33.6223 109.561 33.6317 109.421 33.7018C109.191 33.8174 109.038 34.0419 108.966 34.3682L108.947 34.454H109.792H110.636L110.612 34.3072ZM109.538 37.1979C108.798 37.0913 108.205 36.7049 107.917 36.1424C107.704 35.7275 107.605 35.1516 107.66 34.6437C107.699 34.2756 107.77 34.0231 107.918 33.7279C108.193 33.1804 108.627 32.8263 109.238 32.6526C109.51 32.5752 110.094 32.5695 110.389 32.6413C110.707 32.7188 110.998 32.875 111.231 33.0934C111.476 33.3237 111.611 33.5376 111.717 33.8599C111.824 34.1889 111.857 34.454 111.847 34.916L111.839 35.3121L110.393 35.3189L108.948 35.3258L108.966 35.4114C109.018 35.6459 109.218 35.8894 109.457 36.0095C109.823 36.1928 110.664 36.1887 111.241 36.001C111.401 35.9491 111.424 35.947 111.434 35.9836C111.467 36.0941 111.588 36.9137 111.577 36.9433C111.563 36.9787 111.357 37.0502 111.095 37.1107C110.656 37.2119 109.92 37.2531 109.538 37.1979ZM62.2198 36.0816C62.4521 35.9696 62.6152 35.7403 62.7017 35.4044C62.7498 35.2175 62.7561 35.1316 62.7453 34.8132C62.7305 34.3786 62.6939 34.2403 62.53 34.0004C62.4363 33.8633 62.3858 33.8186 62.2418 33.7454C62.0745 33.6604 62.057 33.6572 61.8242 33.6669C61.5476 33.6785 61.406 33.7398 61.2482 33.9165C61.0302 34.1606 60.938 34.5084 60.9594 35.0061C60.9843 35.5857 61.1966 35.9745 61.5603 36.1063C61.7054 36.1589 62.0893 36.1445 62.2198 36.0816ZM61.4404 37.1985C60.4368 37.0223 59.7693 36.2609 59.6638 35.1723C59.5207 33.6964 60.4726 32.5781 61.8709 32.5795C62.2593 32.5795 62.7072 32.6952 63.0125 32.8733C63.2139 32.9909 63.5118 33.2672 63.645 33.46C64.0976 34.1152 64.1924 35.1328 63.8753 35.9326C63.6969 36.3826 63.3587 36.7616 62.9506 36.9688C62.5945 37.1496 62.379 37.2022 61.9463 37.2139C61.7469 37.2192 61.5192 37.2123 61.4404 37.1985ZM72.0545 38.3526C71.8155 38.2922 71.613 38.236 71.6046 38.2275C71.5962 38.2191 71.6191 38.126 71.6555 38.0208C71.8413 37.4839 71.953 36.7194 71.9251 36.1763L71.9071 35.826L72.5741 35.8331L73.2411 35.8402L73.2402 36.2891C73.2394 36.6581 73.2286 36.7865 73.178 37.011C73.0917 37.3939 72.9568 37.7666 72.7678 38.1439C72.6325 38.414 72.5962 38.4669 72.5473 38.4649C72.5151 38.4635 72.2933 38.413 72.0543 38.3527L72.0545 38.3526ZM87.7083 38.6113C87.4056 38.5468 87.2719 38.494 87.2869 38.445C87.2943 38.421 87.3445 38.1993 87.3986 37.9524C87.4526 37.7056 87.4985 37.5019 87.5004 37.4998C87.5023 37.4977 87.5885 37.5178 87.6919 37.5445C87.9116 37.6011 88.3056 37.611 88.4677 37.5639C88.6154 37.521 88.8272 37.3104 88.9335 37.1008L89.0173 36.9356L88.7806 36.4539C88.3653 35.6087 88.0017 34.7397 87.7079 33.8901C87.5375 33.3973 87.3293 32.7439 87.3293 32.702C87.3293 32.6926 87.6295 32.685 87.9964 32.685H88.6636L88.779 33.0876C89.0276 33.9543 89.6021 35.6109 89.6404 35.5712C89.6925 35.5172 90.2036 33.8567 90.4516 32.9358L90.5156 32.6982L91.1653 32.6911C91.7013 32.6852 91.8149 32.6902 91.8149 32.7202C91.8149 32.7602 91.5497 33.6004 91.3802 34.0975C91.0845 34.9646 90.7111 35.9203 90.3627 36.7009C89.9652 37.592 89.7491 37.9583 89.4583 38.2342C89.1311 38.5448 88.8104 38.6535 88.2315 38.65C88.0381 38.6488 87.8027 38.6315 87.7083 38.6113ZM46.6495 38.5994C46.3923 38.5417 46.2868 38.5039 46.2868 38.4695C46.2868 38.4406 46.469 37.6061 46.4898 37.5398C46.5021 37.5006 46.5202 37.5013 46.6972 37.548C46.8455 37.5872 46.9576 37.5973 47.1732 37.5908C47.5413 37.5798 47.6475 37.5243 47.839 37.2429C48.0319 36.9595 48.0318 36.9595 47.8549 36.6129C47.6425 36.197 47.2854 35.4013 47.0518 34.8237C46.8612 34.3522 46.4838 33.2711 46.3719 32.876L46.3176 32.6841L46.9912 32.6911L47.6647 32.6981L47.7944 33.1451C48.0283 33.9515 48.5577 35.5044 48.6209 35.5698C48.6579 35.6079 49.1589 34.0102 49.4573 32.9027L49.5159 32.6849H50.1711C50.5314 32.6849 50.8262 32.6906 50.8262 32.6976C50.8262 32.7294 50.4646 33.8516 50.3283 34.2427C49.816 35.7127 49.1185 37.3347 48.7716 37.8629C48.5086 38.2631 48.165 38.518 47.7627 38.6112C47.5163 38.6683 46.9286 38.6621 46.6495 38.5994Z" fill="#F37D31"/>
<path d="M1.20155 36.9784C1.12769 36.9592 1.02218 36.9245 0.967093 36.9013C0.808892 36.8345 0.598523 36.624 0.512709 36.4466L0.436077 36.2881L0.436056 30.7697L0.436035 25.2512L12.1793 12.6306L23.9225 0.00991707L29.0005 0.00301094C33.9947 -0.00377968 34.0814 -0.00303709 34.2531 0.0483703C34.6357 0.162919 34.9659 0.433782 35.1221 0.761217C35.1865 0.896339 35.2058 0.977677 35.2152 1.15389C35.2304 1.43779 35.1908 1.61458 35.0457 1.91096C34.8916 2.22568 34.7423 2.41375 34.1905 2.98795C32.8344 4.39924 28.8003 8.71114 15.7327 22.7168C6.28274 32.8451 3.20489 36.1355 2.81317 36.5285C2.63676 36.7055 2.40107 36.8374 2.08794 36.9344C1.85281 37.0072 1.39931 37.0297 1.20155 36.9784Z" fill="#F37D31"/>
<path d="M31.5669 26.5756C31.1947 26.4926 31.0156 26.303 30.9497 25.9225C30.929 25.8029 30.9227 23.787 30.9281 19.0207L30.9357 12.2878L31.0056 12.1414C31.1048 11.9335 31.2187 11.818 31.406 11.7354C31.6594 11.6236 31.8306 11.6103 32.9013 11.6194C33.8742 11.6276 33.8924 11.6288 34.0174 11.6892C34.0872 11.7231 34.1802 11.7952 34.224 11.8495C34.3436 11.9979 34.6071 12.561 34.8617 13.212C34.9866 13.5314 35.0985 13.8024 35.1103 13.8142C35.133 13.8368 35.4878 13.4311 35.8661 12.9499C36.1687 12.565 36.6279 12.0983 36.9059 11.8932C37.4721 11.4755 37.932 11.3579 38.8192 11.4041C40.0224 11.4668 40.7662 11.7453 42.0281 12.6058C42.7293 13.084 42.7708 13.1176 42.8564 13.278C42.9266 13.4095 42.9329 13.4421 42.9226 13.6244C42.9078 13.8862 42.863 13.9766 42.1833 15.113C41.5969 16.0936 41.4671 16.2641 41.2148 16.3857C41.0855 16.448 41.0291 16.4592 40.8472 16.4584C40.5354 16.457 40.3945 16.4009 40.1186 16.1686C39.678 15.7975 39.2239 15.5487 38.7912 15.4413C38.4727 15.3622 37.8344 15.3412 37.5388 15.4001C36.8143 15.5444 36.2984 15.9657 35.6656 16.9299L35.5154 17.1588V21.5232C35.5154 25.3199 35.5102 25.9075 35.4751 26.0399C35.4065 26.2986 35.281 26.4383 35.0237 26.5422C34.8873 26.5972 34.8493 26.5986 33.2994 26.6035C32.1133 26.6073 31.6775 26.6003 31.5669 26.5756ZM53.7804 17.1284C53.7804 17.0797 53.6301 16.8294 53.4019 16.4977C52.8621 15.7135 52.2082 15.239 51.4268 15.0643C51.1027 14.9918 50.6194 14.9597 50.3458 14.9924C49.4706 15.097 48.5897 15.7018 47.9588 16.6312C47.8198 16.836 47.6831 17.0843 47.6831 17.132C47.6831 17.1506 48.6518 17.1593 50.7317 17.1593C53.0403 17.1593 53.7804 17.1518 53.7804 17.1284ZM50.7183 26.8328C47.4195 26.6411 44.5934 24.581 43.5245 21.5888C43.2593 20.8464 43.1452 20.1882 43.1245 19.2819C43.1032 18.3496 43.1877 17.6708 43.4268 16.8556C44.3456 13.7222 47.0311 11.5726 50.2356 11.4057C52.0812 11.3095 53.8311 11.8635 55.2845 13.004C55.6054 13.2558 56.2575 13.9009 56.5145 14.2208C57.3478 15.2581 57.8668 16.4504 58.0235 17.6873C58.1072 18.348 58.0784 19.6095 57.9734 19.8809C57.8331 20.2436 57.5612 20.3932 56.923 20.4589C56.7645 20.4752 54.9341 20.4853 52.0918 20.4856H47.5158L47.5348 20.6099C47.5927 20.9896 47.7974 21.4785 48.03 21.7926C48.5188 22.4526 49.1877 22.8614 50.0895 23.0511C50.3439 23.1046 50.4551 23.1126 50.9332 23.1117C51.4328 23.1107 51.5161 23.1038 51.833 23.0366C52.303 22.9371 52.834 22.7623 53.1981 22.5873C53.5556 22.4154 53.7554 22.2881 54.0087 22.071C54.2661 21.8502 54.4908 21.7423 54.6596 21.7583C54.8405 21.7755 54.9624 21.8403 55.1704 22.0296C55.4495 22.2836 56.6317 23.6099 56.7148 23.7623C56.7745 23.8716 56.7887 23.9319 56.7887 24.0756C56.7887 24.403 56.7359 24.486 56.2746 24.884C55.0284 25.9591 53.6647 26.5849 52.1415 26.7807C51.8238 26.8215 51.0288 26.8504 50.7183 26.8323V26.8328ZM68.6609 22.7698C70.1967 22.4415 71.2896 21.3604 71.6206 19.8419C71.6957 19.4971 71.7022 18.8531 71.6342 18.4867C71.5367 17.9619 71.3237 17.4452 71.0203 16.998C70.8156 16.6961 70.4011 16.2702 70.1148 16.0676C69.7075 15.7793 69.1906 15.5473 68.7146 15.4393C68.4158 15.3714 67.7077 15.3442 67.3981 15.3887C66.6957 15.4897 66.0579 15.8076 65.5437 16.313C64.6042 17.2366 64.2111 18.72 64.5358 20.1164C64.8763 21.5812 65.9405 22.5865 67.3851 22.8082C67.6244 22.845 68.4217 22.821 68.6609 22.7698ZM66.8613 26.8466C64.289 26.626 62.067 25.0985 60.9394 22.7758C60.5457 21.9648 60.3155 21.2048 60.1813 20.272C60.114 19.8047 60.1141 18.4483 60.1813 17.9778C60.3154 17.0399 60.5405 16.2918 60.9256 15.5029C61.5793 14.1641 62.536 13.1205 63.777 12.3927C64.8045 11.79 65.9074 11.4675 67.153 11.4054C68.0797 11.3591 68.6752 11.4697 69.3604 11.8154C69.8733 12.0741 70.2436 12.3598 70.8602 12.9725C71.1169 13.2276 71.3313 13.4364 71.3365 13.4364C71.3416 13.4364 71.3491 12.1621 71.3531 10.6046L71.3602 7.77286L71.4356 7.62198C71.4782 7.53666 71.5646 7.42475 71.6343 7.36443C71.8618 7.16754 71.8497 7.16889 73.4822 7.15853C74.4659 7.1523 74.9879 7.15878 75.1043 7.17867C75.4242 7.23338 75.6979 7.42015 75.8478 7.68604L75.9265 7.82567V16.8952C75.9265 25.7095 75.9251 25.9688 75.8759 26.1076C75.8099 26.294 75.6475 26.4536 75.4405 26.5356L75.2818 26.5985H73.8583C73.0753 26.5985 72.3882 26.5888 72.3315 26.577C72.0693 26.5225 71.9049 26.2594 71.5373 25.3057C71.4311 25.0303 71.3388 24.7996 71.3321 24.793C71.3255 24.7864 71.1175 24.9764 70.8701 25.2152C70.2012 25.8605 69.684 26.245 69.1337 26.5059C68.4295 26.8398 67.8302 26.9297 66.8612 26.8466H66.8613Z" fill="#48BBE5"/>
<path d="M91.7835 26.5832C91.5057 26.5416 91.3314 26.4343 91.2124 26.2317C91.1572 26.1377 85.718 13.0906 85.5366 12.617C85.4918 12.5001 85.4698 12.3857 85.4675 12.2583C85.4611 11.9053 85.6435 11.699 86.0132 11.6413C86.2357 11.6066 89.2453 11.6046 89.4594 11.6391C89.8003 11.6939 90.0393 11.8947 90.1597 12.2273C90.1978 12.3327 90.3571 12.8229 90.5137 13.3167C90.9471 14.6835 92.4361 19.2232 92.6224 19.7459C92.7129 20 92.7971 20.2183 92.8093 20.231C92.8216 20.2437 92.8493 20.1962 92.8709 20.1254C92.8924 20.0546 93.4686 18.2383 94.1511 16.089C94.9586 13.5466 95.4199 12.1333 95.4717 12.0438C95.582 11.853 95.7596 11.7059 95.9323 11.6623C96.0426 11.6344 96.4571 11.6269 97.8854 11.6269C99.9095 11.6269 99.8968 11.6259 100.093 11.7973C100.206 11.8952 100.208 11.9 100.217 12.0919C100.224 12.2469 100.213 12.3249 100.161 12.4718C100.062 12.7535 94.4248 26.0279 94.353 26.1487C94.2673 26.2931 94.0536 26.4928 93.9235 26.55C93.8276 26.5923 93.7156 26.5978 92.876 26.6017C92.3589 26.6041 91.8673 26.5959 91.7835 26.5832ZM79.8085 26.5925C79.5101 26.5434 79.2861 26.3729 79.1996 26.129C79.1524 25.9959 79.1504 25.7111 79.1504 19.1254V12.2605L79.2264 12.0988C79.3174 11.9054 79.4515 11.77 79.6339 11.6876C79.7681 11.6269 79.7692 11.6269 81.2507 11.6186C82.8027 11.6101 82.938 11.6175 83.1642 11.7244C83.3162 11.7962 83.5678 12.0389 83.6528 12.1957L83.7166 12.3133V19.165V26.0167L83.6546 26.1393C83.6205 26.2067 83.5479 26.3059 83.4934 26.3597C83.2459 26.6038 83.1885 26.6105 81.3798 26.6067C80.5525 26.605 79.8454 26.5986 79.8085 26.5925ZM109.207 22.7713C109.996 22.5965 110.659 22.1817 111.129 21.5704C111.394 21.2248 111.649 20.6593 111.767 20.1551C111.9 19.5884 111.913 18.8211 111.8 18.2594C111.635 17.4399 111.251 16.7154 110.717 16.2163C110.103 15.6433 109.369 15.3629 108.482 15.3629C107.756 15.3629 107.19 15.5267 106.615 15.9028C105.089 16.9016 104.547 19.1982 105.419 20.9713C105.902 21.9535 106.809 22.6219 107.894 22.7952C108.2 22.844 108.94 22.8305 109.207 22.7713ZM107.797 26.8475C104.919 26.5793 102.486 24.8875 101.331 22.3525C100.625 20.8016 100.448 19.0543 100.828 17.3746C101.387 14.9081 103.179 12.8476 105.559 11.9359C106.534 11.562 107.437 11.3984 108.522 11.3984C109.601 11.3984 110.501 11.5595 111.429 11.9186C113.34 12.658 114.856 14.0818 115.707 15.9347C116.395 17.4343 116.567 19.2025 116.189 20.8763C116.096 21.288 115.864 21.966 115.678 22.3732C114.995 23.8632 113.798 25.1324 112.318 25.9346C111.529 26.3625 110.536 26.6811 109.593 26.809C109.229 26.8585 108.16 26.8814 107.797 26.8475Z" fill="#48BBE5"/>
<path d="M1.34899 18.9975C1.01139 18.9071 0.743961 18.6845 0.579066 18.3566L0.476029 18.1516L0.469155 9.46424C0.461441 -0.278039 0.441957 0.61461 0.667737 0.367758C0.810507 0.211665 0.974476 0.121383 1.23459 0.0556464C1.40282 0.0131312 1.69495 0.00976562 5.21686 0.00976562C8.73633 0.00976562 9.03 0.0131403 9.18542 0.0554154C9.4202 0.119272 9.55571 0.192966 9.70068 0.335612C9.84145 0.474132 9.92264 0.622891 9.9834 0.85362C10.02 0.992667 10.0248 1.57358 10.0247 5.84386L10.0245 10.6767L8.98649 11.8121C5.17186 15.9844 2.88405 18.4376 2.56915 18.6936C2.21506 18.9814 1.73533 19.1009 1.34899 18.9975Z" fill="#48BBE5"/>
<path d="M79.7412 9.82064C79.4604 9.75075 79.2769 9.57651 79.1909 9.2981C79.1363 9.12138 79.1349 9.07391 79.1425 7.65238L79.1503 6.18863L79.2268 6.03546C79.3084 5.8721 79.4063 5.79078 79.6203 5.70863C79.7295 5.66673 79.8889 5.66136 81.2684 5.65321C82.8704 5.64374 83.0587 5.65337 83.3048 5.75744C83.4733 5.82871 83.6286 6.00164 83.6865 6.18241C83.7264 6.30728 83.7305 6.4742 83.7239 7.7084L83.7165 9.09419L83.6272 9.2726C83.5222 9.48211 83.33 9.68137 83.1479 9.7695L83.0182 9.83229L81.42 9.83649C80.541 9.83881 79.7855 9.83167 79.7412 9.82064Z" fill="#F37D31"/>
</g>
<defs>
<clipPath id="clip0_106_3814">
<rect width="115.949" height="38.6496" fill="white" transform="translate(0.436035)"/>
</clipPath>
</defs>
</svg>
