<svg width="193" height="27" viewBox="0 0 193 27" fill="none" xmlns="http://www.w3.org/2000/svg">
<path d="M182.601 15.4562V12.4619H184.94V9.04688H189.122V12.4619H192.784V15.4562H189.122V22.15C189.122 22.3397 189.221 22.4305 189.419 22.4222H192.784V25.4413H188.961C187.707 25.4413 186.722 25.1154 186.004 24.4638C185.295 23.8121 184.94 22.8553 184.94 21.5932V15.4562H182.601Z" fill="#FF7800"/>
<path d="M176.922 10.5921V7.11523H181.104V10.5921H176.922ZM176.922 25.4398V12.4604H181.079V25.4398H176.922Z" fill="#FF7800"/>
<path d="M169.151 12.2344C170.718 12.2344 171.96 12.6881 172.875 13.5954C173.791 14.4945 174.249 15.703 174.249 17.2207V25.4365H170.067V17.9879C170.067 16.9238 169.873 16.1855 169.485 15.7731C169.106 15.3607 168.487 15.1544 167.629 15.1544C165.724 15.1544 164.771 16.3876 164.771 18.854V25.4365H160.614V12.4571H164.61V14.8946C164.915 14.1027 165.472 13.4634 166.28 12.9768C167.097 12.4818 168.054 12.2344 169.151 12.2344Z" fill="#FF7800"/>
<path d="M153.623 12.4609H157.78V25.4403H153.784V23.0028C153.478 23.7947 152.918 24.4381 152.101 24.933C151.293 25.4197 150.34 25.6631 149.243 25.6631C147.675 25.6631 146.434 25.2135 145.518 24.3144C144.603 23.407 144.145 22.1945 144.145 20.6767V12.4609H148.327V19.9219C148.327 20.986 148.517 21.7243 148.896 22.1367C149.276 22.5492 149.899 22.7554 150.765 22.7554C152.67 22.7554 153.623 21.5222 153.623 19.0558V12.4609Z" fill="#FF7800"/>
<path d="M127.874 21.2804V21.2557H132.106V21.2804C132.172 21.9403 132.448 22.4023 132.935 22.6662C133.43 22.9219 134.184 23.0498 135.199 23.0498C136.247 23.0498 136.964 22.9549 137.352 22.7652C137.74 22.5672 137.933 22.2662 137.933 21.862C137.933 21.5073 137.793 21.2433 137.513 21.0701C137.24 20.8886 136.7 20.7154 135.892 20.5504L133.194 20.0184C131.553 19.7132 130.316 19.2719 129.483 18.6945C128.649 18.1088 128.233 17.3004 128.233 16.2693C128.233 15.0155 128.827 14.0257 130.015 13.2998C131.211 12.5739 132.848 12.2109 134.927 12.2109C136.906 12.2109 138.531 12.578 139.802 13.3121C141.08 14.0463 141.761 15.131 141.843 16.5663V16.591H137.81V16.5663C137.727 15.4527 136.799 14.8959 135.026 14.8959C134.077 14.8959 133.413 14.999 133.034 15.2052C132.654 15.4032 132.464 15.7043 132.464 16.1085C132.464 16.4797 132.613 16.756 132.91 16.9375C133.207 17.1107 133.776 17.2839 134.617 17.4571L137.537 17.9397C139.179 18.2449 140.359 18.6903 141.076 19.276C141.802 19.8534 142.165 20.6494 142.165 21.664C142.165 22.9508 141.555 23.9489 140.334 24.6583C139.113 25.3677 137.393 25.7224 135.174 25.7224C133.062 25.7224 131.343 25.3677 130.015 24.6583C128.687 23.9407 127.973 22.8147 127.874 21.2804Z" fill="#071D2B"/>
<path d="M127.59 25.4359H122.851L119.324 19.8803L117.258 21.8848V25.4359H113.101V7.29688H117.258V17.7522L122.393 12.4565H127.057L122.046 17.282L127.59 25.4359Z" fill="#071D2B"/>
<path d="M110.205 12.3379C110.659 12.3379 111.096 12.3791 111.517 12.4616V15.8395C111.096 15.757 110.675 15.7158 110.255 15.7158C108.803 15.7158 107.71 16.0127 106.976 16.6066C106.242 17.1923 105.875 18.2357 105.875 19.737V25.441H101.717V12.4616H105.714V15.4064C106.052 14.4743 106.617 13.7319 107.409 13.1793C108.209 12.6183 109.141 12.3379 110.205 12.3379Z" fill="#071D2B"/>
<path d="M84.1724 19.2298V18.6482C84.1724 16.652 84.8983 15.0765 86.35 13.9217C87.8101 12.7669 89.6619 12.1895 91.9056 12.1895C94.1327 12.1895 95.9722 12.7669 97.424 13.9217C98.884 15.0765 99.614 16.652 99.614 18.6482V19.2298C99.614 21.2425 98.884 22.8221 97.424 23.9687C95.9722 25.1152 94.1327 25.6885 91.9056 25.6885C89.6289 25.6885 87.7688 25.1276 86.3253 24.0058C84.89 22.884 84.1724 21.292 84.1724 19.2298ZM88.4287 19.2298C88.4287 20.4836 88.7133 21.3909 89.2825 21.9519C89.8516 22.5045 90.726 22.7809 91.9056 22.7809C94.207 22.7809 95.3535 21.5972 95.3453 19.2298V18.6482C95.3453 16.2808 94.1987 15.0971 91.9056 15.0971C90.7095 15.0971 89.831 15.3817 89.2701 15.9509C88.7092 16.52 88.4287 17.4192 88.4287 18.6482V19.2298Z" fill="#071D2B"/>
<path d="M79.7308 12.4609H83.9129L79.4215 25.4403H74.8929L72.3812 16.2966L69.8694 25.4403H65.3656L60.8989 12.4609H65.18L67.7413 21.5428L70.2035 12.4609H74.7568L77.3181 21.5428L79.7308 12.4609Z" fill="#071D2B"/>
<path d="M49.9116 15.4562V12.4619H52.2501V9.04688H56.4323V12.4619H60.0947V15.4562H56.4323V22.15C56.4323 22.3397 56.5312 22.4305 56.7292 22.4222H60.0947V25.4413H56.2714C55.0176 25.4413 54.0319 25.1154 53.3142 24.4638C52.6048 23.8121 52.2501 22.8553 52.2501 21.5932V15.4562H49.9116Z" fill="#071D2B"/>
<path d="M49.1688 18.979V20.0431H38.4413C38.5238 21.1402 38.8208 21.9238 39.3322 22.394C39.8519 22.856 40.6355 23.0869 41.6831 23.0869C43.5721 23.0869 44.6568 22.4848 44.9372 21.2804H49.008C48.7193 22.6992 47.9026 23.7881 46.5581 24.5469C45.2218 25.3058 43.6092 25.6853 41.7202 25.6853C39.493 25.6853 37.6824 25.1285 36.2884 24.0149C34.9026 22.9013 34.2097 21.3052 34.2097 19.2265V18.6697C34.2097 16.6735 34.915 15.098 36.3255 13.9432C37.7361 12.7884 39.5219 12.2109 41.6831 12.2109C43.9597 12.2109 45.7745 12.8172 47.1273 14.0298C48.4883 15.2341 49.1688 16.8839 49.1688 18.979ZM45.0362 17.8655V17.8407C44.9207 15.861 43.8401 14.8712 41.7944 14.8712C40.6974 14.8712 39.889 15.1021 39.3693 15.5641C38.8579 16.0177 38.5486 16.7849 38.4413 17.8655H45.0362Z" fill="#071D2B"/>
<circle cx="17.5561" cy="14.2697" r="1.24432" fill="#FF7800"/>
<circle cx="1.96551" cy="13.0217" r="1.24432" fill="#FF7800"/>
<circle cx="30.6576" cy="16.3908" r="1.24432" fill="#FF7800"/>
<path opacity="0.8" fill-rule="evenodd" clip-rule="evenodd" d="M1.96533 11.0159V1.90266L9.17513 8.33546L9.17513 18.1154L3.95939 13.2667C3.97189 13.1769 3.97836 13.0851 3.97836 12.9918C3.97836 11.9003 3.09355 11.0155 2.00209 11.0155C1.98981 11.0155 1.97756 11.0157 1.96533 11.0159ZM1.96533 14.9677V26.2716H9.10185V19.9037L3.19211 14.5698C2.86109 14.8198 2.44891 14.9681 2.00209 14.9681C1.98981 14.9681 1.97756 14.968 1.96533 14.9677ZM10.7854 19.6123L10.7854 9.77221L15.6586 14.1202C15.6551 14.1683 15.6533 14.2168 15.6533 14.2658C15.6533 15.1532 16.2382 15.904 17.0435 16.1537V25.4299L10.7854 19.6123ZM19.1991 15.4669L30.6581 25.6909V18.3729C29.5668 18.3728 28.6821 17.488 28.6821 16.3966C28.6821 16.3382 28.6846 16.2804 28.6896 16.2233L18.5077 7.1387V12.4949C19.1586 12.8182 19.6058 13.4898 19.6058 14.2658C19.6058 14.7176 19.4542 15.134 19.1991 15.4669ZM17.0435 12.3779V5.99661L11.2611 0.726562H3.0617L16.4549 12.6764C16.631 12.5461 16.8295 12.4443 17.0435 12.3779ZM30.6581 0.726562H18.5077V4.9844L29.502 14.7938C29.8271 14.5589 30.2264 14.4204 30.6581 14.4204V0.726562ZM18.5077 26.2716V17.0043L28.8945 26.2716H18.5077Z" fill="url(#paint0_linear_106_3785)"/>
<defs>
<linearGradient id="paint0_linear_106_3785" x1="16.3118" y1="0.726562" x2="16.3118" y2="26.2716" gradientUnits="userSpaceOnUse">
<stop stop-color="#EB3223"/>
<stop offset="0.36" stop-color="#FF7800"/>
<stop offset="1" stop-color="#EB3223"/>
</linearGradient>
</defs>
</svg>
