<svg width="177" height="19" viewBox="0 0 177 19" fill="none" xmlns="http://www.w3.org/2000/svg">
<path d="M166.114 8.54785V5.59375H168.421V2.22461H172.547V5.59375H176.161V8.54785H172.547V15.1519C172.547 15.339 172.645 15.4285 172.84 15.4204H176.161V18.3989H172.389C171.152 18.3989 170.179 18.0775 169.471 17.4346C168.771 16.7917 168.421 15.8477 168.421 14.6025V8.54785H166.114Z" fill="#071D2B"/>
<path d="M160.511 3.75049V0.320312H164.637V3.75049H160.511ZM160.511 18.3989V5.59375H164.613V18.3989H160.511Z" fill="#071D2B"/>
<path d="M152.845 5.375C154.391 5.375 155.616 5.82259 156.52 6.71777C157.423 7.60482 157.875 8.79704 157.875 10.2944V18.3999H153.749V11.0513C153.749 10.0015 153.557 9.27311 153.175 8.86621C152.8 8.45931 152.19 8.25586 151.344 8.25586C149.464 8.25586 148.524 9.47249 148.524 11.9058V18.3999H144.422V5.59473H148.365V7.99951C148.666 7.21826 149.216 6.58757 150.013 6.10742C150.819 5.61914 151.763 5.375 152.845 5.375Z" fill="#071D2B"/>
<path d="M137.525 5.59375H141.627V18.3989H137.684V15.9941C137.383 16.7754 136.83 17.4102 136.024 17.8984C135.226 18.3786 134.286 18.6187 133.204 18.6187C131.658 18.6187 130.433 18.1751 129.53 17.2881C128.626 16.3929 128.175 15.1966 128.175 13.6992V5.59375H132.301V12.9546C132.301 14.0044 132.488 14.7327 132.862 15.1396C133.237 15.5465 133.851 15.75 134.706 15.75C136.585 15.75 137.525 14.5334 137.525 12.1001V5.59375Z" fill="#071D2B"/>
<path d="M112.123 14.2974V14.2729H116.297V14.2974C116.362 14.9484 116.635 15.4041 117.115 15.6646C117.604 15.9168 118.348 16.043 119.349 16.043C120.383 16.043 121.091 15.9494 121.473 15.7622C121.856 15.5669 122.047 15.2699 122.047 14.8711C122.047 14.5212 121.909 14.2607 121.632 14.0898C121.363 13.9108 120.83 13.7399 120.033 13.5771L117.372 13.0522C115.752 12.7511 114.531 12.3158 113.709 11.7461C112.888 11.1683 112.477 10.3708 112.477 9.35352C112.477 8.11654 113.062 7.13997 114.234 6.42383C115.414 5.70768 117.03 5.34961 119.081 5.34961C121.034 5.34961 122.637 5.71175 123.89 6.43604C125.152 7.16032 125.823 8.23047 125.904 9.64648V9.6709H121.925V9.64648C121.843 8.54785 120.928 7.99854 119.178 7.99854C118.242 7.99854 117.587 8.10026 117.213 8.30371C116.839 8.49902 116.651 8.79606 116.651 9.19482C116.651 9.56104 116.798 9.83366 117.091 10.0127C117.384 10.1836 117.945 10.3545 118.775 10.5254L121.656 11.0015C123.276 11.3026 124.439 11.742 125.147 12.3198C125.864 12.8895 126.222 13.6748 126.222 14.6758C126.222 15.9453 125.619 16.93 124.415 17.6299C123.211 18.3298 121.514 18.6797 119.325 18.6797C117.241 18.6797 115.545 18.3298 114.234 17.6299C112.924 16.9219 112.22 15.811 112.123 14.2974Z" fill="#071D2B"/>
<path d="M111.842 18.3994H107.167L103.688 12.9185L101.649 14.896V18.3994H97.5474V0.503906H101.649V10.8188L106.715 5.59424H111.317L106.373 10.355L111.842 18.3994Z" fill="#071D2B"/>
<path d="M94.6909 5.47266C95.1385 5.47266 95.5698 5.51335 95.9849 5.59473V8.92725C95.5698 8.84587 95.1548 8.80518 94.7397 8.80518C93.3075 8.80518 92.2292 9.09814 91.5049 9.68408C90.7806 10.2619 90.4185 11.2913 90.4185 12.7725V18.3999H86.3169V5.59473H90.2598V8.5C90.5934 7.5804 91.1509 6.84798 91.9321 6.30273C92.7215 5.74935 93.6411 5.47266 94.6909 5.47266Z" fill="#071D2B"/>
<path d="M69.0073 12.27V11.6963C69.0073 9.72689 69.7235 8.17253 71.1558 7.0332C72.5962 5.89388 74.4232 5.32422 76.6367 5.32422C78.834 5.32422 80.6488 5.89388 82.0811 7.0332C83.5215 8.17253 84.2417 9.72689 84.2417 11.6963V12.27C84.2417 14.2557 83.5215 15.8141 82.0811 16.9453C80.6488 18.0765 78.834 18.6421 76.6367 18.6421C74.3906 18.6421 72.5555 18.0887 71.1313 16.9819C69.7153 15.8752 69.0073 14.3045 69.0073 12.27ZM73.2065 12.27C73.2065 13.507 73.4873 14.4022 74.0488 14.9556C74.6104 15.5008 75.473 15.7734 76.6367 15.7734C78.9072 15.7734 80.0384 14.6056 80.0303 12.27V11.6963C80.0303 9.36068 78.8991 8.19287 76.6367 8.19287C75.4567 8.19287 74.59 8.47363 74.0366 9.03516C73.4832 9.59668 73.2065 10.4837 73.2065 11.6963V12.27Z" fill="#071D2B"/>
<path d="M64.625 5.59375H68.751L64.3198 18.3989H59.8521L57.374 9.37793L54.896 18.3989H50.4526L46.0459 5.59375H50.2695L52.7964 14.5537L55.2256 5.59375H59.7178L62.2446 14.5537L64.625 5.59375Z" fill="#071D2B"/>
<path d="M35.2061 8.54785V5.59375H37.5132V2.22461H41.6392V5.59375H45.2524V8.54785H41.6392V15.1519C41.6392 15.339 41.7368 15.4285 41.9321 15.4204H45.2524V18.3989H41.4805C40.2435 18.3989 39.271 18.0775 38.563 17.4346C37.8631 16.7917 37.5132 15.8477 37.5132 14.6025V8.54785H35.2061Z" fill="#071D2B"/>
<path d="M34.4736 12.0269V13.0767H23.8901C23.9715 14.159 24.2645 14.9321 24.769 15.396C25.2817 15.8517 26.0549 16.0796 27.0884 16.0796C28.952 16.0796 30.0221 15.4855 30.2988 14.2974H34.3149C34.0301 15.6971 33.2244 16.7713 31.8979 17.52C30.5796 18.2687 28.9886 18.6431 27.125 18.6431C24.9277 18.6431 23.1414 18.0938 21.7661 16.9951C20.3989 15.8965 19.7153 14.3218 19.7153 12.271V11.7217C19.7153 9.75228 20.4111 8.19792 21.8027 7.05859C23.1943 5.91927 24.9562 5.34961 27.0884 5.34961C29.3345 5.34961 31.1248 5.94775 32.4595 7.14404C33.8022 8.33219 34.4736 9.9598 34.4736 12.0269ZM30.3965 10.9282V10.9038C30.2826 8.95068 29.2165 7.97412 27.1982 7.97412C26.1159 7.97412 25.3184 8.20199 24.8057 8.65771C24.3011 9.10531 23.9959 9.86214 23.8901 10.9282H30.3965Z" fill="#071D2B"/>
<path d="M13.1724 0.601562H17.3228V18.3994H12.5498L4.87158 6.70508V18.3994H0.721191V0.601562H5.67725L13.1724 12.125V0.601562Z" fill="#071D2B"/>
</svg>
