<svg width="1366" height="453" viewBox="0 0 1366 453" fill="none" xmlns="http://www.w3.org/2000/svg">
<path opacity="0.6" d="M0 0H1366V423C1366 439.569 1352.57 453 1336 453H30C13.4315 453 0 439.569 0 423V0Z" fill="url(#paint0_radial_212_68)"/>
<g opacity="0.2">
<path d="M55.4742 318.027C62.9988 328.984 102.325 381.381 123.531 380.594C149.228 379.642 180.618 369.536 193.679 360.826C200.997 355.951 175.61 320.998 168.524 324.565C157.269 330.202 131.095 338.341 126.577 339.318C122.06 340.296 89.251 316.198 69.5425 305.635C51.8216 296.113 50.1695 310.32 55.4742 318.027Z" fill="#F7A9A0"/>
<path d="M192.414 361.218C197.267 359.224 222.887 346.871 228.14 342.478C233.393 338.085 247.604 324.36 244.583 320.069C241.563 315.778 237.097 319.447 237.097 319.447C237.097 319.447 242.157 312.718 238.724 308.668C235.291 304.618 228.514 310.572 228.514 310.572C228.514 310.572 233.2 303.284 229.482 299.476C225.765 295.667 219.957 302.789 219.957 302.789C219.957 302.789 224.565 296.34 220.164 294.461C214.859 292.213 207.748 305.075 201.565 309.493C200.171 310.496 171.686 327.852 171.686 327.852L192.414 361.218Z" fill="#F7A9A0"/>
<path d="M220.473 302.195C215.22 311.641 211.258 314.891 201.836 319.97C201.655 320.059 201.772 320.351 201.965 320.275C211.658 316.059 217.221 312.657 220.951 302.373C221.132 301.916 220.719 301.7 220.473 302.195Z" fill="#263238"/>
<path d="M228.915 309.809C222.59 319.154 218.318 322.696 208.858 328.79C208.729 328.879 208.858 329.108 209 329.032C218.796 323.813 224.268 320.347 229.341 310.203C229.573 309.746 229.199 309.391 228.915 309.809Z" fill="#263238"/>
<path d="M236.607 319.751C229.805 328.347 225.301 332.448 215.35 337.196C215.31 337.222 215.281 337.261 215.267 337.306C215.253 337.351 215.255 337.399 215.274 337.443C215.292 337.486 215.325 337.522 215.367 337.544C215.409 337.566 215.458 337.573 215.505 337.564C226.14 333.679 231.793 328.677 236.839 319.98C237.188 319.383 237.033 319.205 236.607 319.751Z" fill="#263238"/>
<path d="M161.322 331.178C161.322 331.178 166.214 318.583 169.595 313.505C172.977 308.426 192.686 294.13 196.08 298.142C200.442 303.31 190.724 313.784 185.29 318.291C185.29 318.291 195.409 330.264 190.078 339.266C184.748 348.267 161.322 331.178 161.322 331.178Z" fill="#F7A9A0"/>
<path d="M196.802 299.946C197.319 307.5 189.794 312.973 184.851 317.721C184.774 317.788 184.716 317.872 184.68 317.966C184.644 318.061 184.632 318.162 184.645 318.262C184.657 318.362 184.694 318.457 184.753 318.54C184.811 318.623 184.889 318.69 184.98 318.737C188.852 324.031 192.814 332.626 190.504 339.14C190.495 339.158 190.491 339.178 190.49 339.198C190.489 339.218 190.493 339.238 190.5 339.257C190.507 339.276 190.518 339.293 190.532 339.308C190.546 339.323 190.563 339.334 190.581 339.343C190.6 339.351 190.62 339.356 190.641 339.356C190.661 339.357 190.681 339.354 190.701 339.347C190.72 339.34 190.737 339.329 190.752 339.315C190.767 339.301 190.779 339.285 190.788 339.267C194.234 332.614 191.072 323.866 186.413 318.33C191.575 313.518 198.88 307.704 196.88 299.933C196.867 299.895 196.802 299.895 196.802 299.946Z" fill="#263238"/>
<path d="M159.773 326.533L182.425 371.186C182.425 371.186 132.773 390.09 113.438 379.463C94.1041 368.837 64.2251 332.335 58.0169 324.006C44.4004 305.774 55.0871 296.227 70.2654 305.52C85.4437 314.814 123.002 337.502 125.39 338.137C127.778 338.772 159.773 326.533 159.773 326.533Z" fill="#FF725E"/>
<path opacity="0.1" d="M109.179 376.808C89.9867 363.782 63.7861 331.736 58.0168 323.991C45.6651 307.486 53.3059 298.066 66.1997 303.436L109.179 376.808Z" fill="black"/>
<path d="M170.202 372.377C167.324 367.464 164.704 362.398 162.109 357.332C159.515 352.266 156.947 347.175 154.365 342.097C152.971 339.189 151.552 336.295 150.261 333.336C150.261 333.26 150.351 333.184 150.39 333.26C153.268 338.161 155.914 343.227 158.534 348.267C161.154 353.308 163.697 358.424 166.278 363.503C167.711 366.385 169.092 369.305 170.383 372.25C170.563 372.377 170.279 372.517 170.202 372.377Z" fill="#455A64"/>
<path d="M100.364 404.704C84.4504 414.577 65.8188 419.361 47.0297 418.397C28.2405 417.433 10.2159 410.769 -4.56738 399.32C0.414605 373.928 12.6372 330.456 37.9602 301.838C45.0202 293.852 64.2899 296.188 66.5356 299.4C81.6494 320.997 95.0595 377.343 100.364 404.704Z" fill="#FF725E"/>
<path d="M79.7388 423.215L135.354 436.051L164.329 361.041L108.714 348.205L79.7388 423.215Z" fill="#A6A6A6"/>
<path d="M82.4622 423.848L138.09 436.684L167.066 361.674L111.451 348.838L82.4622 423.848Z" fill="#C7C7C7"/>
<path d="M132.876 391.053C132.387 392.462 131.388 393.645 130.069 394.376C128.75 395.107 127.204 395.334 125.725 395.014C125.029 394.866 124.373 394.575 123.801 394.158C123.229 393.742 122.753 393.21 122.406 392.598C122.06 391.987 121.849 391.309 121.789 390.612C121.73 389.914 121.822 389.211 122.06 388.551C122.558 387.148 123.558 385.972 124.875 385.243C126.191 384.514 127.732 384.282 129.21 384.59C129.907 384.736 130.564 385.026 131.138 385.442C131.711 385.858 132.188 386.39 132.535 387.002C132.882 387.615 133.092 388.293 133.151 388.991C133.21 389.69 133.116 390.393 132.876 391.053Z" fill="white"/>
<path d="M27.9313 312.109C11.8495 334.137 -22.7534 384.478 -12.5442 396.069C4.23454 415.177 45.2133 431.911 58.0555 435.695C63.5925 437.332 83.4301 397.72 78.2029 394.47C71.9302 390.559 31.7387 375.044 31.5967 373.14C31.3773 371.032 38.889 343.938 41.3671 322.558C44.426 296.023 34.6427 302.967 27.9313 312.109Z" fill="#F7A9A0"/>
<path d="M58.0169 391.688C58.0169 391.688 74.8989 386.826 86.1019 384.147C92.3358 382.661 103.281 381.036 108.379 382.014C115.994 383.461 146.944 394.304 144.44 401.744C142.156 408.473 116.781 395.827 116.781 395.827C116.781 395.827 143.537 406.365 139.29 413.97C135.044 421.575 108.314 403.547 108.314 403.547C108.314 403.547 135.573 414.973 129.92 422.134C125.648 427.555 100.493 412.561 100.493 412.561C100.493 412.561 123.841 422.54 119.698 428.292C115.116 434.64 91.0064 422.261 91.0064 422.261C77.9707 435.135 66.6515 436.862 58.0943 435.694C56.0551 435.427 58.0169 391.688 58.0169 391.688Z" fill="#F7A9A0"/>
<path d="M109.011 392.147C129.327 398.419 137.329 407.623 137.071 407.382C130.849 402.608 119.918 397.428 116.846 396.032C113.774 394.635 112.019 393.619 108.947 392.223C108.869 392.223 108.934 392.121 109.011 392.147Z" fill="#263238"/>
<path d="M102.416 402.441C110.744 404.611 118.612 408.227 125.648 413.118C125.919 413.322 125.764 413.385 125.467 413.233C121.595 411.354 106.301 404.231 102.364 402.53C102.313 402.504 102.351 402.428 102.416 402.441Z" fill="#263238"/>
<path d="M96.1434 410.887C102.57 412.736 108.589 415.75 113.89 419.774C114.161 419.965 113.89 420.053 113.619 419.901C107.772 416.867 103.216 414.442 96.0659 411.204C95.9498 411.103 96.0014 410.887 96.1434 410.887Z" fill="#263238"/>
<path d="M65.8512 388.337L43.2516 435.745C43.2516 435.745 -10.621 407.191 -14.6866 393.771C-18.7522 380.351 17.877 321.326 29.0026 309.315C40.1282 297.304 43.755 302.205 43.4323 315.942C43.1096 329.68 32.1519 372.492 32.41 373.292C32.6681 374.091 65.8512 388.337 65.8512 388.337Z" fill="#FF725E"/>
<path d="M36.4242 353.041C37.1556 349.833 37.8654 346.621 38.5538 343.405C38.9152 341.729 39.2637 340.053 39.6509 338.326C39.8316 337.552 39.9993 336.79 40.18 336.015C40.2575 335.634 40.3865 335.254 40.4511 334.873C40.5112 334.35 40.6414 333.838 40.8383 333.349C40.8383 333.26 41.019 333.273 41.0061 333.349C40.9157 334.225 41.0964 333.882 40.9286 334.543C40.807 335.045 40.7165 335.553 40.6576 336.066C40.5414 336.841 40.4124 337.628 40.2833 338.402C40.0252 339.994 39.7412 341.581 39.4314 343.163C39.4314 343.366 39.3411 343.582 39.3024 343.785C39.3098 343.726 39.3098 343.667 39.3024 343.608C39.909 341.894 40.5285 340.18 41.1351 338.529C41.1351 338.453 41.2771 338.529 41.2642 338.529C40.8512 340.307 40.3736 342.059 39.7928 343.785C39.4573 344.788 39.0572 345.753 38.6571 346.731C38.2311 348.851 37.8181 350.959 37.3664 353.079C35.9596 359.618 34.514 366.182 32.5909 372.581C35.4046 373.85 38.2827 374.993 41.1093 376.275C43.9359 377.558 46.7367 378.815 49.5503 380.186C52.364 381.557 55.1776 382.801 57.9526 384.16C59.2432 384.807 60.5984 385.429 61.9278 386.14C63.2572 386.851 64.7157 387.753 66.1741 388.438C66.3161 388.502 66.1741 388.718 66.0451 388.654C64.535 387.969 62.9217 387.473 61.3858 386.813C60.0951 386.242 58.7012 385.683 57.3718 385.099C54.5194 383.83 51.7057 382.56 48.8792 381.29C46.0526 380.021 43.2389 378.751 40.4382 377.38C37.6374 376.009 34.9141 374.599 32.1263 373.266C32.0837 373.246 32.0458 373.218 32.0147 373.183C31.9837 373.148 31.9601 373.107 31.9456 373.063C31.8866 373.023 31.8406 372.967 31.8131 372.901C31.7856 372.836 31.7779 372.764 31.7907 372.695C33.2362 366.118 34.927 359.605 36.4242 353.041Z" fill="#263238"/>
<path d="M43.3939 407.076C45.0718 403.648 51.8994 389.948 53.8612 386.686C53.8612 386.686 53.9903 386.686 53.9645 386.686C52.6738 390.164 46.3753 403.876 44.6975 407.317C41.5236 414.275 37.9646 421.056 34.0365 427.631C33.9591 427.745 33.7397 427.631 33.8042 427.53C36.5275 420.508 40.0769 413.818 43.3939 407.076Z" fill="#263238"/>
<path d="M4.48 412.295C5.77067 412.993 6.88064 413.856 8.05515 414.656L11.7077 417.132C14.0955 418.77 16.4832 420.458 19.0258 421.855C19.0492 421.874 19.0649 421.901 19.0701 421.931C19.0752 421.96 19.0696 421.991 19.0541 422.017C19.0386 422.042 19.0144 422.062 18.9856 422.072C18.9567 422.082 18.9253 422.081 18.8968 422.071C16.3154 420.623 13.7341 419.278 11.1528 417.691C8.66797 416.217 6.36771 414.461 4.29929 412.46C4.27704 412.436 4.26523 412.405 4.26644 412.373C4.26765 412.341 4.28179 412.31 4.30575 412.288C4.32971 412.266 4.36154 412.255 4.39422 412.256C4.42689 412.257 4.45775 412.271 4.48 412.295Z" fill="#263238"/>
<path d="M64.1348 316.602C58.1977 318.696 46.672 310.698 41.6771 303.728C41.3416 303.245 41.5093 297.786 41.4061 291.146C41.3286 287.121 41.1351 282.639 40.6704 278.551L67.4002 281.865C66.5097 287.132 66.2756 292.487 66.7032 297.811C66.7702 298.377 66.8957 298.934 67.0775 299.474C67.0775 299.55 67.0775 299.639 67.1421 299.741C68.0326 302.864 69.8912 314.557 64.1348 316.602Z" fill="#F7A9A0"/>
<path d="M66.7032 297.811C66.7613 298.298 66.865 298.778 67.013 299.246C53.9127 298.535 45.846 292.479 41.2899 287.299C41.1867 284.391 40.9931 281.369 40.6704 278.551L67.4002 281.865C66.5102 287.132 66.2762 292.487 66.7032 297.811Z" fill="#263238"/>
<path d="M31.6612 250.444C30.4996 259.928 40.0118 285.054 47.5622 289.714C58.5071 296.468 74.0855 294.564 79.3256 282.096C84.3979 270.073 71.4009 237.532 63.1922 233.533C51.0986 227.705 33.3778 236.44 31.6612 250.444Z" fill="#F7A9A0"/>
<path d="M58.7265 260.969C58.7265 260.969 58.6232 261.108 58.649 261.172C59.346 262.848 59.8364 264.879 58.4941 266.009C58.4941 266.009 58.4941 266.123 58.4941 266.098C60.3527 265.146 59.6558 262.454 58.7265 260.969Z" fill="#263238"/>
<path d="M56.5326 259.799C53.6802 260.586 55.5001 266.147 58.1459 265.398C60.7918 264.649 58.9203 259.088 56.5326 259.799Z" fill="#263238"/>
<path d="M69.2456 257.26C69.2456 257.26 69.4005 257.26 69.4263 257.374C69.9426 259.113 70.8202 261.018 72.5884 261.081C72.5884 261.081 72.6659 261.17 72.5884 261.183C70.5879 261.551 69.4392 259.012 69.2456 257.26Z" fill="#263238"/>
<path d="M70.2135 255.002C72.9497 253.897 75.0019 259.369 72.4593 260.398C69.9166 261.426 67.9161 255.992 70.2135 255.002Z" fill="#263238"/>
<path d="M53.4735 257.936C54.1705 257.492 54.7642 256.984 55.4095 256.476C56.1635 256.06 56.7542 255.407 57.0874 254.622C57.1393 254.357 57.1034 254.081 56.985 253.837C56.8665 253.593 56.6718 253.392 56.4292 253.264C55.9043 253.098 55.3444 253.07 54.8053 253.184C54.2662 253.298 53.767 253.548 53.3574 253.911C52.4155 254.537 51.7403 255.482 51.4601 256.565C51.3842 256.821 51.3921 257.094 51.4826 257.345C51.5732 257.596 51.7417 257.813 51.9645 257.964C52.1872 258.116 52.4528 258.195 52.7236 258.19C52.9944 258.185 53.2568 258.096 53.4735 257.936Z" fill="#263238"/>
<path d="M71.4785 251.51C70.6687 251.6 69.8543 251.647 69.0392 251.649C68.1919 251.822 67.3104 251.71 66.5353 251.332C66.3182 251.163 66.1622 250.93 66.0901 250.667C66.0181 250.404 66.0339 250.125 66.1352 249.872C66.4192 249.405 66.8254 249.023 67.3113 248.764C67.7972 248.505 68.3449 248.379 68.8972 248.399C70.0267 248.258 71.1691 248.539 72.0981 249.186C72.3221 249.333 72.4939 249.544 72.5897 249.792C72.6854 250.039 72.7001 250.31 72.6319 250.566C72.5636 250.822 72.4158 251.05 72.209 251.219C72.0022 251.389 71.7468 251.49 71.4785 251.51Z" fill="#263238"/>
<path d="M62.7922 277.052C63.3158 277.427 63.9518 277.619 64.5992 277.598C65.2458 277.371 65.8386 277.016 66.3416 276.557C66.3416 276.557 66.4577 276.557 66.4448 276.62C66.3052 277.038 66.0544 277.411 65.7185 277.702C65.3826 277.992 64.9738 278.188 64.5346 278.271C64.1458 278.293 63.759 278.201 63.4234 278.007C63.0878 277.812 62.8187 277.524 62.6502 277.179C62.5986 277.09 62.7148 277.014 62.7922 277.052Z" fill="#263238"/>
<path d="M62.9474 271.328C63.6139 271.868 64.3873 272.265 65.2184 272.494C66.0494 272.724 66.9199 272.781 67.7745 272.662C68.5226 272.573 69.2533 272.376 69.9428 272.078C70.0818 272.031 70.2158 271.972 70.3429 271.9L70.7043 271.722C70.7911 271.675 70.8596 271.6 70.8993 271.511C70.9389 271.421 70.9475 271.322 70.9237 271.227C70.9058 271.169 70.8797 271.113 70.8463 271.062V270.909C70.4462 269.576 69.646 267.596 69.646 267.596C70.2268 267.685 73.0921 268.002 72.821 267.316C70.6011 261.705 68.123 255.458 64.6898 250.341C64.6665 250.311 64.6332 250.289 64.5955 250.28C64.5579 250.271 64.5181 250.275 64.4832 250.292C64.4482 250.308 64.4201 250.336 64.4036 250.37C64.3872 250.405 64.3834 250.444 64.3929 250.481C66.316 255.966 69.2071 261.07 71.2335 266.542C70.2103 266.4 69.1719 266.4 68.1488 266.542C67.9681 266.656 69.7492 270.351 69.8783 270.935C69.8753 270.956 69.8753 270.977 69.8783 270.998C67.71 272.001 65.7739 271.874 63.0893 271.074C62.8957 271.062 62.7925 271.227 62.9474 271.328Z" fill="#263238"/>
<path d="M68.9621 271.886C68.4799 273.046 67.702 274.065 66.7034 274.844C66.145 275.249 65.4737 275.475 64.7803 275.492C63.2702 275.492 62.8701 274.222 62.8314 273.079C62.8142 272.461 62.8705 271.843 62.9992 271.238C64.8669 272.07 66.9549 272.297 68.9621 271.886Z" fill="#263238"/>
<path d="M66.7033 274.843C66.145 275.248 65.4736 275.474 64.7802 275.491C63.2701 275.491 62.87 274.221 62.8313 273.079C63.5845 272.9 64.3769 272.977 65.0799 273.297C65.7829 273.618 66.355 274.163 66.7033 274.843Z" fill="#FF9CBD"/>
<path d="M40.6705 270.185C45.0846 268.649 41.4707 257.946 41.4707 257.946C41.4707 257.946 47.9499 254.721 48.6211 244.564C48.6211 244.564 59.0626 247.51 66.0838 244.082C77.0932 238.698 72.421 223.945 67.1809 222.155C59.7724 219.616 50.6216 228.986 50.6216 228.986C50.6216 228.986 32.6813 229.151 30.9776 241.606C28.8711 242.367 27.1363 243.886 26.1231 245.855C25.1099 247.825 24.8937 250.1 25.518 252.22C27.3766 260.409 37.3664 271.341 40.6705 270.185Z" fill="#263238"/>
<path d="M40.2053 259.672C43.3768 258.156 45.9463 255.646 47.5105 252.537C48.3365 250.854 48.7406 249 48.6889 247.131C48.6373 245.262 48.1314 243.433 47.2136 241.796C47.1104 241.618 47.3943 241.466 47.4976 241.644C49.4336 245.186 50.3371 249.122 48.7882 253.007C48.1142 254.803 46.9726 256.393 45.4777 257.618C43.9828 258.844 42.1869 259.661 40.2698 259.99C40.231 259.99 40.1934 259.977 40.1634 259.952C40.1335 259.928 40.1129 259.895 40.1053 259.857C40.0977 259.82 40.1035 259.781 40.1217 259.747C40.14 259.714 40.1695 259.687 40.2053 259.672Z" fill="#263238"/>
<path d="M23.5433 247.664C24.9888 244.159 28.3575 242.725 31.8423 241.861C31.8834 241.861 31.9228 241.877 31.9518 241.906C31.9809 241.935 31.9972 241.973 31.9972 242.014C31.9972 242.054 31.9809 242.093 31.9518 242.121C31.9228 242.15 31.8834 242.166 31.8423 242.166C28.3317 242.75 25.5696 245.975 24.6016 249.187C23.6336 252.399 25.0405 255.637 26.6151 258.392C29.6104 263.751 34.5231 267.823 40.3994 269.819C40.42 269.819 40.4397 269.827 40.4542 269.841C40.4687 269.855 40.4769 269.875 40.4769 269.895C40.4769 269.915 40.4687 269.934 40.4542 269.949C40.4397 269.963 40.42 269.971 40.3994 269.971C37.1172 269.038 34.0626 267.457 31.422 265.324C28.7813 263.191 26.61 260.552 25.0405 257.567C23.5562 254.596 22.201 250.914 23.5433 247.664Z" fill="#263238"/>
<path d="M50.3246 229.633C51.1055 226.906 52.8728 224.554 55.2937 223.019C58.2645 221.238 61.8009 220.605 65.219 221.241C66.5872 221.533 67.8535 222.173 68.8909 223.098C69.9284 224.023 70.7006 225.199 71.1302 226.51C72.0302 229.585 71.8297 232.87 70.5624 235.816C70.5563 235.83 70.5464 235.842 70.5338 235.85C70.5212 235.858 70.5064 235.862 70.4914 235.862C70.4763 235.862 70.4615 235.858 70.4489 235.85C70.4363 235.842 70.4264 235.83 70.4204 235.816C71.3336 233.119 71.3786 230.211 70.5494 227.488C70.1306 226.195 69.3506 225.043 68.2985 224.166C67.2464 223.288 65.9646 222.719 64.5994 222.523C59.2173 221.8 52.351 224.123 50.6215 229.786C50.5312 229.925 50.273 229.824 50.3246 229.633Z" fill="#263238"/>
<path d="M41.1347 270.631C41.1347 270.631 33.4939 263.42 30.0478 266.264C26.6017 269.108 33.5326 280.357 38.3985 281.131C39.0162 281.272 39.6565 281.289 40.281 281.181C40.9055 281.072 41.5013 280.841 42.0328 280.501C42.5643 280.161 43.0205 279.718 43.374 279.2C43.7276 278.683 43.9712 278.1 44.0903 277.487L41.1347 270.631Z" fill="#F7A9A0"/>
<path d="M32.1129 269.434C32.0958 269.434 32.0793 269.441 32.0672 269.453C32.0551 269.465 32.0483 269.481 32.0483 269.498C32.0483 269.514 32.0551 269.531 32.0672 269.542C32.0793 269.554 32.0958 269.561 32.1129 269.561C35.5461 270.209 37.8047 272.773 39.5859 275.554C39.3436 275.271 39.0413 275.043 38.7002 274.887C38.3591 274.731 37.9874 274.65 37.6111 274.65C37.2349 274.65 36.8632 274.731 36.5221 274.887C36.181 275.043 35.8787 275.271 35.6364 275.554C35.5719 275.63 35.6364 275.731 35.7655 275.706C36.2879 275.421 36.8874 275.302 37.4814 275.366C38.0754 275.429 38.6347 275.672 39.0825 276.062C39.8218 276.723 40.488 277.459 41.0701 278.258C41.2766 278.512 41.7671 278.258 41.5864 277.953V277.89C40.8249 273.954 36.5528 268.99 32.1129 269.434Z" fill="#263238"/>
<path d="M67.0644 299.156L61.3725 314.633L41.4962 296.186L36.3335 302.534C36.3335 302.534 56.2615 332.332 56.326 330.948L62.1469 317.642L71.6721 326.403L70.0458 303.549L67.0644 299.156Z" fill="white"/>
<path d="M71.4917 315.078C71.0916 311.269 70.7947 307.46 70.201 303.791C70.201 303.664 69.9687 303.613 69.9299 303.791C69.3104 307.46 70.9109 321.82 71.027 325.273C70.6398 324.892 62.2246 317.579 62.1472 317.655C60.8565 319.788 56.5457 329.475 56.2617 330.352C53.1125 325.616 41.0706 308.438 37.3922 303.981C37.3694 303.961 37.3407 303.949 37.3102 303.946C37.2797 303.943 37.2491 303.95 37.223 303.966C37.1968 303.981 37.1766 304.005 37.1652 304.033C37.1538 304.061 37.1519 304.092 37.1598 304.121C39.9735 309.136 55.9262 332.281 56.1585 332.218C58.4297 327.652 60.4588 322.974 62.2376 318.201C63.6831 319.814 72.2144 328.092 72.2144 327.533C72.1889 323.372 71.9476 319.215 71.4917 315.078Z" fill="#263238"/>
</g>
<g opacity="0.1">
<path d="M1245.5 292.744C1282.23 292.744 1312 263.034 1312 226.384C1312 189.735 1282.23 160.025 1245.5 160.025C1208.77 160.025 1179 189.735 1179 226.384C1179 263.034 1208.77 292.744 1245.5 292.744Z" fill="#FF725E"/>
<path d="M1289.98 214.372L1286.01 218.309L1283.76 220.569C1273.09 210.269 1260.37 204.77 1245.5 204.77C1230.63 204.77 1217.93 210.269 1207.18 220.657C1206.48 219.924 1205.76 219.164 1205.03 218.431C1203.74 217.113 1202.41 215.812 1201.11 214.494C1201.11 214.494 1201.04 214.45 1201 214.424V214.328L1201.29 214.092C1202.96 212.608 1204.59 211.072 1206.31 209.658C1209.88 206.747 1213.78 204.268 1217.93 202.273C1222.79 199.852 1227.97 198.113 1233.31 197.105C1235.86 196.643 1238.44 196.407 1241 196.093C1241.88 195.979 1247.56 195.962 1247.74 195.971C1249.49 196.102 1251.24 196.18 1252.99 196.372C1257.81 196.917 1262.55 198.045 1267.11 199.733C1270.41 200.948 1273.61 202.44 1276.66 204.194C1279.89 206.033 1282.94 208.167 1285.77 210.566C1287.2 211.779 1288.57 213.071 1289.96 214.328L1289.98 214.372Z" fill="white"/>
<path d="M1219.8 233.054L1213.52 226.847C1220.38 219.879 1229.36 215.378 1239.05 214.05C1253.92 212.051 1266.65 216.547 1277.46 226.76L1271.16 233.019C1264.05 226.14 1255.51 222.422 1245.48 222.422C1235.46 222.422 1226.95 226.14 1219.8 233.054Z" fill="white"/>
<path d="M1264.88 239.303C1262.82 241.372 1260.75 243.432 1258.64 245.527C1256.92 243.798 1254.87 242.426 1252.61 241.489C1250.35 240.553 1247.93 240.071 1245.49 240.071C1243.04 240.071 1240.62 240.553 1238.37 241.489C1236.11 242.426 1234.06 243.798 1232.33 245.527L1226.1 239.312C1228.63 236.748 1231.65 234.713 1234.98 233.323C1238.31 231.934 1241.88 231.218 1245.49 231.217C1249.1 231.216 1252.67 231.93 1256 233.318C1259.33 234.707 1262.35 236.741 1264.88 239.303Z" fill="white"/>
<path d="M1251.13 251.191C1251.13 252.304 1250.8 253.393 1250.18 254.319C1249.56 255.245 1248.68 255.966 1247.65 256.393C1246.62 256.819 1245.49 256.93 1244.39 256.713C1243.3 256.496 1242.29 255.96 1241.5 255.172C1240.71 254.385 1240.18 253.381 1239.96 252.289C1239.74 251.197 1239.85 250.065 1240.28 249.036C1240.71 248.007 1241.43 247.128 1242.36 246.509C1243.28 245.891 1244.38 245.561 1245.49 245.561C1246.99 245.561 1248.42 246.154 1249.48 247.21C1250.54 248.266 1251.13 249.698 1251.13 251.191Z" fill="white"/>
</g>
<g opacity="0.1">
<path d="M1279.53 67C1288.11 67 1295.07 60.0604 1295.07 51.5C1295.07 42.9396 1288.11 36 1279.53 36C1270.95 36 1264 42.9396 1264 51.5C1264 60.0604 1270.95 67 1279.53 67Z" fill="#FF725E"/>
<path opacity="0.1" d="M1279.53 67C1288.11 67 1295.07 60.0604 1295.07 51.5C1295.07 42.9396 1288.11 36 1279.53 36C1270.95 36 1264 42.9396 1264 51.5C1264 60.0604 1270.95 67 1279.53 67Z" fill="black"/>
<path d="M1279.71 43.7891C1274.21 43.7891 1269.72 47.0873 1269.72 51.1485C1269.73 52.2885 1270.07 53.4003 1270.71 54.3462L1269.37 57.3384L1272.82 56.4613C1274.85 57.8274 1277.26 58.5385 1279.71 58.4988C1285.22 58.4988 1289.69 55.2051 1289.69 51.1348C1289.69 47.0645 1285.22 43.7891 1279.71 43.7891ZM1275.07 52.1809C1274.87 52.18 1274.67 52.1187 1274.5 52.0047C1274.33 51.8907 1274.2 51.7291 1274.12 51.5404C1274.04 51.3517 1274.02 51.1442 1274.06 50.9443C1274.1 50.7443 1274.2 50.5608 1274.35 50.4169C1274.49 50.2729 1274.68 50.175 1274.88 50.1356C1275.08 50.0961 1275.29 50.1168 1275.48 50.1951C1275.66 50.2734 1275.83 50.4057 1275.94 50.5754C1276.05 50.7451 1276.11 50.9445 1276.11 51.1485C1276.11 51.2845 1276.09 51.4191 1276.03 51.5446C1275.98 51.6702 1275.91 51.7842 1275.81 51.8801C1275.71 51.9761 1275.6 52.052 1275.47 52.1036C1275.35 52.1553 1275.21 52.1815 1275.07 52.1809ZM1279.71 52.1809C1279.5 52.1809 1279.3 52.1204 1279.13 52.0069C1278.96 51.8935 1278.83 51.7322 1278.75 51.5436C1278.67 51.3549 1278.65 51.1473 1278.69 50.9471C1278.73 50.7468 1278.83 50.5628 1278.98 50.4184C1279.12 50.2741 1279.3 50.1757 1279.51 50.1359C1279.71 50.0961 1279.91 50.1165 1280.1 50.1946C1280.29 50.2728 1280.45 50.4051 1280.57 50.5749C1280.68 50.7447 1280.74 50.9443 1280.74 51.1485C1280.74 51.4223 1280.63 51.6849 1280.44 51.8785C1280.24 52.0721 1279.98 52.1809 1279.71 52.1809ZM1284.34 52.1809C1284.13 52.1809 1283.93 52.1204 1283.76 52.0069C1283.59 51.8935 1283.46 51.7322 1283.38 51.5436C1283.3 51.3549 1283.28 51.1473 1283.32 50.9471C1283.36 50.7468 1283.46 50.5628 1283.6 50.4184C1283.75 50.2741 1283.93 50.1757 1284.13 50.1359C1284.33 50.0961 1284.54 50.1165 1284.73 50.1946C1284.92 50.2728 1285.08 50.4051 1285.2 50.5749C1285.31 50.7447 1285.37 50.9443 1285.37 51.1485C1285.37 51.4223 1285.26 51.6849 1285.07 51.8785C1284.87 52.0721 1284.61 52.1809 1284.34 52.1809Z" fill="white"/>
</g>
<g opacity="0.1">
<path d="M1085.43 57.4052C1088.1 45.9429 1080.96 34.4902 1069.47 31.825C1057.98 29.1597 1046.51 36.2911 1043.84 47.7534C1041.17 59.2158 1048.31 70.6684 1059.8 73.3337C1071.29 75.9989 1082.76 68.8675 1085.43 57.4052Z" fill="#FF725E"/>
<path opacity="0.1" d="M1085.43 57.4052C1088.1 45.9429 1080.96 34.4902 1069.47 31.825C1057.98 29.1597 1046.51 36.2911 1043.84 47.7534C1041.17 59.2158 1048.31 70.6684 1059.8 73.3337C1071.29 75.9989 1082.76 68.8675 1085.43 57.4052Z" fill="black"/>
<path d="M1050.99 55.321C1050.99 56.2053 1051.33 57.0566 1051.93 57.7042C1052.53 58.3518 1053.36 58.7477 1054.24 58.8127H1074.14C1075.22 58.8307 1076.26 58.4306 1077.04 57.6974C1077.82 56.9642 1078.29 55.9555 1078.34 54.8852C1078.39 53.815 1078.02 52.7675 1077.31 51.9648C1076.59 51.1622 1075.6 50.6676 1074.53 50.5859C1074.48 48.975 1073.87 47.4316 1072.8 46.2208C1071.74 45.01 1070.28 44.2072 1068.69 43.9501C1067.09 43.6931 1065.46 43.998 1064.06 44.8123C1062.67 45.6267 1061.6 46.8997 1061.05 48.413C1060.44 48.109 1059.76 47.9605 1059.08 47.981C1058.4 48.0015 1057.73 48.1903 1057.14 48.5305C1056.55 48.8706 1056.05 49.3517 1055.69 49.9306C1055.33 50.5095 1055.12 51.1683 1055.08 51.8482C1054.89 51.8153 1054.69 51.7985 1054.5 51.798C1054.04 51.798 1053.58 51.8892 1053.15 52.0665C1052.73 52.2438 1052.34 52.5036 1052.01 52.831C1051.69 53.1584 1051.43 53.5469 1051.25 53.9742C1051.08 54.4016 1050.99 54.8593 1050.99 55.321Z" fill="white"/>
</g>
<g opacity="0.1">
<path d="M1098.43 342.405C1101.1 330.943 1093.96 319.49 1082.47 316.825C1070.98 314.16 1059.51 321.291 1056.84 332.753C1054.17 344.216 1061.31 355.668 1072.8 358.334C1084.29 360.999 1095.76 353.868 1098.43 342.405Z" fill="#FF725E"/>
<path opacity="0.1" d="M1098.43 342.405C1101.1 330.943 1093.96 319.49 1082.47 316.825C1070.98 314.16 1059.51 321.291 1056.84 332.753C1054.17 344.216 1061.31 355.668 1072.8 358.334C1084.29 360.999 1095.76 353.868 1098.43 342.405Z" fill="black"/>
<path d="M1070.71 346.888C1070.97 346.726 1071.27 346.64 1071.58 346.64C1071.89 346.64 1072.19 346.726 1072.45 346.888C1072.59 346.98 1072.74 347.066 1072.9 347.148L1073.36 347.381C1073.64 347.509 1073.88 347.712 1074.05 347.969C1074.22 348.225 1074.31 348.524 1074.33 348.833L1074.4 351L1081.39 350.783L1081.32 348.616C1081.32 348.307 1081.39 348.002 1081.55 347.735C1081.7 347.467 1081.93 347.249 1082.2 347.104C1082.5 346.939 1082.8 346.758 1083.08 346.562C1083.33 346.385 1083.63 346.28 1083.93 346.26C1084.24 346.24 1084.54 346.305 1084.81 346.449L1086.7 347.467L1090 341.269L1088.12 340.25C1087.85 340.103 1087.62 339.883 1087.47 339.615C1087.32 339.347 1087.24 339.042 1087.25 338.733C1087.25 338.386 1087.25 338.034 1087.22 337.687C1087.19 337.382 1087.24 337.074 1087.38 336.797C1087.51 336.521 1087.72 336.287 1087.97 336.121L1089.79 334.984L1086.11 329.023L1084.28 330.161C1084.02 330.322 1083.72 330.407 1083.41 330.407C1083.11 330.407 1082.81 330.322 1082.55 330.161C1082.4 330.069 1082.25 329.982 1082.1 329.901L1081.64 329.619C1081.36 329.493 1081.12 329.29 1080.95 329.033C1080.78 328.776 1080.68 328.477 1080.67 328.167L1080.6 326L1073.61 326.217L1073.68 328.384C1073.69 328.694 1073.61 329 1073.46 329.268C1073.3 329.535 1073.08 329.755 1072.8 329.901C1072.5 330.071 1072.21 330.252 1071.92 330.443C1071.67 330.621 1071.37 330.726 1071.07 330.746C1070.76 330.766 1070.46 330.7 1070.19 330.557L1068.3 329.538L1065 335.737L1066.9 336.772C1067.17 336.918 1067.4 337.138 1067.55 337.406C1067.7 337.674 1067.78 337.98 1067.77 338.289C1067.77 338.641 1067.77 338.993 1067.8 339.34C1067.83 339.648 1067.78 339.959 1067.64 340.237C1067.51 340.514 1067.29 340.748 1067.03 340.911L1065.22 342.049L1068.9 348.009L1070.71 346.888ZM1072.45 335.785C1072.99 334.782 1073.81 333.961 1074.81 333.426C1075.8 332.89 1076.94 332.665 1078.06 332.779C1079.19 332.892 1080.25 333.339 1081.13 334.062C1082 334.786 1082.64 335.754 1082.97 336.844C1083.29 337.934 1083.29 339.098 1082.96 340.187C1082.63 341.277 1081.99 342.243 1081.12 342.965C1080.24 343.687 1079.17 344.131 1078.05 344.242C1076.92 344.353 1075.79 344.125 1074.79 343.588C1073.46 342.864 1072.46 341.637 1072.02 340.174C1071.58 338.711 1071.74 337.133 1072.45 335.785Z" fill="white"/>
</g>
<defs>
<radialGradient id="paint0_radial_212_68" cx="0" cy="0" r="1" gradientUnits="userSpaceOnUse" gradientTransform="translate(683 415) rotate(-164.571) scale(708.535 708.535)">
<stop stop-color="#D7FBF5"/>
<stop offset="0.0894559" stop-color="#D7ECFB"/>
<stop offset="1" stop-color="#FF9565" stop-opacity="0"/>
</radialGradient>
</defs>
</svg>
