<svg width="306" height="250" viewBox="0 0 306 250" fill="none" xmlns="http://www.w3.org/2000/svg">
<path d="M261.691 74.2117C258.59 60.1154 252.137 46.973 242.878 35.8966C237.937 30.0542 231.913 24.5131 224.923 20.9172C203.397 9.84869 166.28 33.2049 148.242 45.2049C130.205 57.2049 116.683 45.5131 94.5405 43.0542C72.3977 40.5953 45.3412 58.424 44.1144 86.698C42.8877 114.972 79.1687 137.095 71.7878 152.451C64.4068 167.808 53.3389 191.171 93.9305 199.773C134.522 208.376 154.815 167.808 180.028 171.499C205.241 175.191 200.656 208.753 245.818 193.013C282.401 180.28 271.045 115.657 261.691 74.2117Z" fill="#FFD5CF"/>
<path d="M149.023 219.555C177.626 219.555 200.813 216.243 200.813 212.158C200.813 208.073 177.626 204.761 149.023 204.761C120.42 204.761 97.2334 208.073 97.2334 212.158C97.2334 216.243 120.42 219.555 149.023 219.555Z" fill="#FFD5CF"/>
<path opacity="0.5" d="M149.023 219.555C177.626 219.555 200.813 216.243 200.813 212.158C200.813 208.073 177.626 204.761 149.023 204.761C120.42 204.761 97.2334 208.073 97.2334 212.158C97.2334 216.243 120.42 219.555 149.023 219.555Z" fill="white"/>
<path d="M262.828 236.939C278.895 236.939 291.92 233.627 291.92 229.542C291.92 225.456 278.895 222.145 262.828 222.145C246.761 222.145 233.736 225.456 233.736 229.542C233.736 233.627 246.761 236.939 262.828 236.939Z" fill="#FFD5CF"/>
<path opacity="0.5" d="M262.828 236.939C278.895 236.939 291.92 233.627 291.92 229.542C291.92 225.456 278.895 222.145 262.828 222.145C246.761 222.145 233.736 225.456 233.736 229.542C233.736 233.627 246.761 236.939 262.828 236.939Z" fill="white"/>
<path d="M15.8786 59.2463C15.7329 58.7197 15.6998 58.1684 15.7814 57.6282C15.8631 57.088 16.0576 56.5711 16.3524 56.111C16.6472 55.651 17.0357 55.2582 17.4925 54.9581C17.9493 54.6581 18.4642 54.4575 19.0037 54.3696C22.2658 53.9244 26.275 58.3011 27.5428 60.9518C27.6525 61.1778 28.9546 64.9586 28.9135 64.9586C28.8724 64.9586 23.1294 65.0887 20.7718 64.0613C18.7364 63.1778 16.4475 61.4997 15.8786 59.2463ZM99.673 49.1983C99.1933 51.4723 96.9317 53.212 94.9374 54.1435C92.9431 55.0751 88.2418 55.2394 87.0836 55.26C86.46 56.0065 85.7952 56.8011 85.0825 57.7052C83.8352 59.3011 82.4508 61.1298 81.0733 63.1846C80.7033 63.7394 80.3332 64.3422 79.9563 64.9244C80.7924 64.075 81.9506 62.9244 82.0739 62.8216C84.3697 60.9929 89.8866 58.8079 92.6279 60.623C93.0755 60.9372 93.4518 61.3421 93.7324 61.8115C94.0129 62.2808 94.1913 62.8039 94.256 63.3468C94.3206 63.8896 94.2701 64.44 94.1077 64.962C93.9452 65.484 93.6745 65.966 93.3132 66.3764C91.8398 68.1709 89.0162 68.6709 86.8232 68.5819C84.6302 68.4929 80.2441 66.4107 79.2847 65.9449C78.476 67.2463 77.681 68.6024 76.9271 70.0545C75.5433 72.6872 74.3966 75.4378 73.5005 78.2737L73.665 78.3559C74.3503 77.4792 75.7895 75.6641 75.9266 75.5271C77.9825 73.4723 83.2527 70.6778 86.2064 72.1846C86.6856 72.4482 87.1038 72.8097 87.4338 73.2456C87.7638 73.6815 87.9981 74.182 88.1217 74.7145C88.2451 75.247 88.255 75.7995 88.1505 76.336C88.0461 76.8726 87.8296 77.3811 87.5154 77.8285C86.2475 79.7737 83.4994 80.5682 81.3475 80.7326C78.8255 80.9107 73.6033 78.9381 73.4114 78.8627C72.5897 81.7155 71.9555 84.619 71.5131 87.5545C71.1704 89.7189 70.9169 91.9312 70.6839 94.1572C71.1362 93.5271 73.0414 91.1435 73.199 90.986C75.255 88.9312 80.5251 86.1367 83.4788 87.6435C83.958 87.9071 84.3762 88.2686 84.7062 88.7045C85.0362 89.1404 85.2706 89.6409 85.3941 90.1734C85.5176 90.7059 85.5274 91.2584 85.4229 91.7949C85.3185 92.3315 85.1021 92.84 84.7878 93.2874C83.5199 95.2326 80.7718 96.0271 78.6199 96.1915C76.1527 96.3627 71.143 94.4997 70.725 94.3422C70.6222 95.349 70.5057 96.3559 70.4097 97.3696C70.0876 100.671 69.7792 103.986 69.3749 107.246C69.2378 108.376 69.0528 109.486 68.8815 110.596C69.5668 109.671 70.9374 108.02 71.0471 107.89C73.103 105.835 78.3732 103.041 81.3269 104.548C81.8061 104.811 82.2243 105.173 82.5543 105.609C82.8843 106.045 83.1187 106.545 83.2422 107.077C83.3657 107.61 83.3755 108.163 83.271 108.699C83.1666 109.236 82.9501 109.744 82.6359 110.191C81.368 112.137 78.6199 112.931 76.4337 113.089C74.2475 113.246 69.9848 111.767 68.7992 111.335C68.4908 113.185 68.1139 115.007 67.7233 116.815C67.5245 117.582 67.3738 118.37 67.1407 119.096C66.9077 119.822 66.7021 120.554 66.4554 121.274C65.9551 122.739 65.5028 124.109 65.0025 125.465C64.7558 126.15 64.5091 126.794 64.2555 127.459C64.8381 126.418 65.7838 124.781 65.8935 124.644C67.6342 122.281 72.3972 118.739 75.488 119.787C76.0013 119.975 76.4692 120.269 76.8614 120.649C77.2536 121.03 77.5612 121.489 77.7642 121.996C77.9672 122.503 78.0611 123.047 78.0396 123.593C78.0182 124.139 77.882 124.674 77.6399 125.164C76.6804 127.281 74.0831 128.486 71.9449 128.972C69.5873 129.507 64.5228 128.479 63.8992 128.349C63.2824 129.972 62.6724 131.548 62.0694 133.013C60.171 137.644 58.4166 141.438 57.1487 144.068C57.0802 144.219 57.0117 144.349 56.9431 144.493H66.1744L62.9877 206.596C62.8764 208.889 61.8833 211.05 60.2155 212.629C58.5478 214.208 56.3344 215.081 54.0374 215.068C51.7613 215.063 49.5735 214.187 47.9232 212.62C46.2728 211.054 45.285 208.915 45.1625 206.644L41.9826 144.52H51.8855C51.8375 144.089 51.7895 143.637 51.7279 143.15C51.3989 140.281 50.8643 136.178 50.0008 131.294C49.761 129.883 49.4731 128.397 49.1716 126.87C48.5274 126.952 43.4149 127.596 41.1054 126.87C39.0014 126.226 36.5068 124.815 35.7119 122.65C35.5062 122.144 35.4096 121.6 35.4283 121.054C35.447 120.508 35.5807 119.972 35.8206 119.48C36.0604 118.989 36.4012 118.554 36.8205 118.204C37.2399 117.853 37.7284 117.594 38.2544 117.445C41.4412 116.63 45.93 120.513 47.4926 123.007C47.5885 123.164 48.5617 125.178 49.0345 126.219C48.8495 125.294 48.6645 124.376 48.452 123.418C48.1573 122.048 47.7667 120.589 47.4651 119.185C47.2595 118.465 47.0608 117.733 46.8552 117C46.6496 116.267 46.3892 115.561 46.1699 114.828C45.8067 113.767 45.3749 112.685 44.95 111.609C43.5794 111.993 39.4674 113.048 37.3703 112.746C35.2733 112.445 32.5183 111.424 31.4012 109.39C31.1216 108.92 30.9442 108.397 30.8803 107.854C30.8164 107.311 30.8676 106.76 31.0305 106.238C31.1934 105.716 31.4643 105.234 31.8257 104.824C32.1871 104.414 32.6309 104.084 33.1282 103.856C36.1573 102.575 41.1739 105.733 43.0996 107.965C43.1613 108.034 43.5177 108.548 43.9357 109.157C43.4903 108.116 43.0448 107.102 42.5651 106.041C41.1944 103.096 39.6799 100.137 38.1859 97.1367C37.8775 96.5203 37.5759 95.897 37.2675 95.2737C36.0956 95.6025 31.6753 96.7874 29.4754 96.4655C27.2756 96.1435 24.6234 95.1435 23.5063 93.1093C23.2257 92.6401 23.0474 92.117 22.9831 91.5743C22.9187 91.0315 22.9697 90.4812 23.1327 89.9595C23.2957 89.4378 23.5671 88.9563 23.929 88.5466C24.291 88.1369 24.7355 87.8082 25.2333 87.5819C28.2556 86.2942 33.279 89.4586 35.2047 91.6915C35.2733 91.7737 35.6982 92.3764 36.171 93.0613C35.3829 91.4312 34.6154 89.8011 33.9026 88.1641C32.6719 85.3523 31.628 82.4624 30.7775 79.5134C30.3664 79.6367 25.2127 81.1298 22.7661 80.7737C20.5937 80.4586 17.914 79.4518 16.797 77.4175C16.5205 76.9507 16.3449 76.4311 16.2816 75.8923C16.2183 75.3535 16.2687 74.8074 16.4295 74.2892C16.5902 73.771 16.8579 73.2923 17.2151 72.8838C17.5723 72.4753 18.0112 72.1461 18.5034 71.9175C21.5326 70.6298 26.5491 73.7942 28.4749 76.0271C28.6119 76.1846 30.1333 78.4107 30.6542 79.2189C30.6513 79.1847 30.6513 79.1503 30.6542 79.1161C29.8907 76.1987 29.3907 73.2188 29.1602 70.212C28.936 67.5287 28.8719 64.8345 28.9683 62.1435C29.0231 59.6504 29.2287 57.349 29.4343 55.3559C29.5508 54.26 29.6742 53.2668 29.8044 52.3422L29.7496 52.3764C29.6947 52.3764 28.5914 48.575 28.5503 48.3216C28.0637 45.4244 28.8381 39.5408 31.7576 38.0477C32.2495 37.8091 32.7863 37.6771 33.3328 37.6601C33.8794 37.6431 34.4233 37.7416 34.9292 37.9491C35.435 38.1566 35.8913 38.4685 36.2683 38.8644C36.6452 39.2602 36.9344 39.7311 37.1168 40.2463C37.9734 42.4038 37.0414 45.1093 35.8969 46.986C34.7524 48.8627 30.9215 51.5887 29.9689 52.2394C29.8524 53.2052 29.7427 54.2394 29.6468 55.3901C29.4891 57.4038 29.3315 59.6778 29.3247 62.1641C29.3247 62.849 29.3247 63.5339 29.3589 64.2189C29.5851 63.0545 29.914 61.4792 29.962 61.3011C30.8666 58.5066 34.259 53.6435 37.5554 53.6435C38.1017 53.6606 38.6383 53.7922 39.1305 54.0299C39.6226 54.2675 40.0593 54.6059 40.4121 55.0232C40.7649 55.4404 41.0261 55.9271 41.1785 56.4516C41.331 56.9762 41.3715 57.527 41.2972 58.0682C41.0574 60.3764 38.9809 62.349 37.1031 63.486C35.2253 64.623 30.4143 65.3011 29.3795 65.4244C29.4206 66.9586 29.5097 68.5271 29.6879 70.1641C29.9865 73.1349 30.5484 76.0734 31.3669 78.9449H31.552C31.6273 77.8422 31.8398 75.5203 31.8741 75.3353C32.4703 72.4586 35.3007 67.2531 38.5834 66.897C39.1284 66.8536 39.6764 66.9252 40.1919 67.1072C40.7074 67.2892 41.1789 67.5775 41.5757 67.9534C41.9725 68.3293 42.2858 68.7844 42.4952 69.2892C42.7046 69.7939 42.8055 70.337 42.7912 70.8833C42.7912 73.2052 40.9546 75.3901 39.2139 76.7257C37.1785 78.212 31.737 79.4518 31.5245 79.4929C32.4137 82.3248 33.4874 85.0956 34.7387 87.7874C35.6365 89.7805 36.6645 91.7805 37.6924 93.7531C37.6924 92.9723 37.994 89.9381 38.042 89.7189C38.6382 86.8422 41.4686 81.6367 44.7444 81.2805C45.2891 81.2361 45.837 81.3068 46.3525 81.488C46.868 81.6692 47.3395 81.9568 47.7365 82.3322C48.1334 82.7076 48.4468 83.1623 48.6563 83.6667C48.8657 84.1712 48.9666 84.714 48.9523 85.26C48.9523 87.5819 47.1225 89.7668 45.3818 91.1024C43.4217 92.6093 38.2133 93.8422 37.7747 93.9175C38.2476 94.8148 38.7067 95.7189 39.1865 96.6161C40.7421 99.5476 42.3115 102.479 43.7713 105.424C44.2784 106.445 44.7444 107.479 45.2104 108.493C45.2927 107.328 45.4914 105.219 45.5257 105.034C46.1219 102.164 48.9523 96.9518 52.2281 96.5956C52.7731 96.5522 53.3212 96.6238 53.8367 96.8058C54.3522 96.9878 54.8237 97.2761 55.2205 97.652C55.6173 98.028 55.9305 98.483 56.1399 98.9878C56.3494 99.4925 56.4502 100.036 56.436 100.582C56.436 102.904 54.6062 105.089 52.8655 106.424C51.1248 107.76 46.7593 108.876 45.5257 109.164C46.2932 110.87 47.0128 112.589 47.6433 114.301C47.8969 115.048 48.2053 115.794 48.4109 116.527L49.0962 118.698C49.4937 120.198 49.8706 121.589 50.1996 123C50.3778 123.685 50.5217 124.37 50.6793 125.055C50.5902 123.87 50.4806 121.979 50.4874 121.808C50.6382 118.876 52.653 113.294 55.8329 112.452C56.3674 112.319 56.924 112.301 57.4659 112.399C58.0078 112.497 58.5227 112.709 58.9763 113.021C59.43 113.334 59.812 113.739 60.0971 114.21C60.3823 114.681 60.564 115.207 60.6302 115.753C60.676 116.036 60.6943 116.323 60.685 116.609C61.9854 118.847 62.693 121.379 62.741 123.965C62.741 124.15 62.4326 126.37 62.2544 127.493C62.6108 126.623 62.9397 125.753 63.3098 124.842C63.8238 123.527 64.3309 122.102 64.8244 120.733C65.0505 120.048 65.2835 119.294 65.5097 118.568C65.7358 117.842 65.914 117.109 66.1196 116.376C66.4075 115.287 66.6473 114.15 66.8872 113.013C65.5165 112.575 61.5211 111.198 59.938 109.787C58.3549 108.376 56.621 106.007 56.8061 103.691C56.8332 103.146 56.9747 102.612 57.2216 102.125C57.4685 101.637 57.8151 101.207 58.239 100.862C58.6629 100.517 59.1547 100.265 59.6823 100.123C60.2099 99.98 60.7617 99.9498 61.3018 100.034C64.5365 100.63 66.9763 106.034 67.36 108.938C67.36 109.027 67.36 109.623 67.36 110.397C67.5656 109.281 67.7712 108.171 67.9357 107.034C68.4086 103.815 68.7855 100.513 69.183 97.2189C69.2584 96.534 69.3543 95.849 69.4366 95.1641C68.2852 94.7942 63.954 93.3422 62.2818 91.8627C60.6096 90.3833 58.9649 88.0819 59.1567 85.7737C59.182 85.2278 59.322 84.6933 59.5677 84.205C59.8134 83.7168 60.1593 83.2858 60.5828 82.9401C61.0063 82.5944 61.4979 82.3417 62.0256 82.1986C62.5533 82.0554 63.1053 82.025 63.6456 82.1093C66.8872 82.7052 69.3269 88.1161 69.7038 91.0134C69.7038 91.1161 69.7038 91.8627 69.745 92.6983C69.9848 90.9038 70.2521 89.123 70.5605 87.3627C71.0853 84.3502 71.8088 81.3757 72.7261 78.4586C72.3218 78.3285 67.1956 76.7326 65.3521 75.0887C63.7141 73.623 62.0351 71.3079 62.2201 68.9929C62.2472 68.4472 62.3888 67.9134 62.6356 67.426C62.8825 66.9385 63.2291 66.5084 63.6531 66.1635C64.077 65.8187 64.5687 65.5667 65.0964 65.424C65.624 65.2813 66.1758 65.2511 66.7158 65.3353C69.9506 65.9312 72.3903 71.3353 72.7741 74.2394C72.7741 74.4449 72.8426 77.1367 72.8221 78.1024V77.9997C73.7984 75.158 75.023 72.4077 76.4817 69.7805C77.7796 67.4159 79.2143 65.1289 80.7787 62.9312C82.2041 60.8764 83.6364 59.0956 84.8906 57.5271C85.5759 56.6778 86.2612 55.9175 86.8643 55.212H86.7889C86.7341 55.212 87.9334 51.397 88.0362 51.1641C89.2287 48.486 93.1145 43.9997 96.3903 44.3559C96.9405 44.4236 97.4698 44.6082 97.9427 44.8973C98.4156 45.1864 98.8211 45.5733 99.132 46.032C99.443 46.4907 99.6521 47.0105 99.7454 47.5566C99.8387 48.1028 99.814 48.6625 99.673 49.1983ZM61.9323 128.116C61.3772 127.842 57.0597 125.705 55.3738 123.883C53.9193 124.687 52.4181 125.403 50.878 126.027C51.2618 127.719 51.6182 129.376 51.9197 130.931C52.8997 135.842 53.5234 139.965 53.9209 142.863C54.01 143.479 54.0785 144.034 54.147 144.534H54.3663L55.0517 143.13C56.3606 140.554 58.1767 136.842 60.1573 132.294C60.7604 130.959 61.3498 129.554 61.9323 128.116ZM79.175 65.3285C79.2298 65.3627 80.2235 61.4929 80.2647 61.2189C80.669 58.3079 79.737 52.4518 76.7764 51.0203C76.274 50.7974 75.7301 50.6833 75.1805 50.6857C74.6309 50.688 74.088 50.8066 73.5876 51.0337C73.0871 51.2608 72.6405 51.5913 72.277 52.0033C71.9136 52.4154 71.6415 52.8997 71.4788 53.4244C70.6839 55.6024 71.6913 58.2805 72.8495 60.123C74.2818 62.2531 79.175 65.3285 79.175 65.3285Z" fill="#FF7800"/>
<path opacity="0.3" d="M15.8786 59.2463C15.7329 58.7197 15.6998 58.1684 15.7814 57.6282C15.8631 57.088 16.0576 56.5711 16.3524 56.111C16.6472 55.651 17.0357 55.2582 17.4925 54.9581C17.9493 54.6581 18.4642 54.4575 19.0037 54.3696C22.2658 53.9244 26.275 58.3011 27.5428 60.9518C27.6525 61.1778 28.9546 64.9586 28.9135 64.9586C28.8724 64.9586 23.1294 65.0887 20.7718 64.0613C18.7364 63.1778 16.4475 61.4997 15.8786 59.2463ZM99.673 49.1983C99.1933 51.4723 96.9317 53.212 94.9374 54.1435C92.9431 55.0751 88.2418 55.2394 87.0836 55.26C86.46 56.0065 85.7952 56.8011 85.0825 57.7052C83.8352 59.3011 82.4508 61.1298 81.0733 63.1846C80.7033 63.7394 80.3332 64.3422 79.9563 64.9244C80.7924 64.075 81.9506 62.9244 82.0739 62.8216C84.3697 60.9929 89.8866 58.8079 92.6279 60.623C93.0755 60.9372 93.4518 61.3421 93.7324 61.8115C94.0129 62.2808 94.1913 62.8039 94.256 63.3468C94.3206 63.8896 94.2701 64.44 94.1077 64.962C93.9452 65.484 93.6745 65.966 93.3132 66.3764C91.8398 68.1709 89.0162 68.6709 86.8232 68.5819C84.6302 68.4929 80.2441 66.4107 79.2847 65.9449C78.476 67.2463 77.681 68.6024 76.9271 70.0545C75.5433 72.6872 74.3966 75.4378 73.5005 78.2737L73.665 78.3559C74.3503 77.4792 75.7895 75.6641 75.9266 75.5271C77.9825 73.4723 83.2527 70.6778 86.2064 72.1846C86.6856 72.4482 87.1038 72.8097 87.4338 73.2456C87.7638 73.6815 87.9981 74.182 88.1217 74.7145C88.2451 75.247 88.255 75.7995 88.1505 76.336C88.0461 76.8726 87.8296 77.3811 87.5154 77.8285C86.2475 79.7737 83.4994 80.5682 81.3475 80.7326C78.8255 80.9107 73.6033 78.9381 73.4114 78.8627C72.5897 81.7155 71.9555 84.619 71.5131 87.5545C71.1704 89.7189 70.9169 91.9312 70.6839 94.1572C71.1362 93.5271 73.0414 91.1435 73.199 90.986C75.255 88.9312 80.5251 86.1367 83.4788 87.6435C83.958 87.9071 84.3762 88.2686 84.7062 88.7045C85.0362 89.1404 85.2706 89.6409 85.3941 90.1734C85.5176 90.7059 85.5274 91.2584 85.4229 91.7949C85.3185 92.3315 85.1021 92.84 84.7878 93.2874C83.5199 95.2326 80.7718 96.0271 78.6199 96.1915C76.1527 96.3627 71.143 94.4997 70.725 94.3422C70.6222 95.349 70.5057 96.3559 70.4097 97.3696C70.0876 100.671 69.7792 103.986 69.3749 107.246C69.2378 108.376 69.0528 109.486 68.8815 110.596C69.5668 109.671 70.9374 108.02 71.0471 107.89C73.103 105.835 78.3732 103.041 81.3269 104.548C81.8061 104.811 82.2243 105.173 82.5543 105.609C82.8843 106.045 83.1187 106.545 83.2422 107.077C83.3657 107.61 83.3755 108.163 83.271 108.699C83.1666 109.236 82.9501 109.744 82.6359 110.191C81.368 112.137 78.6199 112.931 76.4337 113.089C74.2475 113.246 69.9848 111.767 68.7992 111.335C68.4908 113.185 68.1139 115.007 67.7233 116.815C67.5245 117.582 67.3738 118.37 67.1407 119.096C66.9077 119.822 66.7021 120.554 66.4554 121.274C65.9551 122.739 65.5028 124.109 65.0025 125.465C64.7558 126.15 64.5091 126.794 64.2555 127.459C64.8381 126.418 65.7838 124.781 65.8935 124.644C67.6342 122.281 72.3972 118.739 75.488 119.787C76.0013 119.975 76.4692 120.269 76.8614 120.649C77.2536 121.03 77.5612 121.489 77.7642 121.996C77.9672 122.503 78.0611 123.047 78.0396 123.593C78.0182 124.139 77.882 124.674 77.6399 125.164C76.6804 127.281 74.0831 128.486 71.9449 128.972C69.5873 129.507 64.5228 128.479 63.8992 128.349C63.2824 129.972 62.6724 131.548 62.0694 133.013C60.171 137.644 58.4166 141.438 57.1487 144.068C57.0802 144.219 57.0117 144.349 56.9431 144.493H66.1744L62.9877 206.596C62.8764 208.889 61.8833 211.05 60.2155 212.629C58.5478 214.208 56.3344 215.081 54.0374 215.068C51.7613 215.063 49.5735 214.187 47.9232 212.62C46.2728 211.054 45.285 208.915 45.1625 206.644L41.9826 144.52H51.8855C51.8375 144.089 51.7895 143.637 51.7279 143.15C51.3989 140.281 50.8643 136.178 50.0008 131.294C49.761 129.883 49.4731 128.397 49.1716 126.87C48.5274 126.952 43.4149 127.596 41.1054 126.87C39.0014 126.226 36.5068 124.815 35.7119 122.65C35.5062 122.144 35.4096 121.6 35.4283 121.054C35.447 120.508 35.5807 119.972 35.8206 119.48C36.0604 118.989 36.4012 118.554 36.8205 118.204C37.2399 117.853 37.7284 117.594 38.2544 117.445C41.4412 116.63 45.93 120.513 47.4926 123.007C47.5885 123.164 48.5617 125.178 49.0345 126.219C48.8495 125.294 48.6645 124.376 48.452 123.418C48.1573 122.048 47.7667 120.589 47.4651 119.185C47.2595 118.465 47.0608 117.733 46.8552 117C46.6496 116.267 46.3892 115.561 46.1699 114.828C45.8067 113.767 45.3749 112.685 44.95 111.609C43.5794 111.993 39.4674 113.048 37.3703 112.746C35.2733 112.445 32.5183 111.424 31.4012 109.39C31.1216 108.92 30.9442 108.397 30.8803 107.854C30.8164 107.311 30.8676 106.76 31.0305 106.238C31.1934 105.716 31.4643 105.234 31.8257 104.824C32.1871 104.414 32.6309 104.084 33.1282 103.856C36.1573 102.575 41.1739 105.733 43.0996 107.965C43.1613 108.034 43.5177 108.548 43.9357 109.157C43.4903 108.116 43.0448 107.102 42.5651 106.041C41.1944 103.096 39.6799 100.137 38.1859 97.1367C37.8775 96.5203 37.5759 95.897 37.2675 95.2737C36.0956 95.6025 31.6753 96.7874 29.4754 96.4655C27.2756 96.1435 24.6234 95.1435 23.5063 93.1093C23.2257 92.6401 23.0474 92.117 22.9831 91.5743C22.9187 91.0315 22.9697 90.4812 23.1327 89.9595C23.2957 89.4378 23.5671 88.9563 23.929 88.5466C24.291 88.1369 24.7355 87.8082 25.2333 87.5819C28.2556 86.2942 33.279 89.4586 35.2047 91.6915C35.2733 91.7737 35.6982 92.3764 36.171 93.0613C35.3829 91.4312 34.6154 89.8011 33.9026 88.1641C32.6719 85.3523 31.628 82.4624 30.7775 79.5134C30.3664 79.6367 25.2127 81.1298 22.7661 80.7737C20.5937 80.4586 17.914 79.4518 16.797 77.4175C16.5205 76.9507 16.3449 76.4311 16.2816 75.8923C16.2183 75.3535 16.2687 74.8074 16.4295 74.2892C16.5902 73.771 16.8579 73.2923 17.2151 72.8838C17.5723 72.4753 18.0112 72.1461 18.5034 71.9175C21.5326 70.6298 26.5491 73.7942 28.4749 76.0271C28.6119 76.1846 30.1333 78.4107 30.6542 79.2189C30.6513 79.1847 30.6513 79.1503 30.6542 79.1161C29.8907 76.1987 29.3907 73.2188 29.1602 70.212C28.936 67.5287 28.8719 64.8345 28.9683 62.1435C29.0231 59.6504 29.2287 57.349 29.4343 55.3559C29.5508 54.26 29.6742 53.2668 29.8044 52.3422L29.7496 52.3764C29.6947 52.3764 28.5914 48.575 28.5503 48.3216C28.0637 45.4244 28.8381 39.5408 31.7576 38.0477C32.2495 37.8091 32.7863 37.6771 33.3328 37.6601C33.8794 37.6431 34.4233 37.7416 34.9292 37.9491C35.435 38.1566 35.8913 38.4685 36.2683 38.8644C36.6452 39.2602 36.9344 39.7311 37.1168 40.2463C37.9734 42.4038 37.0414 45.1093 35.8969 46.986C34.7524 48.8627 30.9215 51.5887 29.9689 52.2394C29.8524 53.2052 29.7427 54.2394 29.6468 55.3901C29.4891 57.4038 29.3315 59.6778 29.3247 62.1641C29.3247 62.849 29.3247 63.5339 29.3589 64.2189C29.5851 63.0545 29.914 61.4792 29.962 61.3011C30.8666 58.5066 34.259 53.6435 37.5554 53.6435C38.1017 53.6606 38.6383 53.7922 39.1305 54.0299C39.6226 54.2675 40.0593 54.6059 40.4121 55.0232C40.7649 55.4404 41.0261 55.9271 41.1785 56.4516C41.331 56.9762 41.3715 57.527 41.2972 58.0682C41.0574 60.3764 38.9809 62.349 37.1031 63.486C35.2253 64.623 30.4143 65.3011 29.3795 65.4244C29.4206 66.9586 29.5097 68.5271 29.6879 70.1641C29.9865 73.1349 30.5484 76.0734 31.3669 78.9449H31.552C31.6273 77.8422 31.8398 75.5203 31.8741 75.3353C32.4703 72.4586 35.3007 67.2531 38.5834 66.897C39.1284 66.8536 39.6764 66.9252 40.1919 67.1072C40.7074 67.2892 41.1789 67.5775 41.5757 67.9534C41.9725 68.3293 42.2858 68.7844 42.4952 69.2892C42.7046 69.7939 42.8055 70.337 42.7912 70.8833C42.7912 73.2052 40.9546 75.3901 39.2139 76.7257C37.1785 78.212 31.737 79.4518 31.5245 79.4929C32.4137 82.3248 33.4874 85.0956 34.7387 87.7874C35.6365 89.7805 36.6645 91.7805 37.6924 93.7531C37.6924 92.9723 37.994 89.9381 38.042 89.7189C38.6382 86.8422 41.4686 81.6367 44.7444 81.2805C45.2891 81.2361 45.837 81.3068 46.3525 81.488C46.868 81.6692 47.3395 81.9568 47.7365 82.3322C48.1334 82.7076 48.4468 83.1623 48.6563 83.6667C48.8657 84.1712 48.9666 84.714 48.9523 85.26C48.9523 87.5819 47.1225 89.7668 45.3818 91.1024C43.4217 92.6093 38.2133 93.8422 37.7747 93.9175C38.2476 94.8148 38.7067 95.7189 39.1865 96.6161C40.7421 99.5476 42.3115 102.479 43.7713 105.424C44.2784 106.445 44.7444 107.479 45.2104 108.493C45.2927 107.328 45.4914 105.219 45.5257 105.034C46.1219 102.164 48.9523 96.9518 52.2281 96.5956C52.7731 96.5522 53.3212 96.6238 53.8367 96.8058C54.3522 96.9878 54.8237 97.2761 55.2205 97.652C55.6173 98.028 55.9305 98.483 56.1399 98.9878C56.3494 99.4925 56.4502 100.036 56.436 100.582C56.436 102.904 54.6062 105.089 52.8655 106.424C51.1248 107.76 46.7593 108.876 45.5257 109.164C46.2932 110.87 47.0128 112.589 47.6433 114.301C47.8969 115.048 48.2053 115.794 48.4109 116.527L49.0962 118.698C49.4937 120.198 49.8706 121.589 50.1996 123C50.3778 123.685 50.5217 124.37 50.6793 125.055C50.5902 123.87 50.4806 121.979 50.4874 121.808C50.6382 118.876 52.653 113.294 55.8329 112.452C56.3674 112.319 56.924 112.301 57.4659 112.399C58.0078 112.497 58.5227 112.709 58.9763 113.021C59.43 113.334 59.812 113.739 60.0971 114.21C60.3823 114.681 60.564 115.207 60.6302 115.753C60.676 116.036 60.6943 116.323 60.685 116.609C61.9854 118.847 62.693 121.379 62.741 123.965C62.741 124.15 62.4326 126.37 62.2544 127.493C62.6108 126.623 62.9397 125.753 63.3098 124.842C63.8238 123.527 64.3309 122.102 64.8244 120.733C65.0505 120.048 65.2835 119.294 65.5097 118.568C65.7358 117.842 65.914 117.109 66.1196 116.376C66.4075 115.287 66.6473 114.15 66.8872 113.013C65.5165 112.575 61.5211 111.198 59.938 109.787C58.3549 108.376 56.621 106.007 56.8061 103.691C56.8332 103.146 56.9747 102.612 57.2216 102.125C57.4685 101.637 57.8151 101.207 58.239 100.862C58.6629 100.517 59.1547 100.265 59.6823 100.123C60.2099 99.98 60.7617 99.9498 61.3018 100.034C64.5365 100.63 66.9763 106.034 67.36 108.938C67.36 109.027 67.36 109.623 67.36 110.397C67.5656 109.281 67.7712 108.171 67.9357 107.034C68.4086 103.815 68.7855 100.513 69.183 97.2189C69.2584 96.534 69.3543 95.849 69.4366 95.1641C68.2852 94.7942 63.954 93.3422 62.2818 91.8627C60.6096 90.3833 58.9649 88.0819 59.1567 85.7737C59.182 85.2278 59.322 84.6933 59.5677 84.205C59.8134 83.7168 60.1593 83.2858 60.5828 82.9401C61.0063 82.5944 61.4979 82.3417 62.0256 82.1986C62.5533 82.0554 63.1053 82.025 63.6456 82.1093C66.8872 82.7052 69.3269 88.1161 69.7038 91.0134C69.7038 91.1161 69.7038 91.8627 69.745 92.6983C69.9848 90.9038 70.2521 89.123 70.5605 87.3627C71.0853 84.3502 71.8088 81.3757 72.7261 78.4586C72.3218 78.3285 67.1956 76.7326 65.3521 75.0887C63.7141 73.623 62.0351 71.3079 62.2201 68.9929C62.2472 68.4472 62.3888 67.9134 62.6356 67.426C62.8825 66.9385 63.2291 66.5084 63.6531 66.1635C64.077 65.8187 64.5687 65.5667 65.0964 65.424C65.624 65.2813 66.1758 65.2511 66.7158 65.3353C69.9506 65.9312 72.3903 71.3353 72.7741 74.2394C72.7741 74.4449 72.8426 77.1367 72.8221 78.1024V77.9997C73.7984 75.158 75.023 72.4077 76.4817 69.7805C77.7796 67.4159 79.2143 65.1289 80.7787 62.9312C82.2041 60.8764 83.6364 59.0956 84.8906 57.5271C85.5759 56.6778 86.2612 55.9175 86.8643 55.212H86.7889C86.7341 55.212 87.9334 51.397 88.0362 51.1641C89.2287 48.486 93.1145 43.9997 96.3903 44.3559C96.9405 44.4236 97.4698 44.6082 97.9427 44.8973C98.4156 45.1864 98.8211 45.5733 99.132 46.032C99.443 46.4907 99.6521 47.0105 99.7454 47.5566C99.8387 48.1028 99.814 48.6625 99.673 49.1983ZM61.9323 128.116C61.3772 127.842 57.0597 125.705 55.3738 123.883C53.9193 124.687 52.4181 125.403 50.878 126.027C51.2618 127.719 51.6182 129.376 51.9197 130.931C52.8997 135.842 53.5234 139.965 53.9209 142.863C54.01 143.479 54.0785 144.034 54.147 144.534H54.3663L55.0517 143.13C56.3606 140.554 58.1767 136.842 60.1573 132.294C60.7604 130.959 61.3498 129.554 61.9323 128.116ZM79.175 65.3285C79.2298 65.3627 80.2235 61.4929 80.2647 61.2189C80.669 58.3079 79.737 52.4518 76.7764 51.0203C76.274 50.7974 75.7301 50.6833 75.1805 50.6857C74.6309 50.688 74.088 50.8066 73.5876 51.0337C73.0871 51.2608 72.6405 51.5913 72.277 52.0033C71.9136 52.4154 71.6415 52.8997 71.4788 53.4244C70.6839 55.6024 71.6913 58.2805 72.8495 60.123C74.2818 62.2531 79.175 65.3285 79.175 65.3285Z" fill="white"/>
<path d="M254.31 217.987C251.828 219.798 249.211 221.417 246.483 222.83C243.255 224.316 242.632 224.316 242.755 225.186C242.878 226.056 246.607 227.419 253.439 225.809C260.272 224.2 263.5 224.563 264.494 221.337C265.487 218.111 263.877 218.98 261.889 218.98C259.347 218.783 256.817 218.451 254.31 217.987Z" fill="#263238" stroke="#263238" stroke-linecap="round" stroke-linejoin="round"/>
<path d="M264.123 222.192C261.211 222.96 255.961 224.247 251.575 224.932C248.695 225.453 245.735 225.322 242.913 224.549C242.836 224.632 242.782 224.734 242.754 224.844C242.727 224.954 242.727 225.069 242.755 225.179C242.878 226.049 246.607 227.412 253.439 225.802C259.593 224.357 262.814 224.501 264.123 222.192Z" fill="white" stroke="#263238" stroke-linecap="round" stroke-linejoin="round"/>
<path d="M287.835 158.706C287.835 158.706 288.089 163.056 285.094 169.015C282.099 174.974 273.313 175.467 270.956 175.467C268.598 175.467 269.338 172.987 269.338 172.987L269.708 170.748L265.734 169.754C265.734 169.754 255.18 183.789 255.18 184.905C255.18 186.021 266.09 211.652 266.714 214.631C267.337 217.611 267.707 218.357 266.337 219.474C265.321 220.189 264.155 220.662 262.927 220.856C261.7 221.05 260.444 220.959 259.257 220.59C257.412 220.013 255.625 219.266 253.919 218.357C253.849 217.242 253.849 216.123 253.919 215.008C254.042 213.891 255.906 214.761 255.036 212.898C254.165 211.035 253.665 210.535 253.172 209.295C252.678 208.056 240.925 188.48 241.425 183.884C241.925 179.289 252.945 163.337 252.945 162.967C253.41 161.804 253.948 160.671 254.556 159.576C254.556 159.576 255.049 157.96 256.297 157.713C257.544 157.467 276.541 157.713 281.386 157.097C286.232 156.48 288.589 156.72 287.835 158.706Z" fill="#FF7800" stroke="#263238" stroke-linecap="round" stroke-linejoin="round"/>
<path d="M256.866 193.953L257.572 195.453" stroke="#263238" stroke-width="0.75" stroke-linecap="round" stroke-linejoin="round"/>
<path d="M259.086 176.919L253.727 183.919C253.727 183.919 246.874 184.748 248.93 184.885C250.986 185.022 253.042 185.022 253.042 185.022C253.042 185.022 251.253 185.57 251.671 185.844C252.152 186.035 252.667 186.129 253.186 186.118L256.112 192.337" stroke="#263238" stroke-width="0.75" stroke-linecap="round" stroke-linejoin="round"/>
<path d="M248.614 106.439C248.614 106.439 246.88 107.398 244.269 108.884C241.658 110.371 240.157 111.117 239.801 112.364C239.444 113.61 231.844 129.158 231.844 129.158C231.844 129.158 234.825 130.898 237.56 132.138C239.638 132.991 241.802 133.616 244.016 134.001L246.503 128.788C246.503 128.788 251.301 137.843 253.357 141.076C257.016 146.85 255.837 150.391 255.344 152.377C254.851 154.364 253.48 158.09 253.85 158.583C254.22 159.076 263.91 163.425 270.126 163.056C276.342 162.686 286.992 162.11 287.739 161.24C288.486 160.371 288.609 155.357 288.609 154.98C288.609 154.603 287.513 144.925 286.396 139.09C285.279 133.254 279.193 117.61 277.206 113.391C275.218 109.172 273.354 107.802 268.297 106.069C263.239 104.336 255.748 103.96 252.644 104.33C249.539 104.699 248.614 106.439 248.614 106.439Z" fill="#263238" stroke="#263238" stroke-linecap="round" stroke-linejoin="round"/>
<path d="M269.523 123.089L277.22 125.561L270.764 126.246" stroke="white" stroke-width="0.75" stroke-linecap="round" stroke-linejoin="round"/>
<path d="M256.886 142.727C256.886 142.727 264.301 148.768 273.375 148.768" stroke="white" stroke-width="0.75" stroke-linecap="round" stroke-linejoin="round"/>
<path d="M259.36 148.22C259.36 148.22 265.528 151.103 271.861 150.144" stroke="white" stroke-width="0.75" stroke-linecap="round" stroke-linejoin="round"/>
<path d="M243.42 121.171L246.504 128.788L239.986 119.384" stroke="white" stroke-width="0.75" stroke-linecap="round" stroke-linejoin="round"/>
<path d="M248.087 107.309C247.919 108.709 247.878 110.121 247.963 111.528C248.087 114.138 248.957 116.001 248.21 117.864C247.463 119.727 248.34 120.603 249.08 119.727C249.82 118.85 251.068 115.501 251.321 114.884C251.575 114.268 256.804 113.144 257.53 113.144C258.257 113.144 260.635 116.87 261.752 117.364C262.869 117.857 262.622 116.87 261.875 114.884C261.128 112.898 260.265 105.98 258.524 103.829C256.783 101.679 249.855 102.22 248.087 107.309Z" fill="white" stroke="#263238" stroke-linecap="round" stroke-linejoin="round"/>
<path d="M249.361 109.541C248.676 109.302 252.959 115.877 254.7 119.226C256.441 122.576 258.051 121.713 258.305 119.103C258.558 116.494 257.434 107.802 257.434 107.802C257.434 107.802 252.959 110.788 249.361 109.541Z" fill="white" stroke="#263238" stroke-linecap="round" stroke-linejoin="round"/>
<path d="M258.257 115.979C256.655 116.667 254.88 116.848 253.172 116.5C253.754 117.5 254.296 118.452 254.7 119.24C256.441 122.589 258.051 121.726 258.305 119.116C258.358 118.071 258.342 117.023 258.257 115.979Z" fill="#FF7800" stroke="#263238" stroke-linecap="round" stroke-linejoin="round"/>
<path d="M261.903 162.227V177.576" stroke="#263238" stroke-width="4" stroke-linecap="round" stroke-linejoin="round"/>
<path d="M275.075 165.685C275.004 165.692 274.933 165.692 274.862 165.685L251.76 162.946C251.302 162.873 250.89 162.626 250.61 162.257C250.33 161.888 250.204 161.424 250.258 160.964C250.312 160.504 250.542 160.083 250.9 159.788C251.258 159.494 251.716 159.349 252.178 159.384L275.28 162.124C275.746 162.161 276.179 162.38 276.486 162.732C276.792 163.084 276.949 163.542 276.922 164.008C276.895 164.475 276.687 164.912 276.342 165.227C275.997 165.541 275.542 165.708 275.075 165.692V165.685Z" fill="white" stroke="#263238" stroke-linecap="round" stroke-linejoin="round"/>
<path d="M275.178 165.116C275.795 165.116 276.295 164.528 276.295 163.801C276.295 163.075 275.795 162.486 275.178 162.486C274.561 162.486 274.061 163.075 274.061 163.801C274.061 164.528 274.561 165.116 275.178 165.116Z" fill="white" stroke="#263238" stroke-width="0.75" stroke-linecap="round" stroke-linejoin="round"/>
<path d="M254.2 229.87L268.05 236.685C268.13 236.721 268.216 236.739 268.304 236.739C268.391 236.739 268.478 236.721 268.557 236.685L276.87 233.61C276.989 233.566 277.092 233.488 277.166 233.386C277.24 233.283 277.282 233.161 277.286 233.035C277.291 232.908 277.257 232.784 277.191 232.676C277.124 232.569 277.027 232.484 276.912 232.432L263.932 226.425C263.799 226.363 263.649 226.349 263.507 226.384L254.337 228.678C254.209 228.708 254.093 228.777 254.006 228.875C253.918 228.973 253.863 229.096 253.848 229.226C253.833 229.357 253.859 229.488 253.922 229.604C253.985 229.719 254.082 229.812 254.2 229.87Z" fill="white" stroke="#263238" stroke-linecap="round" stroke-linejoin="round"/>
<path d="M265.22 232.137H262.479C261.856 232.135 261.259 231.887 260.818 231.447C260.378 231.007 260.13 230.41 260.128 229.788L258.408 179.582C258.408 179.017 258.632 178.476 259.032 178.076C259.432 177.677 259.974 177.452 260.539 177.452H263.726C264.291 177.452 264.833 177.677 265.233 178.076C265.633 178.476 265.857 179.017 265.857 179.582L267.577 229.788C267.577 230.097 267.516 230.403 267.398 230.688C267.279 230.974 267.105 231.233 266.886 231.451C266.667 231.67 266.407 231.843 266.121 231.96C265.835 232.078 265.529 232.138 265.22 232.137Z" fill="white" stroke="#263238" stroke-linecap="round" stroke-linejoin="round"/>
<path d="M271.95 230.398C269.866 232.355 267.666 234.184 265.364 235.878C262.622 237.741 262.382 237.494 263.006 238.734C263.63 239.974 265.487 240.72 270.709 239.604C275.931 238.487 277.665 237.618 280.523 236.001C283.381 234.385 284.244 234.385 283.504 233.392C282.764 232.398 271.95 230.398 271.95 230.398Z" fill="#263238" stroke="#263238" stroke-linecap="round" stroke-linejoin="round"/>
<path d="M280.523 235.986C283.374 234.37 284.244 234.37 283.504 233.377C283.308 233.194 283.074 233.056 282.819 232.973C279.032 235.21 275.021 237.046 270.853 238.452C265.508 240.062 262.903 238.199 262.903 238.199L262.842 238.301C262.896 238.437 262.958 238.57 263.027 238.699C263.644 239.938 265.508 240.685 270.73 239.569C275.952 238.452 277.665 237.603 280.523 235.986Z" fill="white" stroke="#263238" stroke-linecap="round" stroke-linejoin="round"/>
<path d="M291.591 131.144C290.702 129.2 289.915 127.211 289.233 125.186C287.15 126.179 280.783 131.507 280.783 131.507L286.375 139.076C286.375 139.076 281.037 146.775 278.549 151.124C276.721 154.091 274.46 156.769 271.84 159.069L265.734 158.994C265.464 159.165 265.237 159.395 265.069 159.667C264.902 159.938 264.799 160.245 264.767 160.562C264.767 161.521 263.684 164.898 264.164 165.501C264.644 166.103 267.543 166.22 267.543 166.22C267.543 166.22 272.244 166.706 273.087 165.501C273.087 165.501 271.641 163.932 271.757 163.213C271.874 162.494 273.327 162.007 273.327 162.007L274.903 161.891C274.903 161.891 275.445 162.268 275.897 159.836C277.117 159.028 281.551 156.055 283.895 153.713C286.636 150.973 294.702 141.918 295.319 140.179C295.936 138.439 293.208 134.747 291.591 131.144Z" fill="white" stroke="#263238" stroke-linecap="round" stroke-linejoin="round"/>
<path d="M291.015 129.823C289.802 126.98 289.233 125.186 289.233 125.186C287.15 126.179 280.783 131.507 280.783 131.507L283.442 135.103C286.419 134.102 289.047 132.269 291.015 129.823Z" fill="#FF7800" stroke="#263238" stroke-linecap="round" stroke-linejoin="round"/>
<path d="M273.827 122.206L280.413 133.85L284.265 131.24C286.44 129.629 288.366 127.707 289.98 125.535C287.306 121.3 284.316 117.273 281.037 113.487C275.815 107.528 273.334 107.158 271.1 107.281" fill="#263238"/>
<path d="M273.827 122.206L280.413 133.85L284.265 131.24C286.44 129.629 288.366 127.707 289.98 125.535C287.306 121.3 284.316 117.273 281.037 113.487C275.815 107.528 273.334 107.158 271.1 107.281" stroke="#263238" stroke-linecap="round" stroke-linejoin="round"/>
<path d="M257.777 162.623C257.777 162.137 255.721 157.082 255.721 157.082L249.553 153.692C247.011 148.582 243.104 140.404 242.433 138.966C241.932 137.968 241.514 136.93 241.185 135.863L242.234 133.63C240.642 133.278 239.087 132.778 237.587 132.137C236.429 131.617 235.237 131.007 234.243 130.473C233.695 132.569 232.756 136.178 233.112 137.973C233.469 139.767 241.576 150.027 245.626 155.212C245.626 155.212 247.319 162.384 248.046 163.466L248.772 164.548C248.772 164.548 249.971 165.877 250.574 165.753C251.092 165.591 251.58 165.345 252.02 165.027C252.449 165.168 252.903 165.21 253.35 165.151C253.938 164.898 254.469 164.53 254.912 164.069C254.912 164.069 255.516 164.753 256.968 164.432C258.421 164.11 257.777 163.103 257.777 162.623Z" fill="white" stroke="#263238" stroke-linecap="round" stroke-linejoin="round"/>
<path d="M233.489 133.452C235.814 135.026 238.49 136.004 241.281 136.301C241.192 136.034 241.158 135.897 241.158 135.897L242.207 133.664C240.615 133.312 239.059 132.812 237.56 132.171C236.402 131.651 235.209 131.041 234.216 130.507C233.996 131.301 233.695 132.356 233.489 133.452Z" fill="#FF7800" stroke="#263238" stroke-linecap="round" stroke-linejoin="round"/>
<path d="M144.603 166.329V162.138" stroke="#263238" stroke-width="6" stroke-linecap="round" stroke-linejoin="round"/>
<path d="M262.088 222.172L256.9 223.035C256.9 223.035 253.734 223.898 253.158 226.774C251.774 233.699 244.605 236.302 238.492 237.672C229.842 239.671 221.066 241.078 212.224 241.884C198.737 243.083 185.037 242.856 171.68 240.514C164.011 239.144 152.32 237.665 146.604 231.829C146.122 231.388 145.759 230.832 145.549 230.213C145.09 228.528 146.652 226.993 148.16 226.103C150.929 224.622 153.88 223.509 156.939 222.795C164.786 220.644 174.586 220.233 181.898 216.822C184.036 215.829 185.325 214.24 183.146 212.322C176.361 206.315 144.603 205.254 144.603 193.959V166.329" stroke="#263238" stroke-width="3" stroke-linecap="round" stroke-linejoin="round"/>
<path d="M243.07 101.048C242.825 99.7498 242.396 98.4928 241.795 97.3155C240.945 95.8703 238.608 93.5415 238.184 91.3361C237.759 89.1306 241.034 86.5415 241.034 86.5415C241.034 86.5415 239.246 86.5415 239.664 85.7744C240.082 85.0073 242.131 85.3498 242.131 85.3498C241.992 84.9504 241.958 84.5221 242.032 84.1059C242.107 83.6897 242.287 83.2996 242.556 82.973C243.488 81.8703 243.831 83.9936 243.831 83.9936C244.835 81.9377 246.395 80.2034 248.333 78.9867C251.39 77.1991 256.831 79.6717 257.427 81.1922C258.024 82.7128 256.584 82.1922 256.584 82.1922C256.584 82.1922 263.89 85.5004 264.397 90.4114C264.904 95.3224 260.662 94.4867 260.662 94.4867C260.662 94.4867 260.916 97.3772 260.319 98.3977C259.723 99.4183 259.47 99.7676 256.495 97.3772C253.521 94.9867 247.408 95.8498 247.065 97.7196C246.723 99.5895 245.695 102.384 244.18 102.048C242.666 101.713 243.07 101.048 243.07 101.048Z" fill="#263238" stroke="#263238" stroke-linecap="round" stroke-linejoin="round"/>
<path d="M247.271 89.8634C247.271 89.8634 244.331 87.3292 247.538 86.8018C250.746 86.2744 251.938 92.0004 255.276 93.1991C257.337 93.8939 259.589 93.7512 261.546 92.8018" stroke="white" stroke-width="0.5" stroke-linecap="round" stroke-linejoin="round"/>
<path d="M246.771 89.4186C246.771 89.4186 243.406 87.2268 243.694 85.761C243.982 84.2953 249.409 82.3912 252.336 84.1514C255.262 85.9117 255.413 89.5692 259.072 90.446C262.732 91.3227 262.149 89.2747 261.711 88.6857" stroke="white" stroke-width="0.5" stroke-linecap="round" stroke-linejoin="round"/>
<path d="M240.329 91.911C239.74 91.1781 239.596 88.3973 241.94 87.9589C244.283 87.5206 246.189 90.0137 246.189 90.0137C245.743 90.3014 243.111 91.0343 242.673 93.2329C242.234 95.4315 244.427 95.4247 243.406 97.3425" stroke="white" stroke-width="0.5" stroke-linecap="round" stroke-linejoin="round"/>
<path d="M243.495 101.104C243.495 101.104 243.372 100.946 243.187 100.754C242.735 100.289 241.46 99.953 241.069 100.885C240.521 102.206 242.015 104.713 243.125 105.042C243.429 105.143 243.753 105.168 244.068 105.114C244.384 105.061 244.682 104.93 244.934 104.734C244.934 104.734 247.991 110.898 251.836 112.343C255.68 113.789 257.579 109.241 258.792 106.179C260.005 103.117 259.559 102.008 259.559 102.008C259.559 102.008 261.615 102.494 262.253 100.076C262.89 97.6585 261.869 96.7339 261.211 96.8434C260.591 97.0171 259.999 97.2752 259.45 97.6106L258.463 94.9736C258.463 94.9736 256.592 96.0763 253.405 94.864C250.218 93.6517 248.676 90.6928 247.922 90.9119C247.169 91.1311 247.237 93.1037 247.237 93.1037C247.237 93.1037 245.812 92.3366 245.263 92.9941C244.715 93.6517 246.141 94.4256 245.483 96.8434C244.825 99.2613 244.044 100.001 244.044 100.001C244.044 100.001 244.592 101.097 244.153 101.097L243.495 101.104Z" fill="white" stroke="#263238" stroke-linecap="round" stroke-linejoin="round"/>
<path d="M249.855 99.4937C249.957 99.9595 249.82 100.377 249.56 100.432C249.3 100.487 248.998 100.165 248.875 99.6992C248.751 99.2334 248.909 98.8156 249.176 98.7608C249.443 98.7061 249.759 99.0348 249.855 99.4937Z" fill="#263238"/>
<path d="M255.125 98.8904C255.125 99.363 254.933 99.7603 254.659 99.7671C254.385 99.774 254.158 99.3972 254.145 98.9246C254.131 98.452 254.33 98.0616 254.604 98.0548C254.878 98.0479 255.104 98.4178 255.125 98.8904Z" fill="#263238"/>
<path d="M247.079 98.0073C247.27 97.5495 247.577 97.1495 247.97 96.8468C248.363 96.5441 248.829 96.3492 249.32 96.2812" stroke="#263238" stroke-linecap="round" stroke-linejoin="round"/>
<path d="M253.672 95.9661C254.164 95.8474 254.681 95.8749 255.158 96.0452C255.635 96.2155 256.052 96.5213 256.358 96.925" stroke="#263238" stroke-linecap="round" stroke-linejoin="round"/>
<path d="M254.563 105.747C254.563 105.747 250.794 107.151 248.937 104.527" stroke="#263238" stroke-linecap="round" stroke-linejoin="round"/>
<path d="M250.143 105.686C250.143 105.686 250.273 108.24 251.616 108.754C252.959 109.268 253.597 106.014 253.597 106.014C252.436 106.186 251.25 106.073 250.143 105.686Z" fill="#263238" stroke="#263238" stroke-linecap="round" stroke-linejoin="round"/>
<path d="M250.451 107.24C250.526 107.561 250.67 107.863 250.872 108.124C251.074 108.385 251.33 108.6 251.623 108.753C252.308 109.02 252.836 108.246 253.165 107.452C252.3 107.121 251.357 107.047 250.451 107.24Z" fill="white" stroke="#263238" stroke-linecap="round" stroke-linejoin="round"/>
<path d="M253.48 96.8564C253.077 98.231 253.054 99.6888 253.412 101.076C254.056 103.062 255.015 103.13 254.632 103.377C254.248 103.624 252.576 103.952 252.199 103.637" fill="white"/>
<path d="M253.48 96.8564C253.077 98.231 253.054 99.6888 253.412 101.076C254.056 103.062 255.015 103.13 254.632 103.377C254.248 103.624 252.576 103.952 252.199 103.637" stroke="#263238" stroke-linecap="round" stroke-linejoin="round"/>
<path d="M269.092 168.151C269.092 168.151 262.026 185.028 261.793 188.754C261.56 192.48 272.21 224.315 272.457 225.685C272.704 227.055 270.723 226.802 270.723 228.165C270.748 229.109 270.958 230.04 271.34 230.904C271.463 231.274 281.277 234.254 282.894 234.377C284.512 234.5 285.252 234.13 285.252 233.007C285.252 231.884 284.512 228.411 284.512 228.041C284.512 227.671 286.499 225.302 285.752 221.959C285.005 218.617 278.056 197.445 277.186 195.206C276.315 192.966 275.322 190.617 275.322 190.617C275.704 190.058 275.959 189.422 276.069 188.754C276.144 188.176 276.144 187.591 276.069 187.014C276.069 187.014 286.835 169.774 286.849 164.411" fill="#FF7800"/>
<path d="M269.092 168.151C269.092 168.151 262.026 185.028 261.793 188.754C261.56 192.48 272.21 224.315 272.457 225.685C272.704 227.055 270.723 226.802 270.723 228.165C270.748 229.109 270.958 230.04 271.34 230.904C271.463 231.274 281.277 234.254 282.894 234.377C284.512 234.5 285.252 234.13 285.252 233.007C285.252 231.884 284.512 228.411 284.512 228.041C284.512 227.671 286.499 225.302 285.752 221.959C285.005 218.617 278.056 197.445 277.186 195.206C276.315 192.966 275.322 190.617 275.322 190.617C275.704 190.058 275.959 189.422 276.069 188.754C276.144 188.176 276.144 187.591 276.069 187.014C276.069 187.014 286.835 169.774 286.849 164.411" stroke="#263238" stroke-linecap="round" stroke-linejoin="round"/>
<path d="M276.63 203.843C279.44 212.651 282.757 223.137 282.99 224.699C283.401 227.439 282.579 228 282.853 229.37C283.127 230.74 283.675 232.665 283.675 232.665" stroke="#263238" stroke-width="0.75" stroke-linecap="round" stroke-linejoin="round"/>
<path d="M282.846 166.438C280.708 171.651 276.774 181.267 275.993 183.247C274.89 185.986 272.964 188.192 273.382 188.466C273.8 188.74 274.89 188.74 274.067 189.699C273.245 190.658 272.697 190.938 272.697 191.349C272.697 191.493 273.958 195.425 275.589 200.541" stroke="#263238" stroke-width="0.75" stroke-linecap="round" stroke-linejoin="round"/>
<path d="M284.224 163.049L283.539 164.768" stroke="#263238" stroke-width="0.75" stroke-linecap="round" stroke-linejoin="round"/>
<path d="M265.754 165.87C265.754 165.87 266.151 161.466 266.556 160.932" stroke="#263238" stroke-width="0.75" stroke-linecap="round" stroke-linejoin="round"/>
<path d="M268.961 160.959C268.961 160.959 267.193 166.623 267.543 166.26" stroke="#263238" stroke-width="0.75" stroke-linecap="round" stroke-linejoin="round"/>
<path d="M270.298 161.329L269.496 165.603C269.496 165.603 269.359 166.007 270.565 166.137" stroke="#263238" stroke-width="0.75" stroke-linecap="round" stroke-linejoin="round"/>
<path d="M254.885 164.069L254.131 163.199" stroke="#263238" stroke-width="0.75" stroke-linecap="round" stroke-linejoin="round"/>
<path d="M251.993 165.028L251.322 164.535" stroke="#263238" stroke-width="0.75" stroke-linecap="round" stroke-linejoin="round"/>
<path d="M250.547 165.754L249.587 164.268" stroke="#263238" stroke-width="0.75" stroke-linecap="round" stroke-linejoin="round"/>
<path d="M209.023 148.404C213.321 143.748 217.089 138.63 220.256 133.144" stroke="#263238" stroke-linecap="round" stroke-linejoin="round"/>
<path d="M153.512 175.479C173.265 173.88 191.831 165.409 205.98 151.541" stroke="#263238" stroke-linecap="round" stroke-linejoin="round"/>
<path d="M133.939 174.842C136.688 175.255 139.456 175.529 142.232 175.664" stroke="#263238" stroke-linecap="round" stroke-linejoin="round"/>
<path d="M108.014 165.068C109.773 165.982 111.557 166.833 113.366 167.623" stroke="#263238" stroke-linecap="round" stroke-linejoin="round"/>
<path d="M62.7207 97.3418C63.9294 110.66 68.2588 123.507 75.3584 134.842C82.458 146.177 92.1282 155.682 103.586 162.588" stroke="#263238" stroke-linecap="round" stroke-linejoin="round"/>
<path d="M194.412 21.2324C182.312 12.8692 168.252 7.77961 153.6 6.45928C138.948 5.13896 124.204 7.63287 110.803 13.6982" stroke="#263238" stroke-linecap="round" stroke-linejoin="round"/>
<path d="M224.402 56.5413C223.557 54.6235 222.643 52.7467 221.661 50.9111" stroke="#263238" stroke-linecap="round" stroke-linejoin="round"/>
<path d="M191.603 149.863C196.188 146.459 200.379 142.553 204.096 138.219" stroke="#263238" stroke-linecap="round" stroke-linejoin="round"/>
<path d="M137.873 164.65C155.655 166.513 173.528 162.085 188.381 152.137" stroke="#263238" stroke-linecap="round" stroke-linejoin="round"/>
<path d="M120.617 160.836C122.965 161.644 125.371 162.345 127.833 162.939" stroke="#263238" stroke-linecap="round" stroke-linejoin="round"/>
<path d="M72.2603 110.403C72.7765 112.116 73.3499 113.805 73.9804 115.472" stroke="#263238" stroke-linecap="round" stroke-linejoin="round"/>
<path d="M87.4815 38.5068C79.6386 47.6778 74.0664 58.5655 71.2161 70.2886C68.3658 82.0118 68.3174 94.241 71.0749 105.986" stroke="#263238" stroke-linecap="round" stroke-linejoin="round"/>
<path d="M178.108 18.8351C166.065 13.2574 152.781 10.8935 139.551 11.9738C126.322 13.0541 113.598 17.5418 102.62 24.9995" stroke="#263238" stroke-linecap="round" stroke-linejoin="round"/>
<path d="M217.186 60.3556C210.894 44.3911 199.447 30.985 184.66 22.2666" stroke="#263238" stroke-linecap="round" stroke-linejoin="round"/>
<path d="M220.495 70.9579C220.071 69.1154 219.57 67.3004 219.008 65.5127" stroke="#263238" stroke-linecap="round" stroke-linejoin="round"/>
<path d="M217.343 89.1849C217.343 88.2808 218.152 87.363 218.118 86.4452C218.083 85.5274 217.206 84.6849 217.144 83.7945C217.083 82.9041 217.83 81.9178 217.72 81.0548C217.61 80.1917 216.678 79.3698 216.548 78.4794C216.418 77.589 217.083 76.5616 216.911 75.6781C216.74 74.7945 215.753 74.0753 215.541 73.1986C215.328 72.3219 215.925 71.2465 215.698 70.3767C215.472 69.5068 214.417 68.8698 214.15 68.0068C213.882 67.1438 214.389 66.0274 214.095 65.1849C213.8 64.3424 212.724 63.7739 212.375 62.9383C212.025 62.1027 212.464 60.9452 212.107 60.1233C211.751 59.3013 210.613 58.8219 210.223 58.0137C209.832 57.2055 210.161 56.0205 209.743 55.226C209.325 54.4315 208.16 54.0479 207.687 53.2671C207.214 52.4863 207.481 51.2877 207.002 50.5274C206.522 49.7671 205.329 49.4657 204.822 48.726C204.315 47.9863 204.466 46.7671 203.931 46.0411C203.397 45.315 202.191 45.1096 201.629 44.4041C201.067 43.6986 201.128 42.4794 200.539 41.7945C199.95 41.1096 198.73 40.9931 198.12 40.3356C197.51 39.6781 197.476 38.452 196.838 37.815C196.201 37.1781 194.974 37.1301 194.316 36.5342C193.658 35.9383 193.535 34.7055 192.857 34.1164C192.178 33.5274 190.945 33.589 190.246 33.0274C189.547 32.4657 189.327 31.2603 188.608 30.726C187.888 30.1918 186.668 30.3424 185.921 29.8356C185.174 29.3287 184.879 28.137 184.112 27.6575C183.344 27.1781 182.152 27.4246 181.371 26.9726C180.589 26.5205 180.206 25.363 179.411 24.9178C178.616 24.4726 177.43 24.8287 176.621 24.4383C175.813 24.0479 175.34 22.9178 174.511 22.5548C173.681 22.1918 172.537 22.6164 171.694 22.2876C170.851 21.9589 170.323 20.8698 169.446 20.5685C168.569 20.2671 167.486 20.7808 166.622 20.5137C165.759 20.2466 165.122 19.2055 164.251 18.9726C163.381 18.7397 162.312 19.3287 161.428 19.1233C160.544 18.9178 159.838 17.9315 158.947 17.7534C158.056 17.5753 157.042 18.2534 156.144 18.1164C155.246 17.9794 154.472 17.0479 153.574 16.9452C152.676 16.8424 151.703 17.589 150.833 17.5205C149.962 17.452 149.078 16.5822 148.174 16.5479C147.269 16.5137 146.364 17.3287 145.432 17.3287C144.5 17.3287 143.616 16.5137 142.691 16.5479C141.766 16.5822 140.93 17.4589 140.032 17.5205C139.134 17.5822 138.161 16.8356 137.291 16.9452C136.42 17.0548 135.605 17.9863 134.721 18.1164C133.837 18.2466 132.802 17.5822 131.918 17.7534C131.034 17.9246 130.314 18.9109 129.437 19.1233C128.56 19.3356 127.484 18.7397 126.613 18.9726C125.743 19.2055 125.099 20.2466 124.242 20.5137C123.386 20.7808 122.262 20.2739 121.412 20.5685C120.562 20.863 120.041 21.9383 119.171 22.2876C118.3 22.637 117.177 22.1986 116.354 22.5548C115.532 22.9109 115.052 24.0479 114.243 24.4383C113.435 24.8287 112.249 24.5 111.454 24.9178C110.659 25.3356 110.268 26.5 109.494 26.9726C108.72 27.4452 107.507 27.1849 106.753 27.6575C105.999 28.1301 105.691 29.3219 104.95 29.8287C104.21 30.3356 102.99 30.1849 102.264 30.7192C101.537 31.2534 101.332 32.4589 100.626 33.0274C99.9201 33.5959 98.7002 33.5205 98.0149 34.1096C97.3296 34.6986 97.2131 35.9178 96.5552 36.5274C95.8973 37.137 94.6705 37.1712 94.0332 37.8082C93.3958 38.4452 93.3479 39.6712 92.7516 40.3287C92.1554 40.9863 90.9424 41.0959 90.353 41.7808C89.7636 42.4657 89.8253 43.6849 89.2633 44.3904C88.7014 45.0959 87.4952 45.3013 86.9606 46.0274C86.4261 46.7534 86.5769 47.9657 86.0697 48.7055C85.5626 49.4452 84.3701 49.7466 83.8904 50.5137C83.4107 51.2808 83.6574 52.4726 83.2051 53.2534C82.7528 54.0342 81.5877 54.4178 81.1491 55.2192C80.7105 56.0205 81.06 57.1917 80.6694 58C80.2788 58.8082 79.148 59.2876 78.7848 60.1096C78.4215 60.9315 78.8464 62.0822 78.5175 62.9246C78.1885 63.7671 77.092 64.2945 76.7973 65.1712C76.5026 66.0479 77.0029 67.1301 76.7425 67.9931C76.4821 68.8561 75.4267 69.4931 75.1937 70.363C74.9607 71.2328 75.55 72.3082 75.3513 73.1849C75.1525 74.0616 74.1588 74.7739 73.9806 75.6644C73.8025 76.5548 74.4878 77.5753 74.3507 78.4657C74.2137 79.3561 73.2816 80.137 73.1788 81.0411C73.076 81.9452 73.823 82.9041 73.7545 83.7808C73.686 84.6575 72.8087 85.5274 72.7813 86.4315C72.7539 87.3356 73.5557 88.2466 73.5557 89.1712C73.5557 90.0959 72.7471 90.9863 72.7813 91.9109C72.8156 92.8356 73.6928 93.6712 73.7545 94.5685C73.8162 95.4657 73.0692 96.4383 73.1788 97.3082C73.2885 98.1781 74.2205 98.9931 74.3507 99.8767C74.4809 100.76 73.8162 101.801 73.9806 102.685C74.1451 103.568 75.1457 104.281 75.3513 105.158C75.5569 106.034 74.9607 107.116 75.1937 107.979C75.4267 108.842 76.4752 109.493 76.7425 110.349C77.0098 111.205 76.5026 112.329 76.7973 113.178C77.092 114.027 78.168 114.582 78.5175 115.425C78.867 116.267 78.4284 117.411 78.7848 118.233C79.1411 119.055 80.2788 119.534 80.6694 120.342C81.06 121.151 80.7242 122.336 81.1491 123.13C81.574 123.925 82.7322 124.315 83.2051 125.096C83.678 125.877 83.4107 127.075 83.8904 127.836C84.3701 128.596 85.5626 128.897 86.0697 129.637C86.5769 130.377 86.4261 131.596 86.9606 132.322C87.4952 133.048 88.7014 133.253 89.2633 133.959C89.8253 134.664 89.7636 135.89 90.353 136.568C90.9424 137.247 92.1622 137.37 92.7722 138.034C93.3821 138.699 93.4164 139.918 94.0537 140.555C94.6911 141.192 95.9178 141.24 96.5757 141.829C97.2336 142.418 97.357 143.664 98.0355 144.247C98.7139 144.829 99.9407 144.774 100.647 145.336C101.352 145.897 101.565 147.103 102.284 147.637C103.004 148.171 104.224 148.021 104.971 148.527C105.718 149.034 106.013 150.226 106.78 150.705C107.548 151.185 108.74 150.938 109.521 151.39C110.303 151.842 110.687 153.007 111.481 153.445C112.276 153.884 113.455 153.534 114.271 153.925C115.086 154.315 115.552 155.445 116.382 155.808C117.211 156.171 118.355 155.747 119.198 156.075C120.041 156.404 120.569 157.5 121.446 157.794C122.323 158.089 123.406 157.589 124.27 157.849C125.133 158.11 125.77 159.164 126.641 159.397C127.511 159.63 128.58 159.041 129.464 159.24C130.348 159.438 131.054 160.431 131.945 160.61C132.836 160.788 133.85 160.103 134.748 160.24C135.646 160.377 136.42 161.308 137.318 161.411C138.216 161.514 139.189 160.767 140.059 160.836C140.93 160.904 141.814 161.781 142.718 161.815C143.623 161.849 144.528 161.034 145.46 161.034C146.392 161.034 147.283 161.842 148.201 161.815C149.119 161.788 149.962 160.904 150.853 160.836C151.744 160.767 152.731 161.521 153.595 161.411C154.458 161.301 155.28 160.37 156.171 160.24C157.062 160.11 158.09 160.774 158.974 160.61C159.858 160.445 160.578 159.445 161.455 159.24C162.332 159.034 163.408 159.63 164.279 159.397C165.149 159.164 165.793 158.116 166.65 157.849C167.507 157.582 168.63 158.089 169.48 157.794C170.33 157.5 170.885 156.425 171.721 156.075C172.557 155.726 173.716 156.171 174.538 155.808C175.36 155.445 175.84 154.315 176.649 153.925C177.457 153.534 178.643 153.87 179.438 153.445C180.233 153.021 180.624 151.863 181.398 151.39C182.172 150.918 183.379 151.185 184.139 150.705C184.9 150.226 185.202 149.034 185.942 148.527C186.682 148.021 187.902 148.171 188.628 147.637C189.355 147.103 189.56 145.897 190.266 145.336C190.972 144.774 192.192 144.836 192.877 144.247C193.563 143.658 193.679 142.438 194.337 141.829C194.995 141.219 196.222 141.185 196.859 140.548C197.496 139.911 197.544 138.692 198.14 138.027C198.737 137.363 199.97 137.247 200.56 136.568C201.149 135.89 201.087 134.664 201.649 133.959C202.211 133.253 203.417 133.048 203.952 132.322C204.487 131.596 204.336 130.384 204.843 129.637C205.35 128.89 206.542 128.596 207.022 127.836C207.502 127.075 207.255 125.87 207.708 125.096C208.16 124.322 209.318 123.931 209.764 123.137C210.209 122.342 209.853 121.164 210.243 120.349C210.634 119.534 211.765 119.068 212.128 118.24C212.491 117.411 212.066 116.267 212.395 115.425C212.724 114.582 213.814 114.055 214.115 113.185C214.417 112.315 213.903 111.219 214.17 110.356C214.437 109.493 215.486 108.863 215.719 107.986C215.952 107.11 215.363 106.048 215.561 105.164C215.76 104.281 216.754 103.575 216.932 102.692C217.11 101.808 216.432 100.781 216.569 99.8835C216.706 98.9863 217.638 98.2123 217.741 97.315C217.843 96.4178 217.096 95.4452 217.165 94.5753C217.234 93.7055 218.104 92.8219 218.138 91.9178C218.172 91.0137 217.343 90.089 217.343 89.1849Z" fill="#FF7800" stroke="#455A64" stroke-width="2" stroke-linecap="round" stroke-linejoin="round"/>
<path d="M123.934 20.7939L125.201 24.3419" stroke="#263238" stroke-width="2" stroke-linecap="round" stroke-linejoin="round"/>
<path d="M119.109 22.6982L120.253 25.4859" stroke="#263238" stroke-width="2" stroke-linecap="round" stroke-linejoin="round"/>
<path d="M207.413 53.3828C205.34 55.1598 202.981 56.5747 200.437 57.5677" stroke="#263238" stroke-width="2" stroke-linecap="round" stroke-linejoin="round"/>
<path d="M209.948 58.0752C209.004 58.6725 208.029 59.2212 207.029 59.719" stroke="#263238" stroke-width="2" stroke-linecap="round" stroke-linejoin="round"/>
<path d="M104.649 148.63C104.649 148.63 107.692 145.205 108.199 142.671" stroke="#263238" stroke-width="2" stroke-linecap="round" stroke-linejoin="round"/>
<path d="M96.144 141.629C96.144 141.629 98.6866 138.465 99.1937 137.958" stroke="#263238" stroke-width="2" stroke-linecap="round" stroke-linejoin="round"/>
<path d="M161.359 158.876L160.345 153.301" stroke="#263238" stroke-width="2" stroke-linecap="round" stroke-linejoin="round"/>
<path d="M166.937 157.74L166.177 154.568" stroke="#263238" stroke-width="2" stroke-linecap="round" stroke-linejoin="round"/>
<path d="M190.156 145.184L185.846 140.362" stroke="#263238" stroke-width="2" stroke-linecap="round" stroke-linejoin="round"/>
<path d="M210.456 120.328L203.986 116.91" stroke="#263238" stroke-width="2" stroke-linecap="round" stroke-linejoin="round"/>
<path d="M74.0698 89.2666L79.525 89.3899" stroke="#263238" stroke-width="2" stroke-linecap="round" stroke-linejoin="round"/>
<path d="M81.8071 89.5205L84.473 89.6438" stroke="#263238" stroke-width="2" stroke-linecap="round" stroke-linejoin="round"/>
<path d="M81.0464 120.713C81.6837 120.459 85.8436 119.343 85.8436 119.343" stroke="#263238" stroke-width="2" stroke-linecap="round" stroke-linejoin="round"/>
<path d="M161.4 19.2324C161.017 19.9995 160.249 24.4174 160.249 24.4174" stroke="#263238" stroke-width="2" stroke-linecap="round" stroke-linejoin="round"/>
<path d="M166.39 20.958L165.814 23.8416" stroke="#263238" stroke-width="2" stroke-linecap="round" stroke-linejoin="round"/>
<path d="M186.168 30.3623L184.633 32.2801" stroke="#263238" stroke-width="2" stroke-linecap="round" stroke-linejoin="round"/>
<path d="M85.9395 48.7871L89.7773 50.8967" stroke="#263238" stroke-width="2" stroke-linecap="round" stroke-linejoin="round"/>
<path d="M92.0869 52.0479L95.1572 53.7739" stroke="#263238" stroke-width="2" stroke-linecap="round" stroke-linejoin="round"/>
<path d="M165.773 68.2465C165.773 68.2465 164.601 66.4314 158.68 62.6985C152.758 58.9657 137.435 55.4177 131.397 52.1574C125.359 48.7944 118.629 42.452 116.279 39.404C113.928 36.3561 114.291 34.0547 112.4 33.8698C110.508 33.6848 108.617 34.5547 107.301 38.5136C105.985 42.4725 107.596 52.3903 108.672 55.4383C109.748 58.4862 112.907 60.4177 114.915 61.2259C116.923 62.0342 121.412 64.1643 121.405 66.0753C121.398 67.9862 121.158 68.3629 120.329 68.5068C119.5 68.6506 101.27 71.3492 98.4603 72.1643C95.6505 72.9794 94.4375 78.0958 95.2393 82.1301C96.0411 86.1643 99.221 87.4314 98.2616 90.2944C97.3021 93.1575 95.6505 96.5136 97.2816 100.315C98.9126 104.116 101.976 103.527 100.784 106.479C99.5911 109.431 99.5774 112.883 101.099 115.103C102.62 117.322 104.628 118.76 104.615 121.452C104.601 124.144 109.302 130.068 112.256 130.911C113.716 131.349 126.97 132.801 139.874 132.931C152.772 133.26 165.32 132.246 165.3 132.246C165.455 110.899 165.613 89.5661 165.773 68.2465Z" fill="white" stroke="#455A64" stroke-width="3" stroke-linecap="round" stroke-linejoin="round"/>
<path d="M191.527 130.246C183.851 131.406 176.148 132.26 168.418 132.808C167.918 132.83 167.419 132.746 166.953 132.563C166.488 132.38 166.066 132.102 165.715 131.745C165.364 131.389 165.092 130.962 164.917 130.494C164.741 130.026 164.666 129.526 164.696 129.027C164.774 109.753 164.852 90.488 164.929 71.2323C164.91 70.7261 164.993 70.2212 165.173 69.7476C165.352 69.274 165.625 68.8413 165.976 68.4752C166.326 68.1091 166.746 67.8171 167.212 67.6165C167.677 67.416 168.178 67.3109 168.685 67.3076C176.415 67.5268 184.118 67.8396 191.794 68.246C192.794 68.3168 193.73 68.7627 194.415 69.4943C195.1 70.2259 195.484 71.1892 195.488 72.1912C195.406 90.0861 195.326 107.995 195.248 125.917C195.218 126.956 194.832 127.952 194.154 128.74C193.477 129.528 192.549 130.06 191.527 130.246Z" fill="#2D424B" stroke="#455A64" stroke-width="3" stroke-linecap="round" stroke-linejoin="round"/>
<path d="M174.367 125.911C174.386 125.534 174.325 125.159 174.189 124.807C174.054 124.456 173.846 124.137 173.579 123.871C173.312 123.605 172.993 123.398 172.641 123.263C172.289 123.128 171.913 123.069 171.536 123.089C170.744 123.174 170.011 123.552 169.483 124.149C168.954 124.745 168.667 125.518 168.679 126.315C168.656 126.693 168.713 127.071 168.847 127.426C168.981 127.78 169.189 128.102 169.456 128.37C169.723 128.639 170.045 128.848 170.398 128.983C170.752 129.119 171.131 129.178 171.509 129.157C172.301 129.06 173.029 128.675 173.556 128.077C174.083 127.479 174.371 126.708 174.367 125.911Z" fill="white" stroke="#263238" stroke-width="3" stroke-linecap="round" stroke-linejoin="round"/>
<path d="M165.533 61.1914C173.133 61.1914 179.294 55.0338 179.294 47.438C179.294 39.8422 173.133 33.6846 165.533 33.6846C157.933 33.6846 151.771 39.8422 151.771 47.438C151.771 55.0338 157.933 61.1914 165.533 61.1914Z" fill="white"/>
<path d="M188.728 67.7986C190.725 65.8032 190.725 62.5679 188.728 60.5725C186.732 58.5771 183.494 58.5771 181.498 60.5725C179.501 62.5679 179.501 65.8032 181.498 67.7986C183.494 69.794 186.732 69.794 188.728 67.7986Z" fill="white"/>
<path opacity="0.2" d="M140.651 158.528C141.515 158.59 142.337 159.439 143.214 159.473C144.091 159.508 144.969 158.72 145.839 158.72C146.709 158.72 147.6 159.501 148.471 159.473C149.341 159.446 150.17 158.59 151.034 158.528C151.897 158.466 152.843 159.213 153.706 159.083C154.57 158.953 155.337 158.083 156.194 157.953C157.051 157.823 158.051 158.466 158.935 158.309C159.819 158.151 160.484 157.186 161.327 156.994C162.17 156.802 163.219 157.371 164.068 157.145C164.918 156.918 165.528 155.912 166.357 155.651C167.187 155.391 168.269 155.884 169.099 155.597C169.928 155.309 170.469 154.227 171.271 153.939C172.073 153.651 173.197 154.028 174.012 153.679C174.828 153.329 175.267 152.24 176.068 151.857C176.87 151.473 177.994 151.802 178.762 151.398C179.529 150.994 179.906 149.864 180.66 149.432C181.414 149.001 182.579 149.227 183.312 148.747C184.046 148.268 184.34 147.131 185.06 146.645C185.779 146.158 186.951 146.302 187.65 145.782C188.349 145.261 188.555 144.097 189.233 143.555C189.912 143.014 191.098 143.076 191.755 142.508C192.413 141.939 192.53 140.761 193.167 140.172C193.805 139.583 194.99 139.549 195.607 138.932C196.224 138.316 196.251 137.138 196.841 136.501C197.43 135.864 198.616 135.747 199.184 135.083C199.753 134.419 199.692 133.247 200.233 132.562C200.774 131.877 201.939 131.679 202.46 130.98C202.981 130.281 202.83 129.11 203.324 128.391C203.817 127.672 204.962 127.384 205.421 126.645C205.88 125.905 205.654 124.747 206.106 123.994C206.558 123.24 207.669 122.871 208.073 122.103C208.477 121.336 208.162 120.192 208.539 119.412C208.916 118.631 210.012 118.172 210.362 117.357C210.711 116.542 210.3 115.453 210.622 114.617C210.945 113.782 211.993 113.247 212.281 112.446C212.569 111.645 212.075 110.549 212.336 109.706C212.596 108.864 213.604 108.261 213.83 107.418C214.056 106.576 213.48 105.542 213.679 104.679C213.878 103.816 214.83 103.145 214.995 102.288C215.159 101.432 214.508 100.446 214.638 99.5486C214.769 98.6514 215.673 97.9253 215.769 97.0623C215.865 96.1993 215.146 95.261 215.214 94.3842C215.283 93.5075 216.126 92.6993 216.153 91.8226C216.18 90.9459 215.399 90.0692 215.399 89.1993C215.399 88.3294 216.187 87.439 216.153 86.5692C216.119 85.6993 215.276 84.8706 215.214 84.0075C215.152 83.1445 215.865 82.1993 215.769 81.3363C215.673 80.4733 214.762 79.7062 214.638 78.85C214.515 77.9938 215.152 76.9938 214.995 76.1103C214.837 75.2267 213.871 74.5623 213.679 73.7199C213.64 73.533 213.628 73.3415 213.645 73.1514C165.398 114.247 105.364 111.076 78.0263 106.823C78.0143 107 78.0305 107.178 78.0742 107.35C78.3004 108.192 79.3078 108.809 79.5682 109.638C79.8287 110.466 79.3352 111.549 79.6231 112.377C79.9109 113.206 80.9937 113.747 81.2815 114.542C81.5694 115.336 81.1925 116.466 81.542 117.282C81.8915 118.097 82.9811 118.542 83.3649 119.336C83.7487 120.131 83.4198 121.261 83.8241 122.028C84.2284 122.795 85.3592 123.172 85.791 123.925C86.2227 124.679 85.9966 125.836 86.4763 126.569C86.956 127.302 88.0936 127.597 88.5802 128.316C89.0668 129.035 88.9229 130.206 89.4437 130.912C89.9646 131.617 91.1296 131.809 91.671 132.494C92.2124 133.179 92.1508 134.35 92.7196 135.014C93.2884 135.679 94.4671 135.788 95.0565 136.425C95.6459 137.062 95.6802 138.247 96.297 138.864C96.9137 139.48 98.0925 139.501 98.7299 140.097C99.3672 140.692 99.4837 141.864 100.148 142.432C100.813 143.001 101.985 142.939 102.67 143.48C103.356 144.021 103.555 145.192 104.254 145.706C104.953 146.22 106.124 146.076 106.844 146.569C107.564 147.062 107.851 148.206 108.592 148.672C109.332 149.138 110.49 148.898 111.244 149.357C111.998 149.816 112.368 150.912 113.135 151.323C113.903 151.734 115.047 151.405 115.829 151.788C116.61 152.172 117.069 153.254 117.885 153.603C118.7 153.953 119.79 153.542 120.626 153.864C121.462 154.186 121.997 155.234 122.798 155.521C123.6 155.809 124.697 155.323 125.54 155.576C126.383 155.829 126.986 156.843 127.829 157.069C128.672 157.295 129.706 156.727 130.57 156.918C131.433 157.11 132.112 158.069 132.969 158.234C133.825 158.398 134.812 157.747 135.676 157.877C136.539 158.008 137.3 158.912 138.163 159.008C139.027 159.103 139.774 158.466 140.651 158.528Z" fill="black"/>
</svg>
