<svg width="1389" height="356" viewBox="0 0 1389 356" fill="none" xmlns="http://www.w3.org/2000/svg">
<rect opacity="0.5" width="1389" height="356" fill="url(#paint0_radial_771_88)"/>
<g opacity="0.1">
<path d="M89.5 305.744C52.7731 305.744 23 276.034 23 239.384C23 202.735 52.7731 173.025 89.5 173.025C126.227 173.025 156 202.735 156 239.384C156 276.034 126.227 305.744 89.5 305.744Z" fill="#FF725E"/>
<path d="M45.0184 227.372L48.9899 231.309L51.238 233.569C61.9102 223.269 74.6294 217.77 89.5005 217.77C104.372 217.77 117.073 223.269 127.824 233.657C128.524 232.924 129.241 232.164 129.967 231.431C131.262 230.113 132.592 228.812 133.886 227.494C133.886 227.494 133.965 227.45 134 227.424V227.328L133.711 227.092C132.041 225.608 130.413 224.072 128.69 222.658C125.124 219.747 121.225 217.268 117.073 215.273C112.207 212.852 107.029 211.113 101.686 210.105C99.1404 209.643 96.5599 209.407 93.9968 209.093C93.122 208.979 87.436 208.962 87.261 208.971C85.5115 209.102 83.762 209.18 82.0124 209.372C77.187 209.917 72.4459 211.045 67.8936 212.733C64.5891 213.948 61.3935 215.44 58.3412 217.194C55.1129 219.033 52.0616 221.167 49.226 223.566C47.8002 224.779 46.4268 226.071 45.0359 227.328L45.0184 227.372Z" fill="white"/>
<path d="M115.202 246.054L121.482 239.847C114.625 232.879 105.644 228.378 95.9479 227.05C81.0768 225.051 68.3489 229.547 57.5455 239.76L63.8438 246.019C70.947 239.14 79.4935 235.422 89.5183 235.422C99.5432 235.422 108.055 239.14 115.202 246.054Z" fill="white"/>
<path d="M70.115 252.303C72.1795 254.372 74.2527 256.432 76.3609 258.527C78.085 256.798 80.1344 255.426 82.3915 254.489C84.6486 253.553 87.0688 253.071 89.5131 253.071C91.9574 253.071 94.3776 253.553 96.6347 254.489C98.8917 255.426 100.941 256.798 102.665 258.527L108.902 252.312C106.368 249.748 103.349 247.713 100.02 246.323C96.6912 244.934 93.1189 244.218 89.5105 244.217C85.9021 244.216 82.3295 244.93 79 246.318C75.6705 247.707 72.6504 249.741 70.115 252.303Z" fill="white"/>
<path d="M83.8678 264.191C83.8678 265.304 84.1987 266.393 84.8187 267.319C85.4387 268.245 86.3199 268.966 87.3509 269.393C88.3819 269.819 89.5163 269.93 90.6108 269.713C91.7053 269.496 92.7107 268.96 93.4998 268.172C94.2888 267.385 94.8262 266.381 95.0439 265.289C95.2616 264.197 95.1499 263.065 94.7229 262.036C94.2958 261.007 93.5726 260.128 92.6447 259.509C91.7169 258.891 90.626 258.561 89.5101 258.561C88.0137 258.561 86.5785 259.154 85.5204 260.21C84.4623 261.266 83.8678 262.698 83.8678 264.191Z" fill="white"/>
</g>
<g opacity="0.1">
<path d="M55.4671 80C46.8885 80 39.9342 73.0604 39.9342 64.5C39.9342 55.9396 46.8885 49 55.4671 49C64.0457 49 71 55.9396 71 64.5C71 73.0604 64.0457 80 55.4671 80Z" fill="#FF725E"/>
<path opacity="0.1" d="M55.4671 80C46.8885 80 39.9342 73.0604 39.9342 64.5C39.9342 55.9396 46.8885 49 55.4671 49C64.0457 49 71 55.9396 71 64.5C71 73.0604 64.0457 80 55.4671 80Z" fill="black"/>
<path d="M55.2926 56.7891C60.7861 56.7891 65.2817 60.0873 65.2817 64.1485C65.2713 65.2885 64.9258 66.4003 64.2882 67.3462L65.625 70.3384L62.1824 69.4613C60.1486 70.8274 57.7439 71.5385 55.2926 71.4988C49.7762 71.4988 45.3081 68.2051 45.3081 64.1348C45.3081 60.0645 49.7762 56.7891 55.2926 56.7891ZM59.9255 65.1809C60.1299 65.18 60.3295 65.1187 60.499 65.0047C60.6686 64.8907 60.8005 64.7291 60.8781 64.5404C60.9557 64.3517 60.9755 64.1442 60.9351 63.9443C60.8946 63.7443 60.7957 63.5608 60.6509 63.4169C60.506 63.2729 60.3216 63.175 60.1211 63.1356C59.9205 63.0961 59.7127 63.1168 59.5239 63.1951C59.3351 63.2734 59.1738 63.4057 59.0603 63.5754C58.9469 63.7451 58.8863 63.9445 58.8863 64.1485C58.8863 64.2845 58.9132 64.4191 58.9655 64.5446C59.0178 64.6702 59.0944 64.7842 59.1909 64.8801C59.2875 64.9761 59.4021 65.052 59.5281 65.1036C59.6542 65.1553 59.7892 65.1815 59.9255 65.1809ZM55.2926 65.1809C55.4972 65.1809 55.6973 65.1204 55.8674 65.0069C56.0375 64.8935 56.1702 64.7322 56.2485 64.5436C56.3268 64.3549 56.3473 64.1473 56.3073 63.9471C56.2674 63.7468 56.1689 63.5628 56.0242 63.4184C55.8795 63.2741 55.6952 63.1757 55.4945 63.1359C55.2938 63.0961 55.0857 63.1165 54.8967 63.1946C54.7076 63.2728 54.546 63.4051 54.4324 63.5749C54.3187 63.7447 54.258 63.9443 54.258 64.1485C54.258 64.4223 54.367 64.6849 54.561 64.8785C54.7551 65.0721 55.0182 65.1809 55.2926 65.1809ZM50.6643 65.1809C50.869 65.1809 51.069 65.1204 51.2391 65.0069C51.4093 64.8935 51.5419 64.7322 51.6202 64.5436C51.6985 64.3549 51.719 64.1473 51.6791 63.9471C51.6391 63.7468 51.5406 63.5628 51.3959 63.4184C51.2512 63.2741 51.0669 63.1757 50.8662 63.1359C50.6655 63.0961 50.4575 63.1165 50.2684 63.1946C50.0794 63.2728 49.9178 63.4051 49.8041 63.5749C49.6904 63.7447 49.6297 63.9443 49.6297 64.1485C49.6297 64.4223 49.7387 64.6849 49.9327 64.8785C50.1268 65.0721 50.3899 65.1809 50.6643 65.1809Z" fill="white"/>
</g>
<g opacity="0.1">
<path d="M249.567 70.4052C246.896 58.9429 254.043 47.4902 265.529 44.825C277.016 42.1597 288.493 49.2911 291.164 60.7534C293.835 72.2158 286.688 83.6684 275.202 86.3337C263.715 88.9989 252.238 81.8675 249.567 70.4052Z" fill="#FF725E"/>
<path opacity="0.1" d="M249.567 70.4052C246.896 58.9429 254.043 47.4902 265.529 44.825C277.016 42.1597 288.493 49.2911 291.164 60.7534C293.835 72.2158 286.688 83.6684 275.202 86.3337C263.715 88.9989 252.238 81.8675 249.567 70.4052Z" fill="black"/>
<path d="M284.01 68.323C284.009 69.2073 283.673 70.0586 283.07 70.7061C282.466 71.3537 281.64 71.7497 280.756 71.8147H260.857C259.783 71.8327 258.745 71.4326 257.962 70.6994C257.179 69.9661 256.713 68.9574 256.663 67.8872C256.613 66.817 256.983 65.7694 257.694 64.9668C258.406 64.1641 259.402 63.6695 260.473 63.5879C260.523 61.9769 261.133 60.4336 262.199 59.2228C263.265 58.0119 264.72 57.2091 266.314 56.9521C267.909 56.6951 269.543 56.9999 270.937 57.8143C272.331 58.6286 273.397 59.9017 273.953 61.415C274.564 61.1109 275.241 60.9625 275.923 60.983C276.605 61.0035 277.272 61.1922 277.863 61.5324C278.455 61.8726 278.953 62.3536 279.312 62.9325C279.672 63.5115 279.883 64.1703 279.925 64.8502C280.114 64.8173 280.306 64.8005 280.498 64.7999C280.961 64.7999 281.419 64.8912 281.846 65.0684C282.274 65.2457 282.662 65.5055 282.988 65.8329C283.314 66.1603 283.572 66.5489 283.748 66.9762C283.923 67.4035 284.012 67.8612 284.01 68.323Z" fill="white"/>
</g>
<g opacity="0.1">
<path d="M1311.5 305.744C1348.23 305.744 1378 276.034 1378 239.384C1378 202.735 1348.23 173.025 1311.5 173.025C1274.77 173.025 1245 202.735 1245 239.384C1245 276.034 1274.77 305.744 1311.5 305.744Z" fill="#FF725E"/>
<path d="M1355.98 227.372L1352.01 231.309L1349.76 233.569C1339.09 223.269 1326.37 217.77 1311.5 217.77C1296.63 217.77 1283.93 223.269 1273.18 233.657C1272.48 232.924 1271.76 232.164 1271.03 231.431C1269.74 230.113 1268.41 228.812 1267.11 227.494C1267.11 227.494 1267.03 227.45 1267 227.424V227.328L1267.29 227.092C1268.96 225.608 1270.59 224.072 1272.31 222.658C1275.88 219.747 1279.78 217.268 1283.93 215.273C1288.79 212.852 1293.97 211.113 1299.31 210.105C1301.86 209.643 1304.44 209.407 1307 209.093C1307.88 208.979 1313.56 208.962 1313.74 208.971C1315.49 209.102 1317.24 209.18 1318.99 209.372C1323.81 209.917 1328.55 211.045 1333.11 212.733C1336.41 213.948 1339.61 215.44 1342.66 217.194C1345.89 219.033 1348.94 221.167 1351.77 223.566C1353.2 224.779 1354.57 226.071 1355.96 227.328L1355.98 227.372Z" fill="white"/>
<path d="M1285.8 246.054L1279.52 239.847C1286.37 232.879 1295.36 228.378 1305.05 227.05C1319.92 225.051 1332.65 229.547 1343.45 239.76L1337.16 246.019C1330.05 239.14 1321.51 235.422 1311.48 235.422C1301.46 235.422 1292.95 239.14 1285.8 246.054Z" fill="white"/>
<path d="M1330.88 252.303C1328.82 254.372 1326.75 256.432 1324.64 258.527C1322.92 256.798 1320.87 255.426 1318.61 254.489C1316.35 253.553 1313.93 253.071 1311.49 253.071C1309.04 253.071 1306.62 253.553 1304.37 254.489C1302.11 255.426 1300.06 256.798 1298.33 258.527L1292.1 252.312C1294.63 249.748 1297.65 247.713 1300.98 246.323C1304.31 244.934 1307.88 244.218 1311.49 244.217C1315.1 244.216 1318.67 244.93 1322 246.318C1325.33 247.707 1328.35 249.741 1330.88 252.303Z" fill="white"/>
<path d="M1317.13 264.191C1317.13 265.304 1316.8 266.393 1316.18 267.319C1315.56 268.245 1314.68 268.966 1313.65 269.393C1312.62 269.819 1311.48 269.93 1310.39 269.713C1309.29 269.496 1308.29 268.96 1307.5 268.172C1306.71 267.385 1306.17 266.381 1305.96 265.289C1305.74 264.197 1305.85 263.065 1306.28 262.036C1306.7 261.007 1307.43 260.128 1308.36 259.509C1309.28 258.891 1310.37 258.561 1311.49 258.561C1312.99 258.561 1314.42 259.154 1315.48 260.21C1316.54 261.266 1317.13 262.698 1317.13 264.191Z" fill="white"/>
</g>
<g opacity="0.1">
<path d="M1345.53 80C1354.11 80 1361.07 73.0604 1361.07 64.5C1361.07 55.9396 1354.11 49 1345.53 49C1336.95 49 1330 55.9396 1330 64.5C1330 73.0604 1336.95 80 1345.53 80Z" fill="#FF725E"/>
<path opacity="0.1" d="M1345.53 80C1354.11 80 1361.07 73.0604 1361.07 64.5C1361.07 55.9396 1354.11 49 1345.53 49C1336.95 49 1330 55.9396 1330 64.5C1330 73.0604 1336.95 80 1345.53 80Z" fill="black"/>
<path d="M1345.71 56.7891C1340.21 56.7891 1335.72 60.0873 1335.72 64.1485C1335.73 65.2885 1336.07 66.4003 1336.71 67.3462L1335.38 70.3384L1338.82 69.4613C1340.85 70.8274 1343.26 71.5385 1345.71 71.4988C1351.22 71.4988 1355.69 68.2051 1355.69 64.1348C1355.69 60.0645 1351.22 56.7891 1345.71 56.7891ZM1341.07 65.1809C1340.87 65.18 1340.67 65.1187 1340.5 65.0047C1340.33 64.8907 1340.2 64.7291 1340.12 64.5404C1340.04 64.3517 1340.02 64.1442 1340.06 63.9443C1340.11 63.7443 1340.2 63.5608 1340.35 63.4169C1340.49 63.2729 1340.68 63.175 1340.88 63.1356C1341.08 63.0961 1341.29 63.1168 1341.48 63.1951C1341.66 63.2734 1341.83 63.4057 1341.94 63.5754C1342.05 63.7451 1342.11 63.9445 1342.11 64.1485C1342.11 64.2845 1342.09 64.4191 1342.03 64.5446C1341.98 64.6702 1341.91 64.7842 1341.81 64.8801C1341.71 64.9761 1341.6 65.052 1341.47 65.1036C1341.35 65.1553 1341.21 65.1815 1341.07 65.1809ZM1345.71 65.1809C1345.5 65.1809 1345.3 65.1204 1345.13 65.0069C1344.96 64.8935 1344.83 64.7322 1344.75 64.5436C1344.67 64.3549 1344.65 64.1473 1344.69 63.9471C1344.73 63.7468 1344.83 63.5628 1344.98 63.4184C1345.12 63.2741 1345.3 63.1757 1345.51 63.1359C1345.71 63.0961 1345.91 63.1165 1346.1 63.1946C1346.29 63.2728 1346.45 63.4051 1346.57 63.5749C1346.68 63.7447 1346.74 63.9443 1346.74 64.1485C1346.74 64.4223 1346.63 64.6849 1346.44 64.8785C1346.24 65.0721 1345.98 65.1809 1345.71 65.1809ZM1350.34 65.1809C1350.13 65.1809 1349.93 65.1204 1349.76 65.0069C1349.59 64.8935 1349.46 64.7322 1349.38 64.5436C1349.3 64.3549 1349.28 64.1473 1349.32 63.9471C1349.36 63.7468 1349.46 63.5628 1349.6 63.4184C1349.75 63.2741 1349.93 63.1757 1350.13 63.1359C1350.33 63.0961 1350.54 63.1165 1350.73 63.1946C1350.92 63.2728 1351.08 63.4051 1351.2 63.5749C1351.31 63.7447 1351.37 63.9443 1351.37 64.1485C1351.37 64.4223 1351.26 64.6849 1351.07 64.8785C1350.87 65.0721 1350.61 65.1809 1350.34 65.1809Z" fill="white"/>
</g>
<g opacity="0.1">
<path d="M1151.43 70.4052C1154.1 58.9429 1146.96 47.4902 1135.47 44.825C1123.98 42.1597 1112.51 49.2911 1109.84 60.7534C1107.17 72.2158 1114.31 83.6684 1125.8 86.3337C1137.29 88.9989 1148.76 81.8675 1151.43 70.4052Z" fill="#FF725E"/>
<path opacity="0.1" d="M1151.43 70.4052C1154.1 58.9429 1146.96 47.4902 1135.47 44.825C1123.98 42.1597 1112.51 49.2911 1109.84 60.7534C1107.17 72.2158 1114.31 83.6684 1125.8 86.3337C1137.29 88.9989 1148.76 81.8675 1151.43 70.4052Z" fill="black"/>
<path d="M1116.99 68.323C1116.99 69.2073 1117.33 70.0586 1117.93 70.7061C1118.53 71.3537 1119.36 71.7497 1120.24 71.8147H1140.14C1141.22 71.8327 1142.26 71.4326 1143.04 70.6994C1143.82 69.9661 1144.29 68.9574 1144.34 67.8872C1144.39 66.817 1144.02 65.7694 1143.31 64.9668C1142.59 64.1641 1141.6 63.6695 1140.53 63.5879C1140.48 61.9769 1139.87 60.4336 1138.8 59.2228C1137.74 58.0119 1136.28 57.2091 1134.69 56.9521C1133.09 56.6951 1131.46 56.9999 1130.06 57.8143C1128.67 58.6286 1127.6 59.9017 1127.05 61.415C1126.44 61.1109 1125.76 60.9625 1125.08 60.983C1124.39 61.0035 1123.73 61.1922 1123.14 61.5324C1122.55 61.8726 1122.05 62.3536 1121.69 62.9325C1121.33 63.5115 1121.12 64.1703 1121.07 64.8502C1120.89 64.8173 1120.69 64.8005 1120.5 64.7999C1120.04 64.7999 1119.58 64.8912 1119.15 65.0684C1118.73 65.2457 1118.34 65.5055 1118.01 65.8329C1117.69 66.1603 1117.43 66.5489 1117.25 66.9762C1117.08 67.4035 1116.99 67.8612 1116.99 68.323Z" fill="white"/>
</g>
<defs>
<radialGradient id="paint0_radial_771_88" cx="0" cy="0" r="1" gradientUnits="userSpaceOnUse" gradientTransform="translate(694.5 326.137) rotate(-167.959) scale(710.123 564.926)">
<stop stop-color="#D7FBF5"/>
<stop offset="0.0894559" stop-color="#D7ECFB"/>
<stop offset="1" stop-color="#FF9565" stop-opacity="0"/>
</radialGradient>
</defs>
</svg>
