<svg width="110" height="130" viewBox="0 0 110 130" fill="none" xmlns="http://www.w3.org/2000/svg">
<path d="M11.9064 91.7311C9.44939 91.3147 7.14508 90.2596 5.22463 88.6715C3.30419 87.0834 1.83513 85.0181 0.964896 82.683C0.0946623 80.3478 -0.146168 77.8249 0.266563 75.3673C0.679293 72.9097 1.73109 70.6038 3.3164 68.6811L55.3764 5.46106C56.9509 3.52324 59.0123 2.03895 61.3494 1.16033C63.6865 0.281714 66.2153 0.0403781 68.6764 0.461058H68.7264C71.1793 0.86293 73.482 1.90745 75.4002 3.48833C77.3183 5.06921 78.7834 7.13002 79.6464 9.46105L108.366 86.161C109.241 88.4965 109.485 91.021 109.075 93.4809C108.665 95.9407 107.615 98.2493 106.03 100.175C104.445 102.1 102.381 103.575 100.046 104.45C97.7108 105.325 95.1864 105.57 92.7264 105.161L11.9464 91.6811L11.9064 91.7311Z" fill="#FF7800"/>
<path d="M68.0261 4.67217C66.297 4.35818 64.5154 4.51251 62.866 5.11915C61.2167 5.72578 59.7596 6.76264 58.6461 8.12217L6.58607 71.3422C5.48633 72.6925 4.7583 74.3065 4.474 76.0246C4.18971 77.7427 4.359 79.5053 4.96515 81.1379C5.57131 82.7704 6.59328 84.2164 7.92994 85.3326C9.2666 86.4489 10.8716 87.1968 12.5861 87.5022L93.4261 101.022C95.152 101.305 96.9219 101.131 98.5593 100.516C100.197 99.9012 101.644 98.8677 102.757 97.5188C103.871 96.1698 104.61 94.5525 104.903 92.8282C105.196 91.1039 105.032 89.333 104.426 87.6922L75.6761 11.0022C75.0739 9.36522 74.0488 7.91706 72.705 6.80514C71.3612 5.69322 69.7468 4.95725 68.0261 4.67217Z" fill="white"/>
<path d="M50.3246 74.9316C50.4402 74.2329 50.6963 73.5648 51.0773 72.9678C51.4584 72.3708 51.9565 71.8572 52.5416 71.4581C53.1267 71.059 53.7867 70.7827 54.4816 70.6458C55.1765 70.5089 55.8919 70.5143 56.5846 70.6616C57.2655 70.7726 57.9179 71.0166 58.5045 71.3797C59.0911 71.7428 59.6005 72.2179 60.0035 72.7778C60.4065 73.3377 60.6953 73.9716 60.8533 74.6431C61.0114 75.3147 61.0356 76.0107 60.9246 76.6917C60.8137 77.3726 60.5697 78.0249 60.2066 78.6115C59.8435 79.1981 59.3684 79.7075 58.8085 80.1105C58.2486 80.5135 57.6147 80.8023 56.9432 80.9603C56.2717 81.1184 55.5755 81.1426 54.8946 81.0316C54.1884 80.944 53.5072 80.7149 52.8916 80.3578C52.2761 80.0008 51.7389 79.5232 51.3122 78.9537C50.8855 78.3841 50.5782 77.7344 50.4085 77.0433C50.2388 76.3522 50.2103 75.634 50.3246 74.9316ZM57.6346 32.9316L67.5446 34.5516L60.7746 65.6016L54.1446 64.5216L57.6346 32.9316Z" fill="#FF7800"/>
<path d="M44.5262 97.1719L41.0703 127.76L57.0703 129.26L61.5662 100.012L44.5262 97.1719Z" fill="#455A64"/>
</svg>
