<svg width="27" height="27" viewBox="0 0 27 27" fill="none" xmlns="http://www.w3.org/2000/svg">
<path fill-rule="evenodd" clip-rule="evenodd" d="M13.5 0C20.9544 0 27 6.04556 27 13.5C27 20.9544 20.9544 26.9998 13.5 26.9998C6.04534 27 0 20.9544 0 13.5C0 6.04556 6.04534 0 13.5 0ZM17.4507 21.5804H9.54932V20.2504H11.034V12.1293H9.54932V11.0711H13.2425C14.1752 11.0711 15.093 10.9591 15.9998 10.7303V20.2507H17.4509L17.4507 21.5804ZM14.0315 4.6314C14.6435 4.6314 15.1247 4.80828 15.4753 5.15786C15.8223 5.50723 15.9976 5.98645 15.9976 6.60388C15.9976 7.22966 15.6992 7.78623 15.0983 8.27402C14.4938 8.76182 13.7929 9.00747 12.994 9.00747C12.3935 9.00747 11.9162 8.83938 11.5506 8.50276C11.1847 8.16196 11.0019 7.72141 11.0019 7.17341C11.0019 6.48281 11.3003 5.88735 11.8938 5.3822C12.4871 4.8821 13.1994 4.6314 14.0315 4.6314Z" fill="white"/>
</svg>
